<?xml version="1.0" encoding="UTF-8" standalone="no"?><!-- Created with Inkscape (http://www.inkscape.org/) --><svg xmlns:dc="http://purl.org/dc/elements/1.1/" xmlns:cc="http://creativecommons.org/ns#" xmlns:rdf="http://www.w3.org/1999/02/22-rdf-syntax-ns#" xmlns:svg="http://www.w3.org/2000/svg" xmlns="http://www.w3.org/2000/svg" xmlns:xlink="http://www.w3.org/1999/xlink" xmlns:sodipodi="http://sodipodi.sourceforge.net/DTD/sodipodi-0.dtd" xmlns:inkscape="http://www.inkscape.org/namespaces/inkscape" width="48" height="48" id="svg3440"><defs><linearGradient xlink:href="#4" id="3" gradientUnits="userSpaceOnUse" x1="-21.659" y1="15.649" x2="-21.962" y2="21.336"/><linearGradient xlink:href="#4" id="2" x1="-25.18" y1="30.06" x2="-22.252" y2="21.04" gradientUnits="userSpaceOnUse"/><linearGradient id="4"><stop stop-color="#fff"/><stop offset="1" stop-color="#fff" stop-opacity="0"/></linearGradient><linearGradient xlink:href="#4" id="1" gradientUnits="userSpaceOnUse" x1="-25.18" y1="30.06" x2="-22.11" y2="22.662"/><linearGradient xlink:href="#4" id="0" gradientUnits="userSpaceOnUse" x1="-22.823" y1="28.338" x2="-22.11" y2="22.662"/><radialGradient xlink:href="#4" id="7" gradientUnits="userSpaceOnUse" cx="12.07" cy="12.493" fx="12.07" fy="12.493" r="6.718"/><radialGradient id="6" cx="18.248" cy="15.716" fx="18.248" fy="15.716" r="29.993" gradientUnits="userSpaceOnUse"><stop stop-color="#d3e9ff"/><stop offset=".155" stop-color="#d3e9ff"/><stop offset=".75" stop-color="#4074ae"/><stop offset="1" stop-color="#36486c"/></radialGradient><radialGradient id="5" cx="15.601" cy="12.142" fx="15.601" fy="12.142" r="43.527" gradientUnits="userSpaceOnUse"><stop stop-color="#fff"/><stop offset="1" stop-color="#fff" stop-opacity=".165"/></radialGradient><radialGradient id="8" gradientTransform="scale(1.64399.60828)" cx="15.12" cy="63.965" fx="15.12" fy="63.965" r="12.289" gradientUnits="userSpaceOnUse"><stop/><stop offset="1" stop-opacity="0"/></radialGradient></defs><sodipodi:namedview pagecolor="#ffffff" bordercolor="#666666" borderopacity="0.17254902" showgrid="false"/><metadata><rdf:RDF><cc:Work><dc:format>image/svg+xml</dc:format><dc:type rdf:resource="http://purl.org/dc/dcmitype/StillImage"/><dc:title>Internet Category</dc:title><dc:creator><cc:Agent><dc:title>Jakub Steiner</dc:title></cc:Agent></dc:creator><dc:contributor><cc:Agent><dc:title>Tuomas Kuosmanen</dc:title></cc:Agent></dc:contributor><cc:license rdf:resource="http://creativecommons.org/licenses/publicdomain/"/><dc:source>http://jimmac.musichall.cz</dc:source><dc:subject><rdf:Bag><rdf:li>internet</rdf:li><rdf:li>tools</rdf:li><rdf:li>applications</rdf:li><rdf:li>category</rdf:li></rdf:Bag></dc:subject></cc:Work><cc:License rdf:about="http://creativecommons.org/licenses/publicdomain/"><cc:permits rdf:resource="http://creativecommons.org/ns#Reproduction"/><cc:permits rdf:resource="http://creativecommons.org/ns#Distribution"/><cc:permits rdf:resource="http://creativecommons.org/ns#DerivativeWorks"/></cc:License></rdf:RDF></metadata><path d="M45.0528 38.908627A20.20305 7.475129 0 1 1 4.646702 38.908627 20.20305 7.475129 0 1 1 45.0528 38.908627" transform="matrix(1 0 0 1.24324 0-10.272)" fill="url(#8)"/><path d="m43.96 23.485c0 10.71-8.682 19.392-19.39 19.392-10.709 0-19.391-8.682-19.391-19.392 0-10.709 8.682-19.39 19.391-19.39 10.708 0 19.39 8.681 19.39 19.39z" fill="url(#6)" stroke="#39396c"/><g transform="matrix(.98237 0 0 .98237.121.233)" fill="#204a87" fill-opacity=".713"><path d="m44.07 20.714c0 .263 0 0 0 0l-.545.617c-.334-.394-.709-.725-1.09-1.07l-.836.123-.764-.863v1.068l.654.495.435.493.582-.658c.146.274.291.549.437.823v.822l-.655.74-1.199.823-.908.906-.582-.66.291-.74-.581-.658-.981-2.098-.836-.945-.219.246.328 1.193.617.699c.352 1.018.701 1.99 1.164 2.963.718 0 1.395-.076 2.107-.166v.576l-.872 2.139-.8.904-.654 1.4c0 .768 0 1.535 0 2.303l.219.906-.363.41-.801.494-.836.699.691.781-.945.824.182.533-1.418 1.605h-.944l-.8.494h-.51v-.658l-.217-1.318c-.281-.826-.574-1.647-.872-2.467 0-.605.036-1.205.072-1.811l.364-.822-.51-.988.037-1.357-.691-.781.346-1.131-.563-.638h-.982l-.327-.37-.981.618-.399-.454-.909.782c-.617-.7-1.235-1.399-1.854-2.098l-.727-1.729.654-.986-.363-.411.799-1.894c.656-.816 1.342-1.6 2.035-2.386l1.236-.329 1.381-.164.945.247 1.345 1.356.473-.534.653-.082 1.236.411h.945l.654-.576.291-.411-.655-.411-1.091-.082c-.303-.42-.584-.861-.943-1.234l-.364.164-.145 1.07-.654-.74-.145-.824-.727-.574h-.292l.727.822-.291.74-.581.164.363-.74-.655-.328-.58-.658-1.092.246-.145.328-.654.412-.363.905-.908.452-.4-.452h-.436v-1.481l.945-.494h.727l-.146-.575-.58-.576.98-.206.545-.616.436-.741h.801l-.219-.575.51-.329v.658l1.09.246 1.09-.904.073-.412.944-.658c-.342.042-.684.074-1.018.165v-.741l.363-.823h-.363l-.798.74-.219.412.219.577-.364.986-.581-.329-.508-.575-.801.575-.291-1.316 1.381-.905v-.494l.873-.576 1.381-.33.945.33 1.744.329-.435.493h-.945l.945.987.727-.822.221-.362c0 0 2.787 2.498 4.38 5.231 1.593 2.733 2.341 5.955 2.341 6.609"/><path d="m26.07 9.236l-.073.493.51.329.871-.576-.436-.494-.582.33-.29-.082"/><path d="m26.87 5.863l-1.891-.741-2.18.247-2.69.74-.509.494 1.672 1.151v.658l-.654.658.873 1.729.58-.33.729-1.151c1.123-.347 2.13-.741 3.197-1.234l.873-2.221"/><path d="m28.833 12.775l-.291-.741-.51.165.146.904.654-.328"/><path d="m29.12 12.609l-.146.988.8-.165.581-.575-.509-.494c-.171-.455-.367-.88-.581-1.316h-.436v.493l.29.329v.74"/><path d="m18.365 28.24l-.582-1.152-1.09-.247-.582-1.563-1.454.164-1.235-.904-1.309 1.151v.182c-.396-.114-.883-.13-1.235-.347l-.291-.822v-.905l-.872.082c.073-.576.145-1.151.218-1.727h-.509l-.508.658-.509.246-.727-.41-.073-.905.146-.987 1.091-.822h.872l.145-.494 1.09.246.8.988.146-1.646 1.381-1.151.509-1.234 1.018-.411.581-.822 1.308-.248.655-.986c-.654 0-1.309 0-1.963 0l1.236-.576h.872l1.236-.412.145-.492-.436-.412-.509-.165.145-.493-.363-.74-.873.328.145-.658-1.018-.576-.799 1.398.072.494-.799.33-.509 1.069-.218-.987-1.381-.576-.218-.74 1.817-1.07.8-.74.073-.905-.436-.247-.582-.082-.363.905c0 0-.608.119-.764.158-1.996 1.839-6.03 5.81-6.966 13.306.037.174.679 1.182.679 1.182l1.526.904 1.526.412.655.823 1.017.74.582-.082.436.196v.133l-.581 1.563-.437.658.146.33-.363 1.232 1.309 2.387 1.308 1.152.582.822-.073 1.729.437.986-.437 1.893c0 0-.034-.012.021.178.056.19 2.329 1.451 2.474 1.344.144-.109.267-.205.267-.205l-.145-.41.581-.576.218-.576.945-.33.727-1.81-.218-.492.508-.74 1.091-.248.582-1.316-.146-1.645.872-1.234.146-1.234c-1.193-.592-2.377-1.201-3.562-1.81"/><path d="m16.766 9.565l.727.494h.582v-.576l-.727-.329-.582.411"/><path d="m14.876 8.907l-.364.905h.727l.364-.823c.314-.222.626-.445.945-.658l.727.247c.484.329.969.658 1.454.987l.727-.658-.8-.329-.364-.741-1.381-.165-.073-.412-.654.165-.29.576-.364-.741-.145.329.073.823-.582.494"/><path d="m17.492 6.85l.364-.329.727-.165c.498-.242.998-.405 1.526-.576l-.29-.494-.939.135-.443.442-.731.106-.65.305-.316.153-.193.258.944.164"/><path d="m18.729 14.667l.436-.658-.655-.493.218 1.151"/></g><g fill="none" fill-opacity="1"><path d="m42.975 23.486c0 10.166-8.241 18.407-18.406 18.407-10.165 0-18.406-8.241-18.406-18.407 0-10.165 8.241-18.406 18.406-18.406 10.164 0 18.406 8.24 18.406 18.406z" opacity=".396" stroke="url(#5)"/><g fill-rule="evenodd" stroke-linejoin="round" stroke-linecap="round" color="#000" stroke-width=".882"><path d="M-2.828428 21.04155A15.733126 9.457553 0 1 1 -34.29468 21.04155 15.733126 9.457553 0 1 1 -2.828428 21.04155z" transform="matrix(1.13103.6131-.47656.87914 54.09 16.04)" marker="none" stroke="url(#2)"/><path transform="matrix(.93933-.87909.68331.73013 32.31-4.452)" d="M-2.828428 21.04155A15.733126 9.457553 0 1 1 -34.29468 21.04155 15.733126 9.457553 0 1 1 -2.828428 21.04155z" marker="none" stroke="url(#1)"/></g></g><g fill-rule="evenodd" stroke-linejoin="round" stroke-linecap="round" color="#000"><path transform="matrix(-1.04577.76725.76725 1.04577 37.575 13.307)" d="M18.788838 12.493138A6.717515 6.717515 0 1 1 5.353809 12.493138 6.717515 6.717515 0 1 1 18.788838 12.493138" marker="none" fill="url(#7)"/><path d="M18.788838 12.493138A6.717515 6.717515 0 1 1 5.353809 12.493138 6.717515 6.717515 0 1 1 18.788838 12.493138" transform="matrix(-.32238.23652.23652.32238 35.474 28.751)" marker="none" fill="#fff"/><g fill="none"><path d="M-2.828428 21.04155A15.733126 9.457553 0 1 1 -34.29468 21.04155 15.733126 9.457553 0 1 1 -2.828428 21.04155z" transform="matrix(-1.28032-.12616.09806-.99518-2.405 40.524)" marker="none" stroke-width=".882" stroke="url(#0)"/><path d="M-2.828428 21.04155A15.733126 9.457553 0 1 1 -34.29468 21.04155 15.733126 9.457553 0 1 1 -2.828428 21.04155z" transform="matrix(.91787-.85898.6677.71343 27.633-6.909)" marker="none" stroke-width=".902" stroke="url(#3)"/></g><path transform="matrix(-.80628.59154.59154.80628 13.896 9.303)" d="M18.788838 12.493138A6.717515 6.717515 0 1 1 5.353809 12.493138 6.717515 6.717515 0 1 1 18.788838 12.493138" marker="none" fill="url(#7)"/><path d="M18.788838 12.493138A6.717515 6.717515 0 1 1 5.353809 12.493138 6.717515 6.717515 0 1 1 18.788838 12.493138" transform="matrix(-.24855.18235.18235.24855 12.275 21.21)" marker="none" fill="#fff"/><path d="M18.788838 12.493138A6.717515 6.717515 0 1 1 5.353809 12.493138 6.717515 6.717515 0 1 1 18.788838 12.493138" transform="matrix(-.80628.59154.59154.80628 15.01-4.168)" marker="none" fill="url(#7)"/><path transform="matrix(-.24855.18235.18235.24855 13.389 7.739)" d="M18.788838 12.493138A6.717515 6.717515 0 1 1 5.353809 12.493138 6.717515 6.717515 0 1 1 18.788838 12.493138" marker="none" fill="#fff"/><path d="M18.788838 12.493138A6.717515 6.717515 0 1 1 5.353809 12.493138 6.717515 6.717515 0 1 1 18.788838 12.493138" transform="matrix(-.87023.63857.63846.87038 26.835-5.808)" marker="none" fill="url(#7)"/><path transform="matrix(-.26827.19685.19682.26831 25.09 7.05)" d="M18.788838 12.493138A6.717515 6.717515 0 1 1 5.353809 12.493138 6.717515 6.717515 0 1 1 18.788838 12.493138" marker="none" fill="#fff"/></g></svg>