<?xml version="1.0" encoding="utf-8"?>
<!-- Generator: Adobe Illustrator 17.0.0, SVG Export Plug-In . SVG Version: 6.00 Build 0)  -->
<!DOCTYPE svg PUBLIC "-//W3C//DTD SVG 1.1//EN" "http://www.w3.org/Graphics/SVG/1.1/DTD/svg11.dtd">
<svg version="1.1" id="Layer_1" xmlns="http://www.w3.org/2000/svg" xmlns:xlink="http://www.w3.org/1999/xlink" x="0px" y="0px"
	 width="141.732px" height="141.732px" viewBox="0 0 141.732 141.732" enable-background="new 0 0 141.732 141.732"
	 xml:space="preserve">
<path opacity="0.9" fill="#13A354" enable-background="new    " d="M65.466,121.756L65.466,121.756z"/>
<path opacity="0.9" fill="#13A354" enable-background="new    " d="M76.266,121.756L76.266,121.756z"/>
<path opacity="0.9" fill="#34A853" enable-background="new    " d="M48.816,81.758c0,13.483,9.3,21.85,22.05,21.85
	c12.067,0,21.85-9.783,21.85-21.85V67.875V35.612v-5.56c0-12.067-9.783-21.85-21.85-21.85s-22.05,9.783-22.05,21.85v37.689
	C48.816,67.741,48.816,81.758,48.816,81.758z"/>
<path opacity="0.9" fill="#34A853" enable-background="new    " d="M65.466,121.756v7.934H41.263c-3.032,0-5.49,2.458-5.49,5.49
	v-0.941c0,3.035,2.458,5.493,5.49,5.493h59.206c3.032,0,5.49-2.458,5.49-5.493v0.941c0-3.032-2.458-5.49-5.49-5.49H76.266v-7.934
	c18.165-2.619,32.122-18.135,32.122-37.023h-7.779c0,16.427-13.316,29.858-29.743,29.858c-16.387,0-29.67-13.431-29.67-29.858h-7.76
	c0,18.888,13.923,34.404,32.044,37.023"/>
</svg>
