<?xml version="1.0" encoding="utf-8"?>
<!-- Generator: Adobe Illustrator 17.0.0, SVG Export Plug-In . SVG Version: 6.00 Build 0)  -->
<!DOCTYPE svg PUBLIC "-//W3C//DTD SVG 1.1//EN" "http://www.w3.org/Graphics/SVG/1.1/DTD/svg11.dtd">
<svg version="1.1" id="Layer_1" xmlns="http://www.w3.org/2000/svg" xmlns:xlink="http://www.w3.org/1999/xlink" x="0px" y="0px"
	 width="141.732px" height="141.732px" viewBox="0 0 141.732 141.732" enable-background="new 0 0 141.732 141.732"
	 xml:space="preserve">
<path opacity="0.85" fill="#EA4335" enable-background="new    " d="M70.866,8.202c-12.067,0-21.85,9.783-21.85,21.85v29.385
	l43.7-23.825v-5.56C92.716,17.985,82.933,8.202,70.866,8.202z"/>
<path opacity="0.85" fill="#FF3E3E" enable-background="new    " d="M65.466,121.756L65.466,121.756z"/>
<path opacity="0.85" fill="#FF3E3E" enable-background="new    " d="M76.266,121.756L76.266,121.756z"/>
<path opacity="0.85" fill="#EA4335" enable-background="new    " d="M76.266,121.756c18.165-2.619,32.122-18.25,32.122-37.138
	l-7.779,0.23c0,16.427-13.316,29.743-29.743,29.743c-12.851,0-23.799-8.149-27.952-19.563v-0.001l7.998-4.36v0.001
	c3.411,7.628,11.062,12.94,19.954,12.94c12.067,0,21.85-9.783,21.85-21.85V67.875l43.827-23.896l-6.693-12.273L5.188,99.673
	l6.694,12.273l24.217-13.203v0.001c4.925,12.122,16.007,21.084,29.367,23.012v7.934H41.263c-3.032,0-5.49,2.458-5.49,5.49v-0.941
	c0,3.035,2.458,5.493,5.49,5.493h59.206c3.032,0,5.49-2.458,5.49-5.493v0.941c0-3.032-2.458-5.49-5.49-5.49H76.266V121.756z"/>
</svg>
