<?xml version="1.0" encoding="UTF-8" standalone="no"?><!-- Created with Inkscape (http://www.inkscape.org/) --><svg xmlns:dc="http://purl.org/dc/elements/1.1/" xmlns:cc="http://creativecommons.org/ns#" xmlns:rdf="http://www.w3.org/1999/02/22-rdf-syntax-ns#" xmlns:svg="http://www.w3.org/2000/svg" xmlns="http://www.w3.org/2000/svg" xmlns:xlink="http://www.w3.org/1999/xlink" xmlns:sodipodi="http://sodipodi.sourceforge.net/DTD/sodipodi-0.dtd" xmlns:inkscape="http://www.inkscape.org/namespaces/inkscape" id="svg1288" height="48" width="48"><defs><linearGradient id="9" xlink:href="#0"/><linearGradient id="A"><stop stop-color="#fff"/><stop offset="1" stop-color="#fff" stop-opacity="0"/></linearGradient><linearGradient y2="117.83" x2="15.343" y1="117.83" x1="1.642" gradientTransform="matrix(2.74017 0 0 .14769 31.378 14.833)" gradientUnits="userSpaceOnUse" id="7"><stop stop-color="#fff" stop-opacity="0"/><stop offset=".108" stop-color="#fff" stop-opacity=".707"/><stop offset=".921" stop-color="#fff" stop-opacity=".707"/><stop offset="1" stop-color="#fff" stop-opacity="0"/></linearGradient><linearGradient id="B" gradientUnits="userSpaceOnUse" gradientTransform="matrix(2.77439 0 0 1.96971-1892.18-872.89)" x1="302.86" y1="366.65" x2="302.86" y2="609.51"><stop stop-opacity="0"/><stop offset=".5"/><stop offset="1" stop-opacity="0"/></linearGradient><linearGradient y2="117.83" x2="15.343" y1="117.83" x1="1.642" gradientTransform="matrix(2.74017 0 0 .36494 31.378-10.353)" gradientUnits="userSpaceOnUse" id="D"><stop stop-color="#686868" stop-opacity="0"/><stop offset=".238" stop-color="#686868"/><stop offset=".781" stop-color="#686868"/><stop offset="1" stop-color="#686868" stop-opacity="0"/></linearGradient><linearGradient id="E"><stop stop-color="#474747" stop-opacity="0"/><stop offset=".1" stop-color="#474747"/><stop offset=".9" stop-color="#474747"/><stop offset="1" stop-color="#474747" stop-opacity="0"/></linearGradient><linearGradient y2="372.58" x2="5.086" y1="372.58" x1=".612" gradientTransform="matrix(8.1686 0 0 .22121 31.378-48.27)" gradientUnits="userSpaceOnUse" id="C" xlink:href="#E"/><linearGradient id="8" gradientUnits="userSpaceOnUse" x1="32.587" y1="28.555" x2="38.547" y2="28.555"><stop stop-color="#5e5e5e"/><stop offset="1" stop-color="#5e5e5e" stop-opacity="0"/></linearGradient><linearGradient id="0" gradientUnits="userSpaceOnUse" x1="5.724" y1="37.02" x2="5.724" y2="30.824"><stop/><stop offset="1" stop-opacity="0"/></linearGradient><linearGradient xlink:href="#A" id="1" gradientUnits="userSpaceOnUse" x1="6.476" y1="37.02" x2="6.476" y2="30.824"/><linearGradient xlink:href="#A" id="3" gradientUnits="userSpaceOnUse" gradientTransform="matrix(.65841 0 0 .68877-6.06 9.522)" x1="27.325" y1="26.888" x2="22.312" y2="26.787"/><linearGradient y2="372.58" x2="5.086" y1="372.58" x1=".612" gradientTransform="matrix(8.1686 0 0 .22862 31.378-46.27)" gradientUnits="userSpaceOnUse" id="2" xlink:href="#E"/><linearGradient id="5" gradientUnits="userSpaceOnUse" x1="10.125" y1="33.727" x2="9.339" y2="16.514"><stop stop-color="#d2d2d2"/><stop offset="1" stop-color="#dfdfdf"/></linearGradient><linearGradient xlink:href="#A" id="6" gradientUnits="userSpaceOnUse" x1="25.515" y1="10.655" x2="37.14" y2="31.566"/><linearGradient xlink:href="#A" id="4" gradientUnits="userSpaceOnUse" gradientTransform="matrix(.95381 0 0 1 1.832 0)" x1="36.07" y1="19.06" x2="38.28" y2="26.435"/><radialGradient xlink:href="#9" id="F" gradientUnits="userSpaceOnUse" gradientTransform="matrix(-2.77439 0 0 1.96971 112.76-872.89)" cx="605.71" cy="486.65" fx="605.71" fy="486.65" r="117.14"/><radialGradient xlink:href="#9" id="G" gradientUnits="userSpaceOnUse" gradientTransform="matrix(2.77439 0 0 1.96971-1891.63-872.89)" cx="605.71" cy="486.65" fx="605.71" fy="486.65" r="117.14"/></defs><sodipodi:namedview fill="#204a87" showborder="true" showgrid="false" borderopacity="0.81568627" bordercolor="#666666" pagecolor="#ffffff"><inkscape:grid type="xygrid" originx="0px" originy="0px" spacingx="1px" spacingy="1px" color="#00f" empcolor="#0000ff" opacity=".2" empopacity="0.4" empspacing="4"/></sodipodi:namedview><metadata><rdf:RDF><cc:Work><dc:format>image/svg+xml</dc:format><dc:type rdf:resource="http://purl.org/dc/dcmitype/StillImage"/><dc:title>Workgroup</dc:title><dc:creator><cc:Agent><dc:title>Jakub Steiner</dc:title></cc:Agent></dc:creator><dc:source>http://jimmac.musichall.cz</dc:source><cc:license rdf:resource="http://creativecommons.org/licenses/publicdomain/"/><dc:subject><rdf:Bag><rdf:li>lan</rdf:li><rdf:li>workgroup</rdf:li><rdf:li>network</rdf:li><rdf:li>peer</rdf:li></rdf:Bag></dc:subject><dc:contributor><cc:Agent><dc:title>Garrett LeSage</dc:title></cc:Agent></dc:contributor></cc:Work><cc:License rdf:about="http://creativecommons.org/licenses/publicdomain/"><cc:permits rdf:resource="http://creativecommons.org/ns#Reproduction"/><cc:permits rdf:resource="http://creativecommons.org/ns#Distribution"/><cc:permits rdf:resource="http://creativecommons.org/ns#DerivativeWorks"/></cc:License></rdf:RDF></metadata><g color="#000"><g stroke-linecap="round"><g transform="matrix(.01178 0 0 .0119 47.32 34.722)"><path marker="none" opacity=".402" fill="url(#B)" d="m-1559.25-150.7h1339.63v478.36h-1339.63z"/><path d="m-219.62-150.68c0 0 0 478.33 0 478.33 142.87.9 345.4-107.17 345.4-239.2 0-132.03-159.44-239.13-345.4-239.13" marker="none" opacity=".402" fill="url(#G)"/><path d="m-1559.25-150.68c0 0 0 478.33 0 478.33-142.87.9-345.4-107.17-345.4-239.2 0-132.03 159.44-239.13 345.4-239.13" marker="none" opacity=".402" fill="url(#F)"/></g><g transform="matrix(.01178 0 0 .0119 41.31 25.286)"><path marker="none" opacity=".402" fill="url(#B)" d="m-1559.25-150.7h1339.63v478.36h-1339.63z"/><path d="m-219.62-150.68c0 0 0 478.33 0 478.33 142.87.9 345.4-107.17 345.4-239.2 0-132.03-159.44-239.13-345.4-239.13" marker="none" opacity=".402" fill="url(#G)"/><path d="m-1559.25-150.68c0 0 0 478.33 0 478.33-142.87.9-345.4-107.17-345.4-239.2 0-132.03 159.44-239.13 345.4-239.13" marker="none" opacity=".402" fill="url(#F)"/></g></g><g transform="matrix(0-.24629.69029 0 2.083 42.959)" opacity=".634" display="block"><path marker="none" fill="url(#D)" d="m36.38 30.647h36.543v4h-36.543z"/><path marker="none" fill="url(#C)" d="m36.38 33.649h36.543v.99h-36.543z"/><path marker="none" fill="url(#2)" d="m36.38 30.3h36.543v1.023h-36.543z"/><path marker="none" fill="url(#7)" d="m36.38 31.425h36.543v1.619h-36.543z"/></g><g fill-rule="evenodd"><g fill="#d4d4d4" stroke="#5e5e5e"><rect transform="matrix(.96924 0 0 .98144.038-3.505)" width="18.571" height="4.076" x="22.14" y="26.497" rx="1.298" ry="1.282" marker="none" stroke-width="1.025"/><rect transform="matrix(.96924 0 0 .99318.038-3.865)" ry="2.589" rx="2.653" y="9.429" x="22.14" height="17" width="18.571" marker="none" stroke-width="1.019"/></g><g stroke-width=".996"><rect transform="matrix(.9919 0 0 1.01675-.404-4.409)" ry=".562" rx=".576" y="12.268" x="24.603" height="10.819" width="14.11" marker="none" opacity=".663" fill="#fff" stroke="#fff"/><rect transform="matrix(.9919 0 0 1.01675-.603-4.357)" width="14.11" height="10.819" x="24.3" y="11.662" rx=".576" ry=".562" marker="none" font-family="Bitstream Vera Sans" fill="#204a87" stroke="#5e5e5e"/></g><g transform="matrix(.9919 0 0 1.01675-.603-4.357)"><path marker="none" fill="#fff" d="m24.786 12.143h13.07v1.5h-13.07z"/><path marker="none" fill="#a4a0b5" d="m25.819 12.342h2.929v1.111h-2.929z"/></g><g fill="none"><rect transform="matrix(.96924 0 0 .99318.038-3.865)" width="16.282" height="14.904" x="23.288" y="10.476" rx="1.507" ry="1.47" marker="none" opacity=".629" stroke-width="1.019" stroke="url(#6)"/><rect transform="matrix(.96924 0 0 .98144.038-3.505)" ry=".459" rx=".464" y="27.471" x="23.01" height="2.129" width="16.844" marker="none" opacity=".514" stroke-width="1.025" stroke="#fdfdfd"/></g><path transform="matrix(.96924 0 0 .98144.038-3.505)" marker="none" opacity=".32" fill="url(#8)" d="m32.587 27.999h5.96v1.111h-5.96z"/><path transform="matrix(1.03879 0 0 1.01478-8.535-10.406)" d="m31.32 18.14v6.695c.629.052 1.188.203 1.842.203 4.495 0 8.278-1.362 10.672-3.314v-3.584h-12.515" marker="none" font-family="Bitstream Vera Sans" opacity=".326" fill="url(#4)"/></g><g transform="matrix(.50795 0 0 .67459-6.478 12.627)" opacity=".634" display="block"><path marker="none" fill="url(#D)" d="m36.38 30.647h36.543v4h-36.543z"/><path marker="none" fill="url(#C)" d="m36.38 33.649h36.543v.99h-36.543z"/><path marker="none" fill="url(#2)" d="m36.38 30.3h36.543v1.023h-36.543z"/><path marker="none" fill="url(#7)" d="m36.38 31.425h36.543v1.619h-36.543z"/></g><path d="M68.18529 26.23121A2.171828 2.171828 0 1 1 63.841638 26.23121 2.171828 2.171828 0 1 1 68.18529 26.23121z" transform="matrix(.92088 0 0 .92088-36.29 10.344)" marker="none" opacity="1" fill-rule="evenodd" stroke-width="1.086" fill="#eaeaea" stroke="#8a8a8a"/><g transform="matrix(.00966 0 0 .01409 17.82 36.708)" stroke-linecap="round"><path marker="none" opacity=".402" fill="url(#B)" d="m-1559.25-150.7h1339.63v478.36h-1339.63z"/><path d="m-219.62-150.68c0 0 0 478.33 0 478.33 142.87.9 345.4-107.17 345.4-239.2 0-132.03-159.44-239.13-345.4-239.13" marker="none" opacity=".402" fill="url(#G)"/><path d="m-1559.25-150.68c0 0 0 478.33 0 478.33-142.87.9-345.4-107.17-345.4-239.2 0-132.03 159.44-239.13 345.4-239.13" marker="none" opacity=".402" fill="url(#F)"/></g></g><g fill-rule="evenodd"><path d="m1.758 14.807v23.615h15.464v-23.757l-2.845-2.987h-9.916l-2.703 3.13z" transform="matrix(.96997 0 0 1.0096-.205-.289)" fill="url(#5)" stroke="#5e5e5e" stroke-linejoin="round" stroke-linecap="round" stroke-width="1.01"/><g fill="#fff" transform="matrix(.96997 0 0 1.0096-.205-.289)"><path d="m4.655 12.277l-2.361 3.345h13.972l-2.558-3.247-9.05-.098" fill-opacity=".655"/><path marker="none" opacity=".349" color="#000" stroke-width="1.01" stroke="#fff" d="m4.671 17.299h10.745v2.922h-10.745z"/></g><path d="m2.614 15.46v21.89h13.653v-22.02l-2.528-2.655h-8.723l-2.402 2.781z" transform="matrix(.95217 0 0 1.01334.011-.348)" fill="none" stroke="#fff" stroke-width="1.018"/><g color="#000"><path transform="matrix(.93264 0 0 .86389-.126 5.256)" marker="none" opacity=".526" stroke-width="1.114" fill="url(#3)" stroke="url(#3)" d="m8.177 25.748h7.506v3.473h-7.506z"/><path transform="matrix(.97265 0 0 1.02663-.225.141)" marker="none" fill="#c8c8c8" stroke="#acacac" d="m7.646 25.676h7.197v2.922h-7.197z"/><path transform="matrix(.96997 0 0 1.0096-.205-.289)" marker="none" opacity=".349" stroke-width="1.01" fill="#fff" stroke="#fff" d="m4.671 21.431h10.745v2.922h-10.745z"/><g fill="#c8c8c8"><g stroke="#acacac" stroke-width=".981"><path transform="matrix(1.01138 0 0 1.02663-.525.141)" marker="none" d="m3.979 20.805h10.876v2.922h-10.876z"/><path transform="matrix(1.01138 0 0 1.02663-.525-.617)" marker="none" d="m3.979 16.673h10.876v2.922h-10.876z"/></g><path d="M68.18529 26.23121A2.171828 2.171828 0 1 1 63.841638 26.23121 2.171828 2.171828 0 1 1 68.18529 26.23121z" transform="matrix(.46044 0 0 .46044-25.895 16.422)" marker="none" stroke-width="2.172" stroke="#979797"/></g><path d="M16.667518 25.574614A.505076 .505076 0 1 1 15.657365 25.574614 .505076 .505076 0 1 1 16.667518 25.574614" transform="matrix(.59554 0 0 .59554-5.456 13.06)" marker="none" fill="#fff"/><path transform="matrix(1.43728 0 0 1.0061-3.307-.242)" marker="none" opacity=".2" fill="url(#1)" d="m6.476 30.06h.696v6.958h-.696z"/><g fill="url(#0)"><path transform="matrix(1.43728 0 0 1.0061-3.227-.242)" marker="none" opacity=".2" d="m5.724 30.06h.696v6.958h-.696z"/><path transform="matrix(1.43728 0 0 1.0061-3.207-.242)" marker="none" opacity=".2" d="m7.102 30.06h.696v6.958h-.696z"/></g><g fill="#d4d4d4" stroke="#5e5e5e"><rect transform="matrix(.96924 0 0 .98144 7.04 6.495)" width="18.571" height="4.076" x="22.14" y="26.497" rx="1.298" ry="1.282" marker="none" stroke-width="1.025"/><rect transform="matrix(.96924 0 0 .99318 7.04 6.135)" ry="2.589" rx="2.653" y="9.429" x="22.14" height="17" width="18.571" marker="none" stroke-width="1.019"/></g><g stroke-width=".996"><rect transform="matrix(.9919 0 0 1.01675 6.596 5.591)" ry=".562" rx=".576" y="12.268" x="24.603" height="10.819" width="14.11" marker="none" opacity=".663" fill="#fff" stroke="#fff"/><rect transform="matrix(.9919 0 0 1.01675 6.397 5.643)" width="14.11" height="10.819" x="24.3" y="11.662" rx=".576" ry=".562" marker="none" font-family="Bitstream Vera Sans" fill="#204a87" stroke="#5e5e5e"/></g><g transform="matrix(.9919 0 0 1.01675 6.397 5.643)"><path marker="none" fill="#fff" d="m24.786 12.143h13.07v1.5h-13.07z"/><path marker="none" fill="#a4a0b5" d="m25.819 12.342h2.929v1.111h-2.929z"/><path marker="none" fill="#fff" d="m25.695 13.658h4.99v5.541h-4.99z"/><path marker="none" fill="#a4a0b5" d="m25.759 14.665h4.95v1.111h-4.95z"/></g><g fill="none"><rect transform="matrix(.96924 0 0 .99318 7.04 6.135)" width="16.282" height="14.904" x="23.288" y="10.476" rx="1.507" ry="1.47" marker="none" opacity=".629" stroke-width="1.019" stroke="url(#6)"/><rect transform="matrix(.96924 0 0 .98144 7.04 6.495)" ry=".459" rx=".464" y="27.471" x="23.01" height="2.129" width="16.844" marker="none" opacity=".514" stroke-width="1.025" stroke="#fdfdfd"/></g><path transform="matrix(.96924 0 0 .98144 7.04 6.495)" marker="none" opacity=".32" fill="url(#8)" d="m32.587 27.999h5.96v1.111h-5.96z"/><path transform="matrix(1.03879 0 0 1.01478-1.535-.406)" d="m31.32 18.14v6.695c.629.052 1.188.203 1.842.203 4.495 0 8.278-1.362 10.672-3.314v-3.584h-12.515" marker="none" font-family="Bitstream Vera Sans" opacity=".326" fill="url(#4)"/><g fill="url(#1)"><path transform="matrix(1.43728 0 0 1.0061-1.307-.242)" marker="none" opacity=".2" d="m6.476 30.06h.696v6.958h-.696z"/><path transform="matrix(1.43728 0 0 1.0061.693-.242)" marker="none" opacity=".2" d="m6.476 30.06h.696v6.958h-.696z"/><path transform="matrix(1.43728 0 0 1.0061 2.693-.242)" marker="none" opacity=".2" d="m6.476 30.06h.696v6.958h-.696z"/></g><g fill="url(#0)"><path transform="matrix(1.43728 0 0 1.0061-1.207-.242)" marker="none" opacity=".2" d="m7.102 30.06h.696v6.958h-.696z"/><path transform="matrix(1.43728 0 0 1.0061.793-.242)" marker="none" opacity=".2" d="m7.102 30.06h.696v6.958h-.696z"/><path transform="matrix(1.43728 0 0 1.0061 4.773-.242)" marker="none" opacity=".2" d="m5.724 30.06h.696v6.958h-.696z"/></g></g></g></svg>