<?xml version="1.0" encoding="UTF-8" standalone="no"?><!-- Generator: Adobe Illustrator 9.0, SVG Export Plug-In  --><svg xmlns:dc="http://purl.org/dc/elements/1.1/" xmlns:cc="http://creativecommons.org/ns#" xmlns:rdf="http://www.w3.org/1999/02/22-rdf-syntax-ns#" xmlns:svg="http://www.w3.org/2000/svg" xmlns="http://www.w3.org/2000/svg" xmlns:xlink="http://www.w3.org/1999/xlink" xmlns:sodipodi="http://sodipodi.sourceforge.net/DTD/sodipodi-0.dtd" xmlns:inkscape="http://www.inkscape.org/namespaces/inkscape" width="48" height="48" id="svg16168"><metadata><rdf:RDF><cc:Work><dc:format>image/svg+xml</dc:format><dc:type rdf:resource="http://purl.org/dc/dcmitype/StillImage"/><dc:title>Genric Image</dc:title><dc:creator><cc:Agent><dc:title>Jakub Steiner</dc:title></cc:Agent></dc:creator><dc:subject><rdf:Bag><rdf:li>image</rdf:li><rdf:li>picture</rdf:li><rdf:li>snapshot</rdf:li><rdf:li>photo</rdf:li></rdf:Bag></dc:subject><cc:license rdf:resource="http://creativecommons.org/licenses/publicdomain/"/></cc:Work><cc:License rdf:about="http://creativecommons.org/licenses/publicdomain/"><cc:permits rdf:resource="http://creativecommons.org/ns#Reproduction"/><cc:permits rdf:resource="http://creativecommons.org/ns#Distribution"/><cc:permits rdf:resource="http://creativecommons.org/ns#DerivativeWorks"/></cc:License></rdf:RDF></metadata><defs><linearGradient id="4" gradientUnits="userSpaceOnUse" gradientTransform="matrix(1.09899 0 0 1.1067-1.954-4.922)" x1="21.933" y1="24.627" x2="21.933" y2="7.109"><stop stop-color="#d0d6e5" stroke-width="1.217"/><stop offset="1" stop-color="#093a80" stroke-width="1.217"/></linearGradient><linearGradient id="5" x1="42.19" y1="31" x2="45" y2="39.985" gradientUnits="userSpaceOnUse"><stop stop-color="#bbbdba"/><stop offset="1" stop-color="#70746e"/></linearGradient><linearGradient id="8" gradientUnits="userSpaceOnUse" gradientTransform="matrix(2.77439 0 0 1.96971-1892.18-872.89)" x1="302.86" y1="366.65" x2="302.86" y2="609.51"><stop stop-opacity="0"/><stop offset=".5"/><stop offset="1" stop-opacity="0"/></linearGradient><linearGradient id="7"><stop stop-color="#fff"/><stop offset="1" stop-color="#fff" stop-opacity="0"/></linearGradient><linearGradient id="6"><stop/><stop offset="1" stop-opacity="0"/></linearGradient><linearGradient xlink:href="#7" id="3" gradientUnits="userSpaceOnUse" x1="38.544" y1="33.512" x2="39.32" y2="34.661"/><linearGradient id="1" gradientUnits="userSpaceOnUse" gradientTransform="matrix(1.434 0 0 .99009 52.32 2.839)" x1="12.487" y1="3.732" x2="31.08" y2="36.03"><stop stop-color="#d2d2d2" stroke-width="1.217"/><stop offset="1" stop-color="#ededed" stroke-width="1.217"/></linearGradient><linearGradient id="0" gradientUnits="userSpaceOnUse" gradientTransform="matrix(1.09899 0 0-.79776-1.954 37.32)" x1="21.933" y1="24.627" x2="21.933" y2="7.109"><stop stop-color="#8595bc"/><stop offset="1" stop-color="#041a3b"/></linearGradient><linearGradient id="2" gradientUnits="userSpaceOnUse" x1="41.14" y1="37.423" x2="38.812" y2="34.736"><stop stop-color="#7c7c7c"/><stop offset="1" stop-color="#b8b8b8"/></linearGradient><radialGradient xlink:href="#6" id="B" gradientUnits="userSpaceOnUse" gradientTransform="matrix(-2.77439 0 0 1.96971 112.76-872.89)" cx="605.71" cy="486.65" fx="605.71" fy="486.65" r="117.14"/><radialGradient xlink:href="#7" id="A" cx="12.7" cy="10.405" fx="12.7" fy="10.405" r="19.969" gradientTransform="matrix(1.71053 0 0 1.12485-11.568 1.803)" gradientUnits="userSpaceOnUse"/><radialGradient xlink:href="#6" id="9" gradientUnits="userSpaceOnUse" gradientTransform="matrix(2.77439 0 0 1.96971-1891.63-872.89)" cx="605.71" cy="486.65" fx="605.71" fy="486.65" r="117.14"/></defs><sodipodi:namedview borderopacity="0.07058824" bordercolor="#666666" pagecolor="#ffffff" showgrid="false"/><g color="#000"><g transform="matrix(.02175 0 0 .02493 42.41 33.811)" stroke-linecap="round"><path marker="none" opacity=".402" fill="url(#8)" d="m-1559.25-150.7h1339.63v478.36h-1339.63z"/><path d="m-219.62-150.68c0 0 0 478.33 0 478.33 142.87.9 345.4-107.17 345.4-239.2 0-132.03-159.44-239.13-345.4-239.13" marker="none" opacity=".402" fill="url(#9)"/><path d="m-1559.25-150.68c0 0 0 478.33 0 478.33-142.87.9-345.4-107.17-345.4-239.2 0-132.03 159.44-239.13 345.4-239.13" marker="none" opacity=".402" fill="url(#B)"/></g><path d="m2.718 6.455h40.662c.623 0 1.125.502 1.125 1.125v23.901c0 .623-8.457 8.02-9.08 8.02h-32.707c-.623 0-1.125-.502-1.125-1.125v-30.795c0-.623.502-1.125 1.125-1.125z" marker="none" fill="url(#1)" stroke="#bbbfbb"/></g><g transform="matrix(1.05477 0 0 1.04999-.815 4.485)"><g stroke-width="1.217"><path d="m5.513 30h34.13v-10.373h-34.13v10.373" fill="url(#0)"/><path d="m5.513 5.238h34.13v14.39h-34.13v-14.39" fill="url(#4)"/></g><g transform="matrix(1.18922 0 0 1.18922-3.525-6.535)" stroke-width="1.156"><path d="m18.4 15.4c0 2.2-1.8 4.1-4.1 4.1-2.2 0-4.1-1.8-4.1-4.1 0-2.2 1.8-4.1 4.1-4.1 2.2 0 4.1 1.8 4.1 4.1" opacity=".05" fill="#e8f52f"/><path d="m18 15.4c0 2-1.6 3.7-3.7 3.7-2 0-3.7-1.6-3.7-3.7 0-2 1.6-3.7 3.7-3.7 2 0 3.7 1.6 3.7 3.7" opacity=".208" fill="#ecf751"/><path d="m17.6 15.4c0 1.8-1.5 3.3-3.3 3.3-1.8 0-3.3-1.5-3.3-3.3 0-1.8 1.5-3.3 3.3-3.3 1.8 0 3.3 1.5 3.3 3.3" opacity=".367" fill="#f0f972"/><path d="m17.2 15.4c0 1.6-1.3 2.9-2.9 2.9-1.6 0-2.9-1.3-2.9-2.9 0-1.6 1.3-2.9 2.9-2.9 1.6 0 2.9 1.3 2.9 2.9" opacity=".525" fill="#f4fa95"/><path d="m16.8 15.4c0 1.4-1.1 2.5-2.5 2.5-1.4 0-2.5-1.1-2.5-2.5 0-1.4 1.1-2.5 2.5-2.5 1.4 0 2.5 1.1 2.5 2.5" opacity=".683" fill="#f7fcb7"/><path d="m16.4 15.4c0 1.2-1 2.1-2.1 2.1-1.1 0-2.1-1-2.1-2.1 0-1.1 1-2.1 2.1-2.1 1.1 0 2.1 1 2.1 2.1" opacity=".842" fill="#fbfddb"/><path d="m16 15.4c0 1-.8 1.8-1.8 1.8-1 0-1.8-.8-1.8-1.8 0-1 .8-1.8 1.8-1.8 1 0 1.8.8 1.8 1.8" fill="#fff"/></g><g stroke-width="1.217"><path d="m25.02 21.649h8.681l1.665.476h-2.854c0 0 2.854.238 4.281 2.02 1.427 1.665-1.665 3.687-1.665 3.687-.119-.357-.832-3.211-2.26-4.4-1.07-.951-2.26-1.189-2.26-1.189h-5.589v-.476-.119" opacity=".3"/><path d="m30.724 22.363h-4.995l9.276 5.233-4.281-5.233" opacity=".3"/><g fill="#515151"><path d="m25.02 21.768h8.681l1.308-.832h-2.854c0 0 2.616-.476 2.973-3.449.357-2.973-4.04-6.303-4.04-6.303 0 0 0 0 0 .119.119.714 1.308 5.708.476 7.611-.357 1.665-1.427 2.02-1.427 2.02h-5.47l.238.832h.119"/><path d="m30.25 20.46h-4.995l5.946-9.04-.951 9.04"/></g></g></g><g color="#000" stroke-width="1"><g fill="none"><path d="m2.804 7.453h40.43c.15 0 .271.121.271.271v23.698c0 .946-7.104 7.08-7.254 7.08h-33.447c-.15 0-.271-.121-.271-.271v-30.504c0-.15.121-.271.271-.271z" marker="none" stroke="#fff"/><path marker="none" opacity=".847" stroke="#4f4f4f" d="m5.5 10.5h35.06v25.06h-35.06z"/></g><g fill-rule="evenodd"><path d="m35.21 39.469c2.03.33 9.589-4.53 9.284-8.498-1.563 2.423-4.759 1.287-8.867 1.446 0 0 .395 6.552-.417 7.05z" marker="none" fill="url(#2)" stroke="url(#5)"/><path d="m36.657 37.28c1.37-.684 4.428-2.146 5.728-4.03-1.596.68-2.948.209-5.702.19 0 0 .162 3.062-.025 3.837z" marker="none" opacity=".369" fill="none" stroke="url(#3)"/></g><path d="m3.063 8v22.06c22.326.888 24.822-13.06 39.938-13.06v-9h-39.938" marker="none" opacity=".301" fill="url(#A)"/></g></svg>