<?xml version="1.0" encoding="UTF-8" standalone="no"?><!-- Created with Inkscape (http://www.inkscape.org/) --><svg xmlns:dc="http://purl.org/dc/elements/1.1/" xmlns:cc="http://creativecommons.org/ns#" xmlns:rdf="http://www.w3.org/1999/02/22-rdf-syntax-ns#" xmlns:svg="http://www.w3.org/2000/svg" xmlns="http://www.w3.org/2000/svg" xmlns:xlink="http://www.w3.org/1999/xlink" xmlns:sodipodi="http://sodipodi.sourceforge.net/DTD/sodipodi-0.dtd" xmlns:inkscape="http://www.inkscape.org/namespaces/inkscape" width="48" height="48" id="svg249"><defs><linearGradient id="0" gradientUnits="userSpaceOnUse" gradientTransform="matrix(2.77439 0 0 1.96971-1892.18-872.89)" x1="302.86" y1="366.65" x2="302.86" y2="609.51"><stop stop-opacity="0"/><stop offset=".5"/><stop offset="1" stop-opacity="0"/></linearGradient><linearGradient id="1"><stop/><stop offset="1" stop-opacity="0"/></linearGradient><radialGradient xlink:href="#1" id="A" gradientUnits="userSpaceOnUse" gradientTransform="matrix(2.77439 0 0 1.96971-1891.63-872.89)" cx="605.71" cy="486.65" fx="605.71" fy="486.65" r="117.14"/><radialGradient id="B" gradientUnits="userSpaceOnUse" cx="20.459" cy="17.559" fx="20.459" fy="17.559" r="25.556"><stop stop-color="#fff"/><stop offset="1" stop-color="#fff" stop-opacity=".165"/></radialGradient><radialGradient gradientUnits="userSpaceOnUse" fy="64.57" fx="20.892" r="5.257" cy="64.57" cx="20.892" id="C"><stop stop-color="#f0f0f0"/><stop offset="1" stop-color="#9a9a9a"/></radialGradient><radialGradient r="37.752" fy="3.756" fx="8.824" cy="3.756" cx="8.824" gradientTransform="matrix(.96827 0 0 1.03277 3.354.646)" gradientUnits="userSpaceOnUse" id="D"><stop stop-color="#a3a3a3"/><stop offset="1" stop-color="#4c4c4c"/></radialGradient><radialGradient r="86.71" fy="35.737" fx="33.967" cy="35.737" cx="33.967" gradientTransform="scale(.96049 1.04113)" gradientUnits="userSpaceOnUse" id="E"><stop stop-color="#fafafa"/><stop offset="1" stop-color="#bbb"/></radialGradient><radialGradient xlink:href="#1" id="9" gradientUnits="userSpaceOnUse" gradientTransform="matrix(-2.77439 0 0 1.96971 112.76-872.89)" cx="605.71" cy="486.65" fx="605.71" fy="486.65" r="117.14"/><radialGradient r="38.16" fy="7.268" fx="8.144" cy="7.268" cx="8.144" gradientTransform="matrix(.96827 0 0 1.03277 3.354.646)" gradientUnits="userSpaceOnUse" id="8"><stop stop-color="#fff"/><stop offset="1" stop-color="#f8f8f8"/></radialGradient><radialGradient id="2" gradientUnits="userSpaceOnUse" gradientTransform="scale(1.03682.96449)" cx="18.634" cy="17.486" fx="18.934" fy="17.81" r="40.693"><stop stop-color="#fff"/><stop offset=".379" stop-color="#fefefe"/><stop offset="1" stop-color="#1d1d1d"/></radialGradient><radialGradient xlink:href="#C" id="3" gradientUnits="userSpaceOnUse" cx="9.413" cy="18.811" fx="9.413" fy="18.811" r="1.208"/><radialGradient gradientUnits="userSpaceOnUse" fy="114.57" fx="20.892" r="5.256" cy="114.57" cx="20.892" id="F" xlink:href="#C"/><radialGradient id="4" gradientUnits="userSpaceOnUse" gradientTransform="scale(1.64399.60828)" cx="15.12" cy="63.965" fx="15.12" fy="63.965" r="12.289" xlink:href="#1"/><radialGradient id="6" gradientUnits="userSpaceOnUse" gradientTransform="scale(1.17954.84779)" cx="11.827" cy="10.476" fx="11.827" fy="10.476" r="32.665"><stop stop-color="#fff"/><stop offset="1" stop-color="#fff" stop-opacity="0"/></radialGradient><radialGradient xlink:href="#F" id="7" gradientUnits="userSpaceOnUse" cx="9.413" cy="30.3" fx="9.413" fy="30.3" r="1.207"/><radialGradient id="5" gradientUnits="userSpaceOnUse" cx="22.01" cy="19.657" fx="22.01" fy="19.657" r="17.61"><stop stop-color="#d3e9ff"/><stop offset=".155" stop-color="#d3e9ff"/><stop offset=".75" stop-color="#4074ae"/><stop offset="1" stop-color="#36486c"/></radialGradient></defs><sodipodi:namedview pagecolor="#ffffff" bordercolor="#666666" borderopacity="1.0" showgrid="false"/><metadata><rdf:RDF><cc:Work><dc:format>image/svg+xml</dc:format><dc:type rdf:resource="http://purl.org/dc/dcmitype/StillImage"/><dc:title>HTML Document</dc:title><dc:creator><cc:Agent><dc:title>Jakub Steiner</dc:title></cc:Agent></dc:creator><dc:source>http://jimmac.musichall.cz</dc:source><dc:subject><rdf:Bag><rdf:li>HTML</rdf:li><rdf:li>hypertext</rdf:li><rdf:li>web</rdf:li></rdf:Bag></dc:subject><cc:license rdf:resource="http://creativecommons.org/licenses/publicdomain/"/></cc:Work><cc:License rdf:about="http://creativecommons.org/licenses/publicdomain/"><cc:permits rdf:resource="http://creativecommons.org/ns#Reproduction"/><cc:permits rdf:resource="http://creativecommons.org/ns#Distribution"/><cc:permits rdf:resource="http://creativecommons.org/ns#DerivativeWorks"/></cc:License></rdf:RDF></metadata><g stroke-linecap="round" color="#000"><g transform="matrix(.02105 0 0 .02087 42.852 41.15)"><path marker="none" opacity=".402" fill="url(#0)" d="m-1559.25-150.7h1339.63v478.36h-1339.63z"/><path d="m-219.62-150.68c0 0 0 478.33 0 478.33 142.87.9 345.4-107.17 345.4-239.2 0-132.03-159.44-239.13-345.4-239.13" marker="none" opacity=".402" fill="url(#A)"/><path d="m-1559.25-150.68c0 0 0 478.33 0 478.33-142.87.9-345.4-107.17-345.4-239.2 0-132.03 159.44-239.13 345.4-239.13" marker="none" opacity=".402" fill="url(#9)"/></g><g display="block" stroke-linejoin="round"><rect ry="1.149" y="3.646" x="6.604" height="40.92" width="34.875" marker="none" fill="url(#E)" stroke="url(#D)" rx="1.149"/><rect rx=".149" ry=".149" y="4.584" x="7.666" height="38.946" width="32.776" marker="none" fill="none" stroke="url(#8)"/></g></g><g transform="translate(.646-.038)"><g transform="matrix(.2297 0 0 .2297 4.967 4.245)" fill="#fff"><path d="m23.428 113.07c0 1.973-1.6 3.572-3.573 3.572-1.974 0-3.573-1.6-3.573-3.572 0-1.974 1.6-3.573 3.573-3.573 1.973 0 3.573 1.6 3.573 3.573"/><path d="m23.428 63.07c0 1.973-1.6 3.573-3.573 3.573-1.974 0-3.573-1.6-3.573-3.573 0-1.974 1.6-3.573 3.573-3.573 1.973 0 3.573 1.6 3.573 3.573"/></g><path d="m9.995 29.952c0 .453-.368.82-.821.82-.453 0-.821-.368-.821-.82 0-.453.368-.821.821-.821.453 0 .821.368.821.821" fill="url(#7)"/><path d="m9.995 18.467c0 .453-.368.821-.821.821-.453 0-.821-.368-.821-.821 0-.453.368-.821.821-.821.453 0 .821.368.821.821" fill="url(#3)"/></g><g fill="none" fill-rule="evenodd" fill-opacity=".75"><path d="m11.506 5.494v37.907" stroke-opacity=".018" stroke="#000" stroke-width=".989"/><path d="m12.5 5.02v38.02" stroke-opacity=".205" stroke="#fff"/></g><g transform="matrix(.90909 0 0 1 2.364 0)" stroke-opacity=".082" fill="#9b9b9b" display="block" stroke-linejoin="round" fill-opacity=".55" stroke-linecap="round" color="#000"><rect ry=".065" rx=".152" y="9" x="15" height="1" width="22" marker="none"/><rect ry=".065" rx=".152" y="11" x="15" height="1" width="22" marker="none"/><rect ry=".065" rx=".152" y="13" x="15" height="1" width="22" marker="none"/><rect ry=".065" rx=".152" y="15" x="15" height="1" width="22" marker="none"/><rect ry=".065" rx=".152" y="17" x="15" height="1" width="22" marker="none"/><rect ry=".065" rx=".152" y="19" x="15" height="1" width="22" marker="none"/><rect ry=".065" rx=".152" y="21" x="15" height="1" width="22" marker="none"/><rect ry=".065" rx=".152" y="23" x="15" height="1" width="22" marker="none"/><rect ry=".065" rx=".068" y="25" x="15" height="1" width="9.9" marker="none"/><rect ry=".065" rx=".152" y="29" x="15" height="1" width="22" marker="none"/><rect ry=".065" rx=".152" y="31" x="15" height="1" width="22" marker="none"/><rect ry=".065" rx=".152" y="33" x="15" height="1" width="22" marker="none"/><rect ry=".065" rx=".152" y="35" x="15" height="1" width="22" marker="none"/><rect ry=".065" rx=".106" y="37" x="15" height="1" width="15.4" marker="none"/></g><g transform="matrix(1.16051 0 0 1.16051 1.848 3.119)"><path d="M45.0528 38.908627A20.20305 7.475129 0 1 1 4.646702 38.908627 20.20305 7.475129 0 1 1 45.0528 38.908627" transform="matrix(.58714 0 0 .72995 11.299 4.398)" fill="url(#4)"/><path d="m37.11 24.22c0 6.288-5.098 11.386-11.385 11.386-6.288 0-11.385-5.098-11.385-11.386 0-6.288 5.097-11.385 11.385-11.385 6.287 0 11.385 5.097 11.385 11.385z" fill="url(#5)" stroke="#39396c" stroke-width="1.723"/><path d="M30.708637 15.271057A12.929953 9.293404 0 1 1 4.848732 15.271057 12.929953 9.293404 0 1 1 30.708637 15.271057" transform="matrix(.49081 0 0 .58714 17.1 10.43)" opacity=".422" fill="url(#6)"/><g transform="matrix(.57679 0 0 .57679 11.37 10.566)" fill-opacity=".713"><path d="m44.07 20.714c0 .263 0 0 0 0l-.545.617c-.334-.394-.709-.725-1.09-1.07l-.836.123-.764-.863v1.068l.654.495.435.493.582-.658c.146.274.291.549.437.823v.822l-.655.74-1.199.823-.908.906-.582-.66.291-.74-.581-.658-.981-2.098-.836-.945-.219.246.328 1.193.617.699c.352 1.018.701 1.99 1.164 2.963.718 0 1.395-.076 2.107-.166v.576l-.872 2.139-.8.904-.654 1.4c0 .768 0 1.535 0 2.303l.219.906-.363.41-.801.494-.836.699.691.781-.945.824.182.533-1.418 1.605h-.944l-.8.494h-.51v-.658l-.217-1.318c-.281-.826-.574-1.647-.872-2.467 0-.605.036-1.205.072-1.811l.364-.822-.51-.988.037-1.357-.691-.781.346-1.131-.563-.638h-.982l-.327-.37-.981.618-.399-.454-.909.782c-.617-.7-1.235-1.399-1.854-2.098l-.727-1.729.654-.986-.363-.411.799-1.894c.656-.816 1.342-1.6 2.035-2.386l1.236-.329 1.381-.164.945.247 1.345 1.356.473-.534.653-.082 1.236.411h.945l.654-.576.291-.411-.655-.411-1.091-.082c-.303-.42-.584-.861-.943-1.234l-.364.164-.145 1.07-.654-.74-.145-.824-.727-.574h-.292l.727.822-.291.74-.581.164.363-.74-.655-.328-.58-.658-1.092.246-.145.328-.654.412-.363.905-.908.452-.4-.452h-.436v-1.481l.945-.494h.727l-.146-.575-.58-.576.98-.206.545-.616.436-.741h.801l-.219-.575.51-.329v.658l1.09.246 1.09-.904.073-.412.944-.658c-.342.042-.684.074-1.018.165v-.741l.363-.823h-.363l-.798.74-.219.412.219.577-.364.986-.581-.329-.508-.575-.801.575-.291-1.316 1.381-.905v-.494l.873-.576 1.381-.33.945.33 1.744.329-.435.493h-.945l.945.987.727-.822.221-.362c0 0 2.787 2.498 4.38 5.231 1.593 2.733 2.341 5.955 2.341 6.609"/><path d="m26.07 9.236l-.073.493.51.329.871-.576-.436-.494-.582.33-.29-.082"/><path d="m26.87 5.863l-1.891-.741-2.18.247-2.69.74-.509.494 1.672 1.151v.658l-.654.658.873 1.729.58-.33.729-1.151c1.123-.347 2.13-.741 3.197-1.234l.873-2.221"/><path d="m28.833 12.775l-.291-.741-.51.165.146.904.654-.328"/><path d="m29.12 12.609l-.146.988.8-.165.581-.575-.509-.494c-.171-.455-.367-.88-.581-1.316h-.436v.493l.29.329v.74"/><path d="m18.365 28.24l-.582-1.152-1.09-.247-.582-1.563-1.454.164-1.235-.904-1.309 1.151v.182c-.396-.114-.883-.13-1.235-.347l-.291-.822v-.905l-.872.082c.073-.576.145-1.151.218-1.727h-.509l-.508.658-.509.246-.727-.41-.073-.905.146-.987 1.091-.822h.872l.145-.494 1.09.246.8.988.146-1.646 1.381-1.151.509-1.234 1.018-.411.581-.822 1.308-.248.655-.986c-.654 0-1.309 0-1.963 0l1.236-.576h.872l1.236-.412.145-.492-.436-.412-.509-.165.145-.493-.363-.74-.873.328.145-.658-1.018-.576-.799 1.398.072.494-.799.33-.509 1.069-.218-.987-1.381-.576-.218-.74 1.817-1.07.8-.74.073-.905-.436-.247-.582-.082-.363.905c0 0-.608.119-.764.158-1.996 1.839-6.03 5.81-6.966 13.306.037.174.679 1.182.679 1.182l1.526.904 1.526.412.655.823 1.017.74.582-.082.436.196v.133l-.581 1.563-.437.658.146.33-.363 1.232 1.309 2.387 1.308 1.152.582.822-.073 1.729.437.986-.437 1.893c0 0-.034-.012.021.178.056.19 2.329 1.451 2.474 1.344.144-.109.267-.205.267-.205l-.145-.41.581-.576.218-.576.945-.33.727-1.81-.218-.492.508-.74 1.091-.248.582-1.316-.146-1.645.872-1.234.146-1.234c-1.193-.592-2.377-1.201-3.562-1.81"/><path d="m16.766 9.565l.727.494h.582v-.576l-.727-.329-.582.411"/><path d="m14.876 8.907l-.364.905h.727l.364-.823c.314-.222.626-.445.945-.658l.727.247c.484.329.969.658 1.454.987l.727-.658-.8-.329-.364-.741-1.381-.165-.073-.412-.654.165-.29.576-.364-.741-.145.329.073.823-.582.494"/><path d="m17.492 6.85l.364-.329.727-.165c.498-.242.998-.405 1.526-.576l-.29-.494-.939.135-.443.442-.731.106-.65.305-.316.153-.193.258.944.164"/><path d="m18.729 14.667l.436-.658-.655-.493.218 1.151"/></g><g fill-opacity="1"><g transform="matrix(.57679 0 0 .57679 11.252 10.448)" marker="none" color="#000" stroke-width="1.018" fill="url(#2)"><path d="m44.07 20.714c0 .263 0 0 0 0l-.545.617c-.334-.394-.709-.725-1.09-1.07l-.836.123-.764-.863v1.068l.654.495.435.493.582-.658c.146.274.291.549.437.823v.822l-.655.74-1.199.823-.908.906-.582-.66.291-.74-.581-.658-.981-2.098-.836-.945-.219.246.328 1.193.617.699c.352 1.018.701 1.99 1.164 2.963.718 0 1.395-.076 2.107-.166v.576l-.872 2.139-.8.904-.654 1.4c0 .768 0 1.535 0 2.303l.219.906-.363.41-.801.494-.836.699.691.781-.945.824.182.533-1.418 1.605h-.944l-.8.494h-.51v-.658l-.217-1.318c-.281-.826-.574-1.647-.872-2.467 0-.605.036-1.205.072-1.811l.364-.822-.51-.988.037-1.357-.691-.781.346-1.131-.563-.638h-.982l-.327-.37-.981.618-.399-.454-.909.782c-.617-.7-1.235-1.399-1.854-2.098l-.727-1.729.654-.986-.363-.411.799-1.894c.656-.816 1.342-1.6 2.035-2.386l1.236-.329 1.381-.164.945.247 1.345 1.356.473-.534.653-.082 1.236.411h.945l.654-.576.291-.411-.655-.411-1.091-.082c-.303-.42-.584-.861-.943-1.234l-.364.164-.145 1.07-.654-.74-.145-.824-.727-.574h-.292l.727.822-.291.74-.581.164.363-.74-.655-.328-.58-.658-1.092.246-.145.328-.654.412-.363.905-.908.452-.4-.452h-.436v-1.481l.945-.494h.727l-.146-.575-.58-.576.98-.206.545-.616.436-.741h.801l-.219-.575.51-.329v.658l1.09.246 1.09-.904.073-.412.944-.658c-.342.042-.684.074-1.018.165v-.741l.363-.823h-.363l-.798.74-.219.412.219.577-.364.986-.581-.329-.508-.575-.801.575-.291-1.316 1.381-.905v-.494l.873-.576 1.381-.33.945.33 1.744.329-.435.493h-.945l.945.987.727-.822.221-.362c0 0 2.787 2.498 4.38 5.231 1.593 2.733 2.341 5.955 2.341 6.609" marker="none"/><path d="m26.07 9.236l-.073.493.51.329.871-.576-.436-.494-.582.33-.29-.082" marker="none"/><path d="m26.87 5.863l-1.891-.741-2.18.247-2.69.74-.509.494 1.672 1.151v.658l-.654.658.873 1.729.58-.33.729-1.151c1.123-.347 2.13-.741 3.197-1.234l.873-2.221" marker="none"/><path d="m28.833 12.775l-.291-.741-.51.165.146.904.654-.328" marker="none"/><path d="m29.12 12.609l-.146.988.8-.165.581-.575-.509-.494c-.171-.455-.367-.88-.581-1.316h-.436v.493l.29.329v.74" marker="none"/><path d="m18.365 28.24l-.582-1.152-1.09-.247-.582-1.563-1.454.164-1.235-.904-1.309 1.151v.182c-.396-.114-.883-.13-1.235-.347l-.291-.822v-.905l-.872.082c.073-.576.145-1.151.218-1.727h-.509l-.508.658-.509.246-.727-.41-.073-.905.146-.987 1.091-.822h.872l.145-.494 1.09.246.8.988.146-1.646 1.381-1.151.509-1.234 1.018-.411.581-.822 1.308-.248.655-.986c-.654 0-1.309 0-1.963 0l1.236-.576h.872l1.236-.412.145-.492-.436-.412-.509-.165.145-.493-.363-.74-.873.328.145-.658-1.018-.576-.799 1.398.072.494-.799.33-.509 1.069-.218-.987-1.381-.576-.218-.74 1.817-1.07.8-.74.073-.905-.436-.247-.582-.082-.363.905c0 0-.608.119-.764.158-1.996 1.839-6.03 5.81-6.966 13.306.037.174.679 1.182.679 1.182l1.526.904 1.526.412.655.823 1.017.74.582-.082.436.196v.133l-.581 1.563-.437.658.146.33-.363 1.232 1.309 2.387 1.308 1.152.582.822-.073 1.729.437.986-.437 1.893c0 0-.034-.012.021.178.056.19 2.329 1.451 2.474 1.344.144-.109.267-.205.267-.205l-.145-.41.581-.576.218-.576.945-.33.727-1.81-.218-.492.508-.74 1.091-.248.582-1.316-.146-1.645.872-1.234.146-1.234c-1.193-.592-2.377-1.201-3.562-1.81" marker="none"/><path d="m16.766 9.565l.727.494h.582v-.576l-.727-.329-.582.411" marker="none"/><path d="m14.876 8.907l-.364.905h.727l.364-.823c.314-.222.626-.445.945-.658l.727.247c.484.329.969.658 1.454.987l.727-.658-.8-.329-.364-.741-1.381-.165-.073-.412-.654.165-.29.576-.364-.741-.145.329.073.823-.582.494" marker="none"/><path d="m17.492 6.85l.364-.329.727-.165c.498-.242.998-.405 1.526-.576l-.29-.494-.939.135-.443.442-.731.106-.65.305-.316.153-.193.258.944.164" marker="none"/><path d="m18.729 14.667l.436-.658-.655-.493.218 1.151" marker="none"/></g><path d="m36.531 24.22c0 5.969-4.839 10.807-10.807 10.807-5.968 0-10.807-4.839-10.807-10.807 0-5.968 4.838-10.807 10.807-10.807 5.968 0 10.807 4.838 10.807 10.807z" fill="none" stroke="url(#B)"/></g></g></svg>