<?xml version="1.0" encoding="UTF-8" standalone="no"?><!-- Created with Inkscape (http://www.inkscape.org/) --><svg xmlns:dc="http://purl.org/dc/elements/1.1/" xmlns:cc="http://creativecommons.org/ns#" xmlns:rdf="http://www.w3.org/1999/02/22-rdf-syntax-ns#" xmlns:svg="http://www.w3.org/2000/svg" xmlns="http://www.w3.org/2000/svg" xmlns:xlink="http://www.w3.org/1999/xlink" xmlns:sodipodi="http://sodipodi.sourceforge.net/DTD/sodipodi-0.dtd" xmlns:inkscape="http://www.inkscape.org/namespaces/inkscape" width="300" height="300" id="svg2" version="1.0"><sodipodi:namedview pagecolor="#ffffff" bordercolor="#666666" borderopacity="1.0" showgrid="false" width="300" showguides="true"/><defs><linearGradient id="4"><stop stop-color="#fff"/><stop offset="1" stop-color="#fff" stop-opacity="0"/></linearGradient><linearGradient xlink:href="#4" id="2" gradientUnits="userSpaceOnUse" x1="159.96" y1="6.585" x2="188.85" y2="74" gradientTransform="matrix(.71462 0 0 .77235 16.447 15.642)"/><linearGradient xlink:href="#4" id="3" x1="8.299" y1="134.85" x2="70.954" y2="177.59" gradientUnits="userSpaceOnUse" gradientTransform="matrix(.71462 0 0 .77235 16.447 15.642)"/><linearGradient xlink:href="#4" id="1" x1="205.89" y1="25.781" x2="207.74" y2="76.43" gradientUnits="userSpaceOnUse"/><linearGradient xlink:href="#4" id="0" x1="120.08" y1="123.68" x2="176.2" y2="113.28" gradientUnits="userSpaceOnUse"/><radialGradient xlink:href="#4" id="5" cx="157.99" cy="80.01" fx="157.99" fy="80.01" r="35.477" gradientTransform="matrix(.68567.0333-.02331 1.32119 38.09-29.702)" gradientUnits="userSpaceOnUse"/></defs><metadata><rdf:RDF><cc:Work><dc:format>image/svg+xml</dc:format><dc:type rdf:resource="http://purl.org/dc/dcmitype/StillImage"/><dc:title>channel_linked</dc:title><cc:license/><dc:rights><cc:Agent><dc:title>Martin Skilnand</dc:title></cc:Agent></dc:rights><dc:creator><cc:Agent><dc:title>Martin Skilnand</dc:title></cc:Agent></dc:creator><dc:date>2009.05.30</dc:date><dc:publisher><cc:Agent><dc:title>Mumble team</dc:title></cc:Agent></dc:publisher><dc:description>Icon for voice chat program mumble</dc:description><dc:subject><rdf:Bag><rdf:li>mumble channel link</rdf:li></rdf:Bag></dc:subject></cc:Work></rdf:RDF></metadata><g transform="matrix(1.39934 0 0 1.29476-23.02-20.252)" font-family="Bitstream Vera Sans" font-size="12" fill-rule="evenodd"><path d="m27.959 120.4v121.96l41.463-.042.709-47.38 47.62-.32 1.231 47.746h42.675v-121.96h-133.7m43.11 20.2h46.32v32.559h-46.629l.308-32.559" fill="#333"/><path opacity=".85" fill="url(#3)" d="m26.847 120.41h137.04v123.44h-137.04z"/><g transform="matrix(1.36905 0 0 .8919-129.71-14.301)"><path d="m199.17012 89.41909a35.477177 52.48963 0 1 1 -70.95435 0 35.477177 52.48963 0 1 1 70.95435 0" fill="#333"/><path d="m199.17012 89.41909a35.477177 52.48963 0 1 1 -70.95435 0 35.477177 52.48963 0 1 1 70.95435 0" opacity=".85" fill="url(#5)" font-family="Bitstream Vera Sans" font-size="12"/></g><path d="m159.75 17.17v39.971h-39.496v30.491h39.496v41.65h29.508v-41.65h39.496v-30.491h-39.496v-39.971h-29.508" fill="#008000"/><path d="m159.61 17.15l.196 39.748h-39.35l-.196 30.485h39.35v-.2h6.49v-70.03h-6.49" opacity=".9" fill="url(#2)"/><g font-family="Bitstream Vera Sans" font-size="12"><path opacity=".9" fill="url(#1)" d="m189.41 57.14h39.12v30.15h-39.12z"/><path opacity=".9" fill="url(#0)" d="m159.63 87.61h6.495v41.676h-6.495z"/></g></g></svg>