<?xml version="1.0" encoding="UTF-8" standalone="no"?>
<!-- Created with Inkscape (http://www.inkscape.org/) -->

<svg
   xmlns:dc="http://purl.org/dc/elements/1.1/"
   xmlns:cc="http://creativecommons.org/ns#"
   xmlns:rdf="http://www.w3.org/1999/02/22-rdf-syntax-ns#"
   xmlns:svg="http://www.w3.org/2000/svg"
   xmlns="http://www.w3.org/2000/svg"
   xmlns:xlink="http://www.w3.org/1999/xlink"
   xmlns:sodipodi="http://sodipodi.sourceforge.net/DTD/sodipodi-0.dtd"
   xmlns:inkscape="http://www.inkscape.org/namespaces/inkscape"
   width="300"
   height="300"
   id="svg2"
   sodipodi:version="0.32"
   inkscape:version="0.91 r13725"
   sodipodi:docname="channel.svg"
   inkscape:output_extension="org.inkscape.output.svg.inkscape"
   version="1.0">
  <title
     id="title110">channel_linked</title>
  <sodipodi:namedview
     id="base"
     pagecolor="#ffffff"
     bordercolor="#666666"
     borderopacity="1.0"
     inkscape:pageopacity="0.0"
     inkscape:pageshadow="2"
     inkscape:zoom="1.7041273"
     inkscape:cx="-230.88076"
     inkscape:cy="154.90101"
     inkscape:document-units="px"
     inkscape:current-layer="layer1"
     showgrid="false"
     inkscape:window-width="1920"
     inkscape:window-height="996"
     inkscape:window-x="-8"
     inkscape:window-y="-8"
     width="300px"
     showguides="true"
     inkscape:guide-bbox="true"
     inkscape:window-maximized="1"
     inkscape:snap-global="false" />
  <defs
     id="defs4">
    <linearGradient
       inkscape:collect="always"
       id="linearGradient3787">
      <stop
         style="stop-color:#000000;stop-opacity:1;"
         offset="0"
         id="stop3789" />
      <stop
         style="stop-color:#000000;stop-opacity:0;"
         offset="1"
         id="stop3792" />
    </linearGradient>
    <linearGradient
       id="linearGradient3739">
      <stop
         style="stop-color:#1a1a1a;stop-opacity:1;"
         offset="0"
         id="stop3741" />
      <stop
         style="stop-color:#313131;stop-opacity:0;"
         offset="1"
         id="stop3743" />
    </linearGradient>
    <linearGradient
       inkscape:collect="always"
       id="linearGradient4001">
      <stop
         style="stop-color:#666666;stop-opacity:1;"
         offset="0"
         id="stop4003" />
      <stop
         style="stop-color:#666666;stop-opacity:0;"
         offset="1"
         id="stop4005" />
    </linearGradient>
    <linearGradient
       inkscape:collect="always"
       id="linearGradient3971">
      <stop
         style="stop-color:#666666;stop-opacity:1;"
         offset="0"
         id="stop3973" />
      <stop
         style="stop-color:#666666;stop-opacity:0;"
         offset="1"
         id="stop3975" />
    </linearGradient>
    <linearGradient
       inkscape:collect="always"
       id="linearGradient1094">
      <stop
         style="stop-color:#999999;stop-opacity:1;"
         offset="0"
         id="stop1096" />
      <stop
         style="stop-color:#999999;stop-opacity:0;"
         offset="1"
         id="stop1098" />
    </linearGradient>
    <linearGradient
       id="linearGradient839-7">
      <stop
         id="stop841-4"
         offset="0"
         style="stop-color:#000000;stop-opacity:1;" />
      <stop
         style="stop-color:#404040;stop-opacity:0.74901961;"
         offset="0.5"
         id="stop857-0" />
      <stop
         style="stop-color:#808080;stop-opacity:0.49803922;"
         offset="1"
         id="stop849-9" />
    </linearGradient>
    <radialGradient
       r="74.285713"
       fy="216.78572"
       fx="146.42857"
       cy="216.78572"
       cx="146.42857"
       gradientTransform="matrix(1,0,0,0.48687444,0,58.738289)"
       gradientUnits="userSpaceOnUse"
       id="radialGradient846"
       xlink:href="#linearGradient839-7"
       inkscape:collect="always" />
    <radialGradient
       inkscape:collect="always"
       xlink:href="#linearGradient1094"
       id="radialGradient1100"
       cx="197.92531"
       cy="204.14938"
       fx="197.92531"
       fy="204.14938"
       r="8.7136927"
       gradientTransform="matrix(1,0,0,1.0476191,0,-9.7214045)"
       gradientUnits="userSpaceOnUse" />
    <linearGradient
       inkscape:collect="always"
       xlink:href="#linearGradient3739"
       id="linearGradient3745"
       x1="-68.202118"
       y1="209.72966"
       x2="31.549686"
       y2="219.50262"
       gradientUnits="userSpaceOnUse" />
    <linearGradient
       inkscape:collect="always"
       xlink:href="#linearGradient4001"
       id="linearGradient2968"
       gradientUnits="userSpaceOnUse"
       gradientTransform="matrix(1.5,0,0,1.4999999,95.951448,-382.04247)"
       x1="-166.87711"
       y1="247.66545"
       x2="-166.81047"
       y2="254.08768" />
    <linearGradient
       inkscape:collect="always"
       xlink:href="#linearGradient3971"
       id="linearGradient2984"
       gradientUnits="userSpaceOnUse"
       gradientTransform="matrix(1.4997813,0.00430103,0.0165549,1.499091,318.95889,-175.55243)"
       x1="-300.81067"
       y1="83.488052"
       x2="-300.88116"
       y2="90.772743" />
    <linearGradient
       inkscape:collect="always"
       xlink:href="#linearGradient3971"
       id="linearGradient3786"
       x1="-131.1508"
       y1="26.015841"
       x2="-121.60291"
       y2="54.458374"
       gradientUnits="userSpaceOnUse" />
    <linearGradient
       inkscape:collect="always"
       id="linearGradient4001-7">
      <stop
         style="stop-color:#666666;stop-opacity:1;"
         offset="0"
         id="stop4003-1" />
      <stop
         style="stop-color:#666666;stop-opacity:0;"
         offset="1"
         id="stop4005-2" />
    </linearGradient>
    <linearGradient
       y2="254.08768"
       x2="-166.81047"
       y1="247.66545"
       x1="-166.87711"
       gradientTransform="matrix(1.5,0,0,1.4999999,95.951452,-382.04247)"
       gradientUnits="userSpaceOnUse"
       id="linearGradient3845"
       xlink:href="#linearGradient4001-7"
       inkscape:collect="always" />
    <radialGradient
       inkscape:collect="always"
       xlink:href="#linearGradient3787"
       id="radialGradient3794"
       cx="145.6067"
       cy="130.66231"
       fx="145.6067"
       fy="130.66231"
       r="74.285713"
       gradientTransform="matrix(-0.99920864,0.03436682,-0.00988005,-0.31975304,295.38761,183.28675)"
       gradientUnits="userSpaceOnUse" />
  </defs>
  <metadata
     id="metadata7">
    <rdf:RDF>
      <cc:Work
         rdf:about="">
        <dc:format>image/svg+xml</dc:format>
        <dc:type
           rdf:resource="http://purl.org/dc/dcmitype/StillImage" />
        <dc:title>channel_linked</dc:title>
        <cc:license
           rdf:resource="" />
        <dc:rights>
          <cc:Agent>
            <dc:title>Martin Skilnand</dc:title>
          </cc:Agent>
        </dc:rights>
        <dc:creator>
          <cc:Agent>
            <dc:title>Martin Skilnand</dc:title>
          </cc:Agent>
        </dc:creator>
        <dc:date>2009.05.30</dc:date>
        <dc:publisher>
          <cc:Agent>
            <dc:title>Mumble team</dc:title>
          </cc:Agent>
        </dc:publisher>
        <dc:description>Icon for voice chat program mumble</dc:description>
        <dc:subject>
          <rdf:Bag>
            <rdf:li>mumble channel link</rdf:li>
          </rdf:Bag>
        </dc:subject>
      </cc:Work>
    </rdf:RDF>
  </metadata>
  <g
     inkscape:groupmode="layer"
     id="layer2"
     inkscape:label="Anchor"
     style="display:inline"
     sodipodi:insensitive="true">
    <path
       style="fill:#666666;fill-opacity:1;fill-rule:evenodd;stroke:none;display:inline"
       d="m 211.54352,180.12419 c 0.81421,-0.56691 2.07984,-0.12986 2.85719,0.98657 l 24.00278,34.47378 c 0.29922,0.11606 0.52969,0.43216 0.53497,0.76833 l 41.21407,59.19334 c 0.77737,1.11647 0.74805,2.45511 -0.0662,3.02202 l -1.58348,1.10252 c -0.8142,0.56689 -2.10421,0.14685 -2.88156,-0.96961 l -2.00025,-2.87283 l -13.63038,-5.29011 l 0.20726,14.63613 l 2.00025,2.87281 c 0.77735,1.11647 0.74804,2.4551 -0.0662,3.02201 l -1.58349,1.10252 c -0.81421,0.56689 -2.10422,0.14686 -2.88158,-0.96961 l -41.21408,-59.19335 c -0.29935,-0.11619 -0.4884,-0.42807 -0.51169,-0.73493 L 191.91508,196.7666 c -0.77734,-1.11645 -0.72365,-2.47207 0.0905,-3.03897 l 1.58347,-1.10252 c 0.81422,-0.5669 2.07984,-0.12987 2.85718,0.98658 l 0.62799,0.90194 l 13.67806,5.30655 L 210.5206,185.201 l -0.65123,-0.93532 c -0.77736,-1.11645 -0.72368,-2.47206 0.0905,-3.03895 l 1.5835,-1.10254 z m -7.81724,23.94322 l 7.25666,10.42231 l -0.12022,-7.65368 l -7.13639,-2.76863 z m 13.44635,-9.31267 l 0.1214,7.60329 l 7.11197,2.78561 l -7.23338,-10.3889 z m 0.23168,14.61917 l 0.19175,14.25016 c 0.001,0.10576 -0.0156,0.20544 -0.0543,0.28576 l 1.48854,2.13789 l 13.6548,5.27315 l -0.23169,-14.61914 l -1.48852,-2.13791 c -0.0798,0.003 -0.19981,-0.0145 -0.28681,-0.0483 l -13.27381,-5.14161 z m 8.25473,26.19421 l 7.25665,10.42229 l -0.12022,-7.65367 l -7.13638,-2.76862 z m 13.44634,-9.31267 l 0.12139,7.60331 l 7.08874,2.7522 l -7.21015,-10.35551 z m 0.23167,14.61914 l 0.22273,13.93102 c 0.003,0.18674 -0.0901,0.34029 -0.20153,0.43789 l 0.32562,0.46765 l 13.67806,5.30657 l -0.23167,-14.61915 l -0.34887,-0.50108 c -0.13026,0.0706 -0.28209,0.0877 -0.45627,0.0201 l -12.98807,-5.04298 z m 6.9755,24.35696 l 7.25667,10.42231 l -0.12023,-7.65368 l -7.13638,-2.76863 z m 13.44635,-9.31266 l 0.097,7.62027 l 7.13637,2.76865 l -7.23339,-10.38892 z"
       id="rect141-4-4-8-2-4" />
    <path
       style="fill:#666666;fill-opacity:1;fill-rule:evenodd;stroke:none;display:inline"
       d="m 212.48727,180.16249 c -0.81421,-0.56691 -2.07984,-0.12986 -2.85719,0.98657 l -24.00278,34.47378 c -0.29922,0.11606 -0.52969,0.43216 -0.53497,0.76833 l -41.21407,59.19334 c -0.77737,1.11647 -0.74805,2.45511 0.0662,3.02202 l 1.58348,1.10252 c 0.8142,0.5669 2.10421,0.14685 2.88156,-0.96961 l 2.00025,-2.87283 l 13.63038,-5.29011 l -0.20726,14.63614 l -2.00025,2.87281 c -0.77735,1.11647 -0.74804,2.4551 0.0662,3.02201 l 1.58349,1.10252 c 0.81421,0.56689 2.10422,0.14686 2.88158,-0.96961 l 41.21408,-59.19336 c 0.29935,-0.11619 0.4884,-0.42807 0.51169,-0.73493 l 24.02605,-34.50718 c 0.77734,-1.11645 0.72365,-2.47207 -0.0905,-3.03897 l -1.58347,-1.10252 c -0.81422,-0.5669 -2.07984,-0.12987 -2.85718,0.98658 l -0.62799,0.90194 l -13.67806,5.30655 l 0.23168,-14.61918 l 0.65123,-0.93532 c 0.77736,-1.11645 0.72368,-2.47206 -0.0905,-3.03895 l -1.5835,-1.10254 z m 7.81724,23.94322 l -7.25666,10.42231 l 0.12022,-7.65368 l 7.13639,-2.76863 z m -13.44635,-9.31267 l -0.1214,7.60329 l -7.11197,2.78561 l 7.23338,-10.3889 z m -0.23168,14.61917 l -0.19175,14.25016 c -0.001,0.10576 0.0156,0.20544 0.0543,0.28576 l -1.48854,2.13789 l -13.6548,5.27315 l 0.23169,-14.61914 l 1.48852,-2.13791 c 0.0798,0.003 0.19981,-0.0145 0.28681,-0.0483 l 13.27381,-5.14161 z m -8.25473,26.19421 l -7.25665,10.42229 l 0.12022,-7.65367 l 7.13638,-2.76862 z m -13.44634,-9.31267 l -0.12139,7.60331 l -7.08874,2.7522 l 7.21015,-10.35551 z m -0.23167,14.61914 l -0.22273,13.93102 c -0.003,0.18674 0.0901,0.34029 0.20153,0.43789 l -0.32562,0.46765 l -13.67806,5.30657 l 0.23167,-14.61915 l 0.34887,-0.50108 c 0.13026,0.0706 0.28209,0.0877 0.45627,0.0201 l 12.98807,-5.04298 z m -6.9755,24.35696 l -7.25667,10.42231 l 0.12023,-7.65368 l 7.13638,-2.76863 z m -13.44635,-9.31266 l -0.097,7.62027 l -7.13637,2.76865 l 7.23339,-10.38892 z"
       id="rect141-4-4-8-2-4-9" />
    <path
       sodipodi:type="arc"
       style="fill:#666666;fill-opacity:1;fill-rule:evenodd;stroke:none"
       id="path282"
       sodipodi:cx="197.92531"
       sodipodi:cy="204.14938"
       sodipodi:rx="8.7136927"
       sodipodi:ry="9.1286306"
       d="m 206.639,204.14938 a 8.7136927,9.1286306 0 1 1 -17.42738,0 a 8.7136927,9.1286306 0 1 1 17.42738,0 z"
       transform="matrix(2.7134489,0,0,2.4637635,-325.12933,-300.56421)" />
    <rect
       style="fill:#666666;fill-opacity:1;fill-rule:evenodd;stroke:none"
       id="rect274"
       width="141.49377"
       height="25.726141"
       x="139.88943"
       y="266.74237"
       ry="1.885272" />
    <path
       sodipodi:type="arc"
       style="fill:url(#radialGradient1100);fill-opacity:1;fill-rule:evenodd;stroke:none;display:inline"
       id="path282-1"
       sodipodi:cx="197.92531"
       sodipodi:cy="204.14938"
       sodipodi:rx="8.7136927"
       sodipodi:ry="9.1286306"
       d="m 206.639,204.14938 a 8.7136927,9.1286306 0 1 1 -17.42738,0 a 8.7136927,9.1286306 0 1 1 17.42738,0 z"
       transform="matrix(2.0185413,0,0,1.7372691,-183.26434,-147.349)" />
  </g>
  <g
     transform="translate(-22.223346,53.739535)"
     id="layer1"
     inkscape:groupmode="layer"
     inkscape:label="Dish"
     style="display:inline"
     sodipodi:insensitive="true">
    <path
       sodipodi:open="true"
       sodipodi:end="3.1415926"
       sodipodi:start="0"
       transform="matrix(0.75379136,-1.1101423,1.1591951,0.78709842,-52.584398,-51.87642)"
       d="M 94.190871,162.65561 A 93.153526,89.211617 0 0 1 1.037347,251.86723 93.153526,89.211617 0 0 1 -92.116182,162.65561"
       sodipodi:ry="89.211617"
       sodipodi:rx="93.153526"
       sodipodi:cy="162.65561"
       sodipodi:cx="1.0373445"
       id="path2965"
       style="fill:#999999;fill-opacity:1;fill-rule:evenodd;stroke:none"
       sodipodi:type="arc" />
    <path
       sodipodi:open="true"
       sodipodi:end="3.1415926"
       sodipodi:start="0"
       transform="matrix(0.75379136,-1.1101423,1.1591951,0.78709842,-52.596462,-51.57921)"
       d="M 94.190871,162.65561 A 93.153526,89.211617 0 0 1 1.037347,251.86723 93.153526,89.211617 0 0 1 -92.116182,162.65561"
       sodipodi:ry="89.211617"
       sodipodi:rx="93.153526"
       sodipodi:cy="162.65561"
       sodipodi:cx="1.0373445"
       id="path2965-1"
       style="fill:url(#linearGradient3745);fill-opacity:1;fill-rule:evenodd;stroke:none;display:inline"
       sodipodi:type="arc" />
    <path
       transform="matrix(0.88558812,-1.537967,1.4212837,0.83457329,-176.80875,195.6776)"
       d="M 220.71429,142.5 A 74.285713,28.224562 0 0 1 146.42857,170.72456 74.285713,28.224562 0 0 1 72.14286,142.5 74.285713,28.224562 0 0 1 146.42857,114.27544 74.285713,28.224562 0 0 1 220.71429,142.5 Z"
       sodipodi:ry="28.224562"
       sodipodi:rx="74.285713"
       sodipodi:cy="142.5"
       sodipodi:cx="146.42857"
       id="path25-1-1-1"
       style="opacity:0.75;fill:url(#radialGradient3794);fill-opacity:1;fill-rule:evenodd;stroke:none;display:inline"
       sodipodi:type="arc" />
    <path
       transform="matrix(0.96426536,-1.6582971,1.5475531,0.89987002,-228.45979,191.97371)"
       d="M 220.71429,142.5 A 74.285713,28.224562 0 0 1 146.42857,170.72456 74.285713,28.224562 0 0 1 72.14286,142.5 74.285713,28.224562 0 0 1 146.42857,114.27544 74.285713,28.224562 0 0 1 220.71429,142.5 Z"
       sodipodi:ry="28.224562"
       sodipodi:rx="74.285713"
       sodipodi:cy="142.5"
       sodipodi:cx="146.42857"
       id="path25-1-1"
       style="fill:#808080;fill-opacity:1;fill-rule:evenodd;stroke:none"
       sodipodi:type="arc" />
    <path
       transform="matrix(0.86276373,-1.4837395,1.1904255,0.69220769,-163.67957,197.99767)"
       d="M 220.71429,142.5 A 74.285713,28.382521 0 0 1 146.42857,170.88252 74.285713,28.382521 0 0 1 72.14286,142.5 74.285713,28.382521 0 0 1 146.42857,114.11748 74.285713,28.382521 0 0 1 220.71429,142.5 Z"
       sodipodi:ry="28.382521"
       sodipodi:rx="74.285713"
       sodipodi:cy="142.5"
       sodipodi:cx="146.42857"
       id="path25-1-7-4-1"
       style="fill:#333333;fill-opacity:1;fill-rule:evenodd;stroke:none;display:inline"
       sodipodi:type="arc" />
    <path
       transform="matrix(0.86276373,-1.4837395,1.1904255,0.69220769,-163.55154,197.76088)"
       d="M 220.71429,142.5 A 74.285713,28.382521 0 0 1 146.42857,170.88252 74.285713,28.382521 0 0 1 72.14286,142.5 74.285713,28.382521 0 0 1 146.42857,114.11748 74.285713,28.382521 0 0 1 220.71429,142.5 Z"
       sodipodi:ry="28.382521"
       sodipodi:rx="74.285713"
       sodipodi:cy="142.5"
       sodipodi:cx="146.42857"
       id="path25-1-7-4"
       style="fill:url(#radialGradient846);fill-opacity:1;fill-rule:evenodd;stroke:none"
       sodipodi:type="arc" />
    <rect
       style="fill:#b3b3b3;fill-opacity:1;fill-rule:evenodd;stroke:none"
       id="rect71"
       width="115.03465"
       height="9.5625553"
       x="-183.43565"
       y="38.956253"
       transform="matrix(-0.32190147,-0.94677318,0.97984847,-0.19974229,0,0)"
       ry="2.9295669" />
    <rect
       style="fill:#cccccc;fill-opacity:1;fill-rule:evenodd;stroke:none"
       id="rect71-4"
       width="119.77407"
       height="7.7232761"
       x="-176.05373"
       y="-47.170231"
       transform="matrix(-0.9693926,0.24551575,-0.30635416,-0.95191761,0,0)"
       ry="2.3660889" />
    <rect
       style="fill:url(#linearGradient2984);fill-opacity:1;fill-rule:evenodd;stroke:none;display:inline"
       id="rect71-4-2"
       width="112.11414"
       height="7.3917198"
       x="-177.20451"
       y="-47.525032"
       transform="matrix(-0.96868551,0.24829094,-0.29584244,-0.95523675,0,0)"
       ry="2.264514" />
    <rect
       style="fill:#999999;fill-opacity:1;fill-rule:evenodd;stroke:none"
       id="rect47"
       width="52.593361"
       height="11.825726"
       x="-24.160023"
       y="73.798477"
       ry="1.2879221"
       transform="matrix(0.50267466,-0.86447567,0.86447567,0.50267466,0,0)" />
    <path
       transform="matrix(0.73234495,-1.2594516,1.2967135,0.75401198,-91.717594,173.91409)"
       sodipodi:type="arc"
       style="fill:#999999;fill-opacity:1;fill-rule:evenodd;stroke:none"
       id="path45-7"
       sodipodi:cx="136.30705"
       sodipodi:cy="50.829876"
       sodipodi:rx="18.049793"
       sodipodi:ry="4.7717843"
       d="m 154.35685,50.829876 a 18.049793,4.7717843 0 0 1 -18.0498,4.771784 18.049793,4.7717843 0 0 1 -18.04979,-4.771784 18.049793,4.7717843 0 0 1 18.04979,-4.771784 18.049793,4.7717843 0 0 1 18.0498,4.771784 z" />
    <path
       sodipodi:type="arc"
       style="fill:#cccccc;fill-opacity:1;fill-rule:evenodd;stroke:none"
       id="path45"
       sodipodi:cx="136.30705"
       sodipodi:cy="50.829876"
       sodipodi:rx="18.049793"
       sodipodi:ry="4.7717843"
       d="m 154.35685,50.829876 a 18.049793,4.7717843 0 0 1 -18.0498,4.771784 18.049793,4.7717843 0 0 1 -18.04979,-4.771784 18.049793,4.7717843 0 0 1 18.04979,-4.771784 18.049793,4.7717843 0 0 1 18.0498,4.771784 z"
       transform="matrix(0.73234495,-1.2594516,1.2967135,0.75401198,-100.05745,169.06464)" />
    <rect
       style="fill:#cccccc;fill-opacity:1;fill-rule:evenodd;stroke:none;display:inline"
       id="rect71-4-8"
       width="96.279564"
       height="6.208303"
       x="-184.26019"
       y="-6.3076544"
       transform="matrix(-0.90887982,-0.41705811,0.3587208,-0.9334449,0,0)"
       ry="1.9019643" />
    <rect
       style="fill:url(#linearGradient3786);fill-opacity:1;fill-rule:evenodd;stroke:none;display:inline"
       id="rect71-1"
       width="115.03465"
       height="9.5625553"
       x="-183.81006"
       y="38.907566"
       transform="matrix(-0.32190147,-0.94677317,0.97984847,-0.19974229,0,0)"
       ry="2.9295669" />
    <rect
       style="fill:url(#linearGradient2968);fill-opacity:1;fill-rule:evenodd;stroke:none;display:inline"
       id="rect71-4-8-2"
       width="96.279564"
       height="6.208303"
       x="-184.00726"
       y="-6.6274238"
       transform="matrix(-0.90887982,-0.41705812,0.35872081,-0.9334449,0,0)"
       ry="1.9019642" />
    <rect
       style="fill:url(#linearGradient3845);fill-opacity:1;fill-rule:evenodd;stroke:none;display:inline"
       id="rect71-4-8-2-6"
       width="96.279564"
       height="6.208303"
       x="-228.76112"
       y="3.6299708"
       transform="matrix(-0.90887982,-0.41705812,0.35872081,-0.9334449,0,0)"
       ry="1.9019642" />
  </g>
</svg>
