<?xml version="1.0" encoding="UTF-8" standalone="no"?><!-- Created with Inkscape (http://www.inkscape.org/) --><svg xmlns:dc="http://purl.org/dc/elements/1.1/" xmlns:cc="http://creativecommons.org/ns#" xmlns:rdf="http://www.w3.org/1999/02/22-rdf-syntax-ns#" xmlns:svg="http://www.w3.org/2000/svg" xmlns="http://www.w3.org/2000/svg" xmlns:xlink="http://www.w3.org/1999/xlink" xmlns:sodipodi="http://sodipodi.sourceforge.net/DTD/sodipodi-0.dtd" xmlns:inkscape="http://www.inkscape.org/namespaces/inkscape" width="300" height="300" id="svg2" version="1.0"><sodipodi:namedview pagecolor="#ffffff" bordercolor="#666666" borderopacity="1.0" showgrid="false" width="300" showguides="true"/><defs><filter color-interpolation-filters="sRGB" id="0"><feGaussianBlur stdDeviation="5" result="result1"/><feComposite k4="0" in="SourceGraphic" operator="arithmetic" result="result2" k1=".4" k3=".8" k2="0" in2="result1"/></filter><filter color-interpolation-filters="sRGB" id="1"><feGaussianBlur stdDeviation="5" result="result1"/><feComposite k4="0" in="SourceGraphic" operator="arithmetic" result="result2" k1=".4" k3=".8" k2="0" in2="result1"/></filter><linearGradient id="5" gradientUnits="userSpaceOnUse" x1="-17.811" y1="217.34" x2="67.927" y2="212.01"><stop stop-color="#7d7d7d" stop-opacity=".839"/><stop offset="1" stop-color="#dcdcdc" stop-opacity="0"/></linearGradient><linearGradient xlink:href="#6" id="4" gradientUnits="userSpaceOnUse" x1="-130.26" y1="-51.35" x2="-130.37" y2="-40.42"/><linearGradient id="6"><stop stop-color="#666"/><stop offset="1" stop-color="#666" stop-opacity="0"/></linearGradient><linearGradient xlink:href="#6" id="3" gradientUnits="userSpaceOnUse" x1="-154.36" y1="-10.544" x2="-154.26" y2="-.911"/><linearGradient gradientTransform="matrix(.98663-.00616-.00672.98152 1.053 2.537)" y2="161.13" x2="42.69" y1="245.79" x1="18.806" gradientUnits="userSpaceOnUse" id="2"><stop stop-color="#737373" stop-opacity=".839"/><stop offset="1" stop-color="#c1c1c1" stop-opacity="0"/></linearGradient><radialGradient id="A" cx="197.93" cy="204.15" fx="197.93" fy="204.15" r="8.714" gradientTransform="matrix(1 0 0 1.04762 0-9.721)" gradientUnits="userSpaceOnUse"><stop stop-color="#999"/><stop offset="1" stop-color="#999" stop-opacity="0"/></radialGradient><radialGradient id="B" gradientUnits="userSpaceOnUse" gradientTransform="matrix(1 0 0 .48687 0 58.738)" cx="146.43" cy="216.79" fx="146.43" fy="216.79" r="74.29"><stop stop-color="#0f0f0f"/><stop offset=".5" stop-color="#373737" stop-opacity=".749"/><stop offset="1" stop-color="#808080" stop-opacity=".498"/></radialGradient><radialGradient r="21.784" fy="45.643" fx="57.884" cy="45.643" cx="57.884" gradientTransform="matrix(1 0 0 .8381 0 7.39)" gradientUnits="userSpaceOnUse" id="9"><stop stop-color="#0f0"/><stop offset="1" stop-color="#0f0" stop-opacity="0"/></radialGradient><radialGradient id="7" cx="140.06" cy="122.56" fx="140.06" fy="122.56" r="74.29" gradientTransform="matrix(-1.04454-.03617.00691-.30054 291.97 195)" gradientUnits="userSpaceOnUse"><stop stop-color="#333"/><stop offset="1" stop-color="#333" stop-opacity="0"/></radialGradient><radialGradient id="8" cx="214.2" cy="113.18" fx="214.2" fy="113.18" r="31.33" gradientTransform="matrix(.99998.0058-.01052 1.81519-6.762-80.74)" gradientUnits="userSpaceOnUse"><stop stop-color="#fff"/><stop offset="1" stop-color="#fff" stop-opacity="0"/></radialGradient></defs><metadata><rdf:RDF><cc:Work><dc:format>image/svg+xml</dc:format><dc:type rdf:resource="http://purl.org/dc/dcmitype/StillImage"/><dc:title>channel_linked</dc:title><cc:license/><dc:rights><cc:Agent><dc:title>Martin Skilnand</dc:title></cc:Agent></dc:rights><dc:creator><cc:Agent><dc:title>Martin Skilnand</dc:title></cc:Agent></dc:creator><dc:date>2009.10.20</dc:date><dc:publisher><cc:Agent><dc:title>Mumble team</dc:title></cc:Agent></dc:publisher><dc:description>Icon for voice chat program mumble</dc:description><dc:subject><rdf:Bag><rdf:li>mumble channel link</rdf:li></rdf:Bag></dc:subject></cc:Work></rdf:RDF></metadata><g fill-rule="evenodd"><g fill="#808080"><path d="m211.54 180.12c.814-.567 2.08-.13 2.857.987l24 34.474c.299.116.53.432.535.768l41.21 59.19c.777 1.116.748 2.455-.066 3.02l-1.583 1.103c-.814.567-2.104.147-2.882-.97l-2-2.873-13.63-5.29.207 14.636 2 2.873c.777 1.116.748 2.455-.066 3.02l-1.583 1.103c-.814.567-2.104.147-2.882-.97l-41.21-59.19c-.299-.116-.488-.428-.512-.735l-24.03-34.507c-.777-1.116-.724-2.472.09-3.039l1.583-1.103c.814-.567 2.08-.13 2.857.987l.628.902 13.678 5.307-.232-14.619-.651-.935c-.777-1.116-.724-2.472.09-3.039l1.583-1.103m-7.817 23.943l7.257 10.422-.12-7.654-7.136-2.769m13.446-9.313l.121 7.603 7.112 2.786-7.233-10.389m.232 14.619l.192 14.25c.001.106-.016.205-.054.286l1.489 2.138 13.655 5.273-.232-14.619-1.489-2.138c-.08.003-.2-.014-.287-.048l-13.274-5.142m8.255 26.19l7.257 10.422-.12-7.654-7.136-2.769m13.446-9.313l.121 7.603 7.089 2.752-7.21-10.356m.232 14.619l.223 13.931c.003.187-.09.34-.202.438l.326.468 13.678 5.307-.232-14.619-.349-.501c-.13.071-.282.088-.456.02l-12.988-5.04m6.976 24.357l7.257 10.422-.12-7.654-7.136-2.769m13.446-9.313l.097 7.62 7.136 2.769-7.233-10.389"/><path d="m212.49 180.16c-.814-.567-2.08-.13-2.857.987l-24 34.474c-.299.116-.53.432-.535.768l-41.21 59.19c-.777 1.116-.748 2.455.066 3.02l1.583 1.103c.814.567 2.104.147 2.882-.97l2-2.873 13.63-5.29-.207 14.636-2 2.873c-.777 1.116-.748 2.455.066 3.02l1.583 1.103c.814.567 2.104.147 2.882-.97l41.21-59.19c.299-.116.488-.428.512-.735l24.03-34.507c.777-1.116.724-2.472-.09-3.039l-1.583-1.103c-.814-.567-2.08-.13-2.857.987l-.628.902-13.678 5.307.232-14.619.651-.935c.777-1.116.724-2.472-.09-3.039l-1.583-1.103m7.817 23.943l-7.257 10.422.12-7.654 7.136-2.769m-13.446-9.313l-.121 7.603-7.112 2.786 7.233-10.389m-.232 14.619l-.192 14.25c-.001.106.016.205.054.286l-1.489 2.138-13.655 5.273.232-14.619 1.489-2.138c.08.003.2-.014.287-.048l13.274-5.142m-8.255 26.19l-7.257 10.422.12-7.654 7.136-2.769m-13.446-9.313l-.121 7.603-7.089 2.752 7.21-10.356m-.232 14.619l-.223 13.931c-.003.187.09.34.202.438l-.326.468-13.678 5.307.232-14.619.349-.501c.13.071.282.088.456.02l12.988-5.04m-6.976 24.357l-7.257 10.422.12-7.654 7.136-2.769m-13.446-9.313l-.097 7.62-7.136 2.769 7.233-10.389"/></g><g fill="#666"><path d="m206.639 204.14938a8.713693 9.128631 0 1 1 -17.42738 0 8.713693 9.128631 0 1 1 17.42738 0" transform="matrix(2.71345 0 0 2.46376-325.13-300.56)"/><rect width="141.49" height="25.726" x="139.89" y="266.74" ry="1.885" rx="1.885"/></g><path d="m206.639 204.14938a8.713693 9.128631 0 1 1 -17.42738 0 8.713693 9.128631 0 1 1 17.42738 0" transform="matrix(2.0185 0 0 1.73727-183.26-147.35)" fill="url(#A)"/><path transform="matrix(.77141-1.12023 1.1863.79425-78.64 1.325)" d="m94.19087 162.65561a93.15353 89.21162 0 0 1 -186.30705 0" fill="url(#2)"/><path transform="matrix(.75379-1.11014 1.1592.7871-74.81 1.863)" d="m94.19087 162.65561a93.15353 89.21162 0 0 1 -186.30705 0" fill="#e1dbd7"/><path transform="matrix(.75379-1.11014 1.1592.7871-74.82 2.16)" d="m94.19087 162.65561a93.15353 89.21162 0 0 1 -186.30705 0" fill="url(#5)"/><path transform="matrix(.88559-1.53797 1.42128.83457-209.59 242.38)" d="m220.71429 142.5a74.28571 28.22456 0 1 1 -148.57143 0 74.28571 28.22456 0 1 1 148.57143 0" opacity=".75" fill="url(#7)"/><path transform="matrix(.96427-1.6583 1.54755.89987-250.68 245.71)" d="m220.71429 142.5a74.28571 28.22456 0 1 1 -148.57143 0 74.28571 28.22456 0 1 1 148.57143 0" fill="#dcdcdc"/><path transform="matrix(.86276-1.48374 1.19043.69221-185.9 251.74)" d="m220.71429 142.5a74.28571 28.382521 0 1 1 -148.57143 0 74.28571 28.382521 0 1 1 148.57143 0" fill="#808080"/><path transform="matrix(.86276-1.48374 1.19043.69221-185.77 251.5)" d="m220.71429 142.5a74.28571 28.382521 0 1 1 -148.57143 0 74.28571 28.382521 0 1 1 148.57143 0" fill="url(#B)"/><rect width="119.77" height="7.723" x="-176.05" y="-47.17" transform="matrix(-.96939.24552-.30635-.95192-22.22 53.74)" ry="2.366" fill="#ccc" rx="2.366"/><rect width="115.03" height="9.563" x="-183.44" y="38.956" transform="matrix(-.3219-.94677.97985-.19974-22.22 53.74)" ry="2.93" fill="#b3b3b3" rx="2.93"/><rect width="52.593" height="11.826" x="-24.16" y="73.8" ry="1.288" transform="matrix(.50267-.86448.86448.50267-22.22 53.74)" fill="#999" rx="1.288"/><rect width="119.77" height="7.723" x="-176.1" y="-47.21" transform="matrix(-.96939.24552-.30635-.95192-22.22 53.74)" ry="2.366" fill="url(#4)" rx="2.366"/><path transform="matrix(.73234-1.25945 1.29671.75401-113.94 227.65)" d="m154.35685 50.829876a18.04979 4.771784 0 1 1 -36.09959 0 18.04979 4.771784 0 1 1 36.09959 0" fill="#999"/><g fill="#ccc"><path d="m154.35685 50.829876a18.04979 4.771784 0 1 1 -36.09959 0 18.04979 4.771784 0 1 1 36.09959 0" transform="matrix(.73234-1.25945 1.29671.75401-122.28 222.8)"/><rect width="96.28" height="6.208" x="-184.26" y="-6.308" transform="matrix(-.90888-.41706.35872-.93344-22.22 53.74)" ry="1.902" rx="1.902"/></g><rect width="96.28" height="6.208" x="-184.01" y="-6.627" transform="matrix(-.90888-.41706.35872-.93344-22.22 53.74)" ry="1.902" fill="url(#3)" rx="1.902"/><path d="m231.95021 113.90041a31.3278 60.788383 0 1 1 -62.6556 0 31.3278 60.788383 0 1 1 62.6556 0" transform="matrix(.97183-.23569.23569.97183-15.384 43.854)" opacity=".6" fill="url(#8)"/><g fill="url(#9)"><path d="m79.66805 45.643154a21.784233 18.257261 0 1 1 -43.568466 0 21.784233 18.257261 0 1 1 43.568466 0" transform="matrix(2.39143 0 0 2.37108-93.61-20.672)" filter="url(#1)"/><path d="m79.66805 45.643154a21.784233 18.257261 0 1 1 -43.568466 0 21.784233 18.257261 0 1 1 43.568466 0" transform="translate(-17.22 43.15)" opacity=".8" filter="url(#0)"/></g></g></svg>