<?xml version="1.0" encoding="UTF-8" standalone="no"?><!-- Created with Inkscape (http://www.inkscape.org/) --><svg xmlns:dc="http://purl.org/dc/elements/1.1/" xmlns:cc="http://creativecommons.org/ns#" xmlns:rdf="http://www.w3.org/1999/02/22-rdf-syntax-ns#" xmlns:svg="http://www.w3.org/2000/svg" xmlns="http://www.w3.org/2000/svg" xmlns:xlink="http://www.w3.org/1999/xlink" xmlns:sodipodi="http://sodipodi.sourceforge.net/DTD/sodipodi-0.dtd" xmlns:inkscape="http://www.inkscape.org/namespaces/inkscape" width="300" height="300" id="svg2" version="1.0"><sodipodi:namedview pagecolor="#ffffff" bordercolor="#666666" borderopacity="1.0" showgrid="false" width="300" showguides="true"/><defs><linearGradient id="3" x1="-68.2" y1="209.73" x2="31.55" y2="219.5" gradientUnits="userSpaceOnUse"><stop stop-color="#1a1a1a"/><stop offset="1" stop-color="#313131" stop-opacity="0"/></linearGradient><linearGradient xlink:href="#4" id="2" gradientUnits="userSpaceOnUse" gradientTransform="matrix(1.49978.0043.01655 1.49909 318.96-175.55)" x1="-300.81" y1="83.49" x2="-300.88" y2="90.77"/><linearGradient id="4"><stop stop-color="#666"/><stop offset="1" stop-color="#666" stop-opacity="0"/></linearGradient><linearGradient xlink:href="#4" id="1" x1="-131.15" y1="26.02" x2="-121.6" y2="54.46" gradientUnits="userSpaceOnUse"/><linearGradient y2="-.911" x2="-154.26" y1="-10.544" x1="-154.36" gradientUnits="userSpaceOnUse" id="0" xlink:href="#4"/><radialGradient id="7" cx="145.61" cy="130.66" fx="145.61" fy="130.66" r="74.29" gradientTransform="matrix(-.99921.03437-.00988-.31975 295.39 183.29)" gradientUnits="userSpaceOnUse"><stop/><stop offset="1" stop-opacity="0"/></radialGradient><radialGradient id="6" cx="197.93" cy="204.15" fx="197.93" fy="204.15" r="8.714" gradientTransform="matrix(1 0 0 1.04762 0-9.721)" gradientUnits="userSpaceOnUse"><stop stop-color="#999"/><stop offset="1" stop-color="#999" stop-opacity="0"/></radialGradient><radialGradient r="74.29" fy="216.79" fx="146.43" cy="216.79" cx="146.43" gradientTransform="matrix(1 0 0 .48687 0 58.738)" gradientUnits="userSpaceOnUse" id="5"><stop/><stop offset=".5" stop-color="#404040" stop-opacity=".749"/><stop offset="1" stop-color="#808080" stop-opacity=".498"/></radialGradient></defs><metadata><rdf:RDF><cc:Work><dc:format>image/svg+xml</dc:format><dc:type rdf:resource="http://purl.org/dc/dcmitype/StillImage"/><dc:title>channel_linked</dc:title><cc:license/><dc:rights><cc:Agent><dc:title>Martin Skilnand</dc:title></cc:Agent></dc:rights><dc:creator><cc:Agent><dc:title>Martin Skilnand</dc:title></cc:Agent></dc:creator><dc:date>2009.05.30</dc:date><dc:publisher><cc:Agent><dc:title>Mumble team</dc:title></cc:Agent></dc:publisher><dc:description>Icon for voice chat program mumble</dc:description><dc:subject><rdf:Bag><rdf:li>mumble channel link</rdf:li></rdf:Bag></dc:subject></cc:Work></rdf:RDF></metadata><g fill-rule="evenodd"><g fill="#666"><path d="m211.54 180.12c.814-.567 2.08-.13 2.857.987l24 34.474c.299.116.53.432.535.768l41.21 59.19c.777 1.116.748 2.455-.066 3.02l-1.583 1.103c-.814.567-2.104.147-2.882-.97l-2-2.873-13.63-5.29.207 14.636 2 2.873c.777 1.116.748 2.455-.066 3.02l-1.583 1.103c-.814.567-2.104.147-2.882-.97l-41.21-59.19c-.299-.116-.488-.428-.512-.735l-24.03-34.507c-.777-1.116-.724-2.472.09-3.039l1.583-1.103c.814-.567 2.08-.13 2.857.987l.628.902 13.678 5.307-.232-14.619-.651-.935c-.777-1.116-.724-2.472.09-3.039l1.583-1.103m-7.817 23.943l7.257 10.422-.12-7.654-7.136-2.769m13.446-9.313l.121 7.603 7.112 2.786-7.233-10.389m.232 14.619l.192 14.25c.001.106-.016.205-.054.286l1.489 2.138 13.655 5.273-.232-14.619-1.489-2.138c-.08.003-.2-.014-.287-.048l-13.274-5.142m8.255 26.19l7.257 10.422-.12-7.654-7.136-2.769m13.446-9.313l.121 7.603 7.089 2.752-7.21-10.356m.232 14.619l.223 13.931c.003.187-.09.34-.202.438l.326.468 13.678 5.307-.232-14.619-.349-.501c-.13.071-.282.088-.456.02l-12.988-5.04m6.976 24.357l7.257 10.422-.12-7.654-7.136-2.769m13.446-9.313l.097 7.62 7.136 2.769-7.233-10.389"/><path d="m212.49 180.16c-.814-.567-2.08-.13-2.857.987l-24 34.474c-.299.116-.53.432-.535.768l-41.21 59.19c-.777 1.116-.748 2.455.066 3.02l1.583 1.103c.814.567 2.104.147 2.882-.97l2-2.873 13.63-5.29-.207 14.636-2 2.873c-.777 1.116-.748 2.455.066 3.02l1.583 1.103c.814.567 2.104.147 2.882-.97l41.21-59.19c.299-.116.488-.428.512-.735l24.03-34.507c.777-1.116.724-2.472-.09-3.039l-1.583-1.103c-.814-.567-2.08-.13-2.857.987l-.628.902-13.678 5.307.232-14.619.651-.935c.777-1.116.724-2.472-.09-3.039l-1.583-1.103m7.817 23.943l-7.257 10.422.12-7.654 7.136-2.769m-13.446-9.313l-.121 7.603-7.112 2.786 7.233-10.389m-.232 14.619l-.192 14.25c-.001.106.016.205.054.286l-1.489 2.138-13.655 5.273.232-14.619 1.489-2.138c.08.003.2-.014.287-.048l13.274-5.142m-8.255 26.19l-7.257 10.422.12-7.654 7.136-2.769m-13.446-9.313l-.121 7.603-7.089 2.752 7.21-10.356m-.232 14.619l-.223 13.931c-.003.187.09.34.202.438l-.326.468-13.678 5.307.232-14.619.349-.501c.13.071.282.088.456.02l12.988-5.04m-6.976 24.357l-7.257 10.422.12-7.654 7.136-2.769m-13.446-9.313l-.097 7.62-7.136 2.769 7.233-10.389"/><path d="m206.639 204.14938a8.713693 9.128631 0 1 1 -17.42738 0 8.713693 9.128631 0 1 1 17.42738 0" transform="matrix(2.71345 0 0 2.46376-325.13-300.56)"/><rect width="141.49" height="25.726" x="139.89" y="266.74" ry="1.885" rx="1.885"/></g><path d="m206.639 204.14938a8.713693 9.128631 0 1 1 -17.42738 0 8.713693 9.128631 0 1 1 17.42738 0" transform="matrix(2.0185 0 0 1.73727-183.26-147.35)" fill="url(#6)"/><path transform="matrix(.75379-1.11014 1.1592.7871-74.81 1.863)" d="m94.19087 162.65561a93.15353 89.21162 0 0 1 -186.30705 0" fill="#999"/><path transform="matrix(.75379-1.11014 1.1592.7871-74.82 2.16)" d="m94.19087 162.65561a93.15353 89.21162 0 0 1 -186.30705 0" fill="url(#3)"/><path transform="matrix(.88559-1.53797 1.42128.83457-199.03 249.42)" d="m220.71429 142.5a74.28571 28.22456 0 1 1 -148.57143 0 74.28571 28.22456 0 1 1 148.57143 0" opacity=".75" fill="url(#7)"/><path transform="matrix(.96427-1.6583 1.54755.89987-250.68 245.71)" d="m220.71429 142.5a74.28571 28.22456 0 1 1 -148.57143 0 74.28571 28.22456 0 1 1 148.57143 0" fill="#808080"/><path transform="matrix(.86276-1.48374 1.19043.69221-185.9 251.74)" d="m220.71429 142.5a74.28571 28.382521 0 1 1 -148.57143 0 74.28571 28.382521 0 1 1 148.57143 0" fill="#333"/><path transform="matrix(.86276-1.48374 1.19043.69221-185.77 251.5)" d="m220.71429 142.5a74.28571 28.382521 0 1 1 -148.57143 0 74.28571 28.382521 0 1 1 148.57143 0" fill="url(#5)"/><rect width="115.03" height="9.563" x="-183.44" y="38.956" transform="matrix(-.3219-.94677.97985-.19974-22.22 53.74)" ry="2.93" fill="#b3b3b3" rx="2.93"/><rect width="119.77" height="7.723" x="-176.05" y="-47.17" transform="matrix(-.96939.24552-.30635-.95192-22.22 53.74)" ry="2.366" fill="#ccc" rx="2.366"/><rect width="112.11" height="7.392" x="-177.2" y="-47.525" transform="matrix(-.96869.24829-.29584-.95524-22.22 53.74)" ry="2.265" fill="url(#2)" rx="2.265"/><g fill="#999"><rect width="52.593" height="11.826" x="-24.16" y="73.8" ry="1.288" transform="matrix(.50267-.86448.86448.50267-22.22 53.74)" rx="1.288"/><path transform="matrix(.73234-1.25945 1.29671.75401-113.94 227.65)" d="m154.35685 50.829876a18.04979 4.771784 0 1 1 -36.09959 0 18.04979 4.771784 0 1 1 36.09959 0"/></g><g fill="#ccc"><path d="m154.35685 50.829876a18.04979 4.771784 0 1 1 -36.09959 0 18.04979 4.771784 0 1 1 36.09959 0" transform="matrix(.73234-1.25945 1.29671.75401-122.28 222.8)"/><rect width="96.28" height="6.208" x="-184.26" y="-6.308" transform="matrix(-.90888-.41706.35872-.93344-22.22 53.74)" ry="1.902" rx="1.902"/></g><rect width="115.03" height="9.563" x="-183.81" y="38.908" transform="matrix(-.3219-.94677.97985-.19974-22.22 53.74)" ry="2.93" fill="url(#1)" rx="2.93"/><g fill="url(#0)"><rect width="96.28" height="6.208" x="-184.01" y="-6.627" transform="matrix(-.90888-.41706.35872-.93344-22.22 53.74)" ry="1.902" rx="1.902"/><rect width="96.28" height="6.208" x="-228.76" y="3.63" transform="matrix(-.90888-.41706.35872-.93344-22.22 53.74)" ry="1.902" rx="1.902"/></g></g></svg>