<?xml version="1.0" encoding="UTF-8" standalone="no"?><!-- Created with Inkscape (http://www.inkscape.org/) --><svg xmlns:dc="http://purl.org/dc/elements/1.1/" xmlns:cc="http://creativecommons.org/ns#" xmlns:rdf="http://www.w3.org/1999/02/22-rdf-syntax-ns#" xmlns:svg="http://www.w3.org/2000/svg" xmlns="http://www.w3.org/2000/svg" xmlns:xlink="http://www.w3.org/1999/xlink" xmlns:sodipodi="http://sodipodi.sourceforge.net/DTD/sodipodi-0.dtd" xmlns:inkscape="http://www.inkscape.org/namespaces/inkscape" width="300" height="300" id="svg2" version="1.0"><sodipodi:namedview pagecolor="#ffffff" bordercolor="#666666" borderopacity="1.0" showgrid="false" width="300" showguides="true"/><defs><linearGradient id="0" x1="125.58" y1="248.46" x2="125.7" y2="163.54" gradientUnits="userSpaceOnUse"><stop stop-color="#999"/><stop offset="1" stop-color="#999" stop-opacity="0"/></linearGradient><linearGradient id="1" x1="109.8" y1="24.08" x2="122.65" y2="167.65" gradientUnits="userSpaceOnUse"><stop stop-color="#fff"/><stop offset="1" stop-color="#fff" stop-opacity="0"/></linearGradient><linearGradient id="2" x1="122.73" y1="237.88" x2="114.18" y2="9.911" gradientUnits="userSpaceOnUse"><stop stop-color="#1a1a1a"/><stop offset="1" stop-color="#1a1a1a" stop-opacity="0"/></linearGradient></defs><metadata><rdf:RDF><cc:Work><dc:format>image/svg+xml</dc:format><dc:type rdf:resource="http://purl.org/dc/dcmitype/StillImage"/><dc:title>comment</dc:title><cc:license/><dc:rights><cc:Agent><dc:title>Martin Skilnand</dc:title></cc:Agent></dc:rights><dc:creator><cc:Agent><dc:title>Martin Skilnand</dc:title></cc:Agent></dc:creator><dc:date>2009.11.19</dc:date><dc:publisher><cc:Agent><dc:title>Mumble team</dc:title></cc:Agent></dc:publisher><dc:description>Icon for voice chat program mumble</dc:description><dc:subject><rdf:Bag><rdf:li>mumble comment</rdf:li></rdf:Bag></dc:subject></cc:Work></rdf:RDF></metadata><g transform="matrix(1.39934 0 0 1.29476-23.02-20.252)" font-family="Bitstream Vera Sans" font-size="12"><g fill-rule="evenodd"><path d="m21.738 27.647l188.56 1.893c0 0-5.03 50.31-5.03 50.31.305 29.25-.251 44.925.831 74.15.253 6.847 3.627 25.648 8.839 37.11 5.39 11.857 14.565 36.483 14.565 36.483l-208.67 3.648c0 0 2.857-23.06 3.777-34.661.774-9.758 1.146-17.419 1.465-29.351.134-5 .242-14.167.33-25.495.154-19.903.665-32.885.717-55.29.058-24.69-5.381-58.805-5.381-58.805" opacity=".75" fill="url(#2)" font-family="Bitstream Vera Sans" font-size="12"/><path opacity=".5" fill="url(#1)" d="m32.986 32.06h164.89v122.53h-164.89z"/><path d="m27.868 31.582l176.19 1.36c0 0 .161 14.813-1.959 26.77-2.354 13.278-.786 73.19.282 93.92.495 9.618.646 19.758 3.101 29.18 2.503 9.612 11.664 27.17 11.664 27.17l-188.95 3.254c0 0 1.705-20.535 2.5-30.913.261-3.41 1.373-19.493 1.827-29.349.238-5.169-.058-75.91-2.202-91.01-1.448-10.196-2.455-30.39-2.455-30.39" fill="#fff37a"/></g><g font-family="Bitstream Vera Sans"><path d="m-122.45 16.764c2.629-.044 3.922 3.976 2.138 4.783-3.16 3.289-5.323 3.94-10.06 4.531-3.686.302-7.565-.143-10.848-3.953-1.586-1.655-3.377-5.993-3.227-8.114.181-2.563.177-5.432 1.142-7.76 2.972-6.643 7.716-12.739 14.14-16.327 3.38-1.808 7.626-3.097 11.295-1.38 2.43 1.19 4.153 3.418 4.468 6.04-.059 2.366 1.311 3.537-.464 4.461-1.436 1.206-3.139 1.934-3.426-.292-.267-2.084-.409-3.623-1.581-5.614-1.023-.793-4.577-.636-5.714-.232-4.162 1.941-7.411 5.433-10.01 9.141-2.247 3.484-4.797 7.478-4.413 11.952-.287 2.864 2.01 5.859 5.02 6.585 3.45 1.287 5.483 1.056 8.603-1l2.939-2.818" fill="#000080" font-weight="bold" font-size="25" transform="matrix(3.21109-1.15052 1.1961 3.08872 519.92-51.38)" opacity=".85"/><path d="m198.26 159.49c0 0 4.657 16.658 7.642 24.73 3.277 8.862 11.239 25.933 11.239 25.933l-188.68 2.937c0 0 2.453-20.546 3.556-30.835.736-6.871 2.043-20.634 2.043-20.634 82.69-.154 64.09-1.233 164.2-2.131" opacity=".75" fill="url(#0)" fill-rule="evenodd" font-size="12"/></g></g></svg>