<?xml version="1.0" encoding="UTF-8" standalone="no"?>
<!-- Created with Inkscape (http://www.inkscape.org/) -->

<svg
   xmlns:dc="http://purl.org/dc/elements/1.1/"
   xmlns:cc="http://creativecommons.org/ns#"
   xmlns:rdf="http://www.w3.org/1999/02/22-rdf-syntax-ns#"
   xmlns:svg="http://www.w3.org/2000/svg"
   xmlns="http://www.w3.org/2000/svg"
   xmlns:xlink="http://www.w3.org/1999/xlink"
   xmlns:sodipodi="http://sodipodi.sourceforge.net/DTD/sodipodi-0.dtd"
   xmlns:inkscape="http://www.inkscape.org/namespaces/inkscape"
   width="300"
   height="300"
   id="svg2"
   sodipodi:version="0.32"
   inkscape:version="0.91 r13725"
   sodipodi:docname="comment.svg"
   inkscape:output_extension="org.inkscape.output.svg.inkscape"
   version="1.0">
  <title
     id="title2992">comment</title>
  <sodipodi:namedview
     id="base"
     pagecolor="#ffffff"
     bordercolor="#666666"
     borderopacity="1.0"
     inkscape:pageopacity="0.0"
     inkscape:pageshadow="2"
     inkscape:zoom="2.41"
     inkscape:cx="11.20332"
     inkscape:cy="150"
     inkscape:document-units="px"
     inkscape:current-layer="flowRoot2997"
     showgrid="false"
     inkscape:window-width="1920"
     inkscape:window-height="996"
     inkscape:window-x="-8"
     inkscape:window-y="-8"
     width="300px"
     showguides="true"
     inkscape:guide-bbox="true"
     inkscape:window-maximized="1"
     inkscape:snap-global="false" />
  <defs
     id="defs4">
    <linearGradient
       inkscape:collect="always"
       id="linearGradient3803">
      <stop
         style="stop-color:#1a1a1a;stop-opacity:1;"
         offset="0"
         id="stop3805" />
      <stop
         style="stop-color:#1a1a1a;stop-opacity:0;"
         offset="1"
         id="stop3807" />
    </linearGradient>
    <linearGradient
       inkscape:collect="always"
       id="linearGradient3760">
      <stop
         style="stop-color:#ffffff;stop-opacity:1;"
         offset="0"
         id="stop3762" />
      <stop
         style="stop-color:#ffffff;stop-opacity:0;"
         offset="1"
         id="stop3764" />
    </linearGradient>
    <linearGradient
       inkscape:collect="always"
       id="linearGradient3790">
      <stop
         style="stop-color:#999999;stop-opacity:1;"
         offset="0"
         id="stop3792" />
      <stop
         style="stop-color:#999999;stop-opacity:0;"
         offset="1"
         id="stop3794" />
    </linearGradient>
    <linearGradient
       inkscape:collect="always"
       xlink:href="#linearGradient3790"
       id="linearGradient3796"
       x1="125.58191"
       y1="248.46169"
       x2="125.69621"
       y2="163.53564"
       gradientUnits="userSpaceOnUse"
       gradientTransform="translate(-4.3630634e-6,-6.2086031e-7)" />
    <linearGradient
       inkscape:collect="always"
       xlink:href="#linearGradient3760"
       id="linearGradient3766"
       x1="109.80101"
       y1="24.077454"
       x2="122.64867"
       y2="167.65051"
       gradientUnits="userSpaceOnUse" />
    <linearGradient
       inkscape:collect="always"
       xlink:href="#linearGradient3803"
       id="linearGradient3809"
       x1="122.73121"
       y1="237.88124"
       x2="114.17669"
       y2="9.9111176"
       gradientUnits="userSpaceOnUse" />
  </defs>
  <metadata
     id="metadata7">
    <rdf:RDF>
      <cc:Work
         rdf:about="">
        <dc:format>image/svg+xml</dc:format>
        <dc:type
           rdf:resource="http://purl.org/dc/dcmitype/StillImage" />
        <dc:title>comment</dc:title>
        <cc:license
           rdf:resource="" />
        <dc:rights>
          <cc:Agent>
            <dc:title>Martin Skilnand</dc:title>
          </cc:Agent>
        </dc:rights>
        <dc:creator>
          <cc:Agent>
            <dc:title>Martin Skilnand</dc:title>
          </cc:Agent>
        </dc:creator>
        <dc:date>2009.11.19</dc:date>
        <dc:publisher>
          <cc:Agent>
            <dc:title>Mumble team</dc:title>
          </cc:Agent>
        </dc:publisher>
        <dc:description>Icon for voice chat program mumble</dc:description>
        <dc:subject>
          <rdf:Bag>
            <rdf:li>mumble comment</rdf:li>
          </rdf:Bag>
        </dc:subject>
      </cc:Work>
    </rdf:RDF>
  </metadata>
  <g
     inkscape:groupmode="layer"
     id="layer2"
     inkscape:label="Anchor"
     style="display:inline">
    <g
       transform="matrix(1.3993386,0,0,1.2947563,-23.015006,-20.252338)"
       style="font-size:12px;font-style:normal;font-weight:normal;fill:#000000;fill-opacity:1;stroke:none;font-family:Bitstream Vera Sans"
       id="flowRoot2997">
      <path
         style="font-size:12px;font-style:normal;font-weight:normal;opacity:0.75;fill:url(#linearGradient3809);fill-opacity:1;fill-rule:evenodd;stroke:none;display:inline;font-family:Bitstream Vera Sans"
         d="m 21.737766,27.647187 l 188.556324,1.893464 c 0,0 -5.03219,50.30752 -5.03219,50.30752 c 0.30453,29.248409 -0.25054,44.925179 0.83112,74.150989 c 0.25341,6.84681 3.62671,25.64827 8.83922,37.11412 c 5.39015,11.85662 14.56531,36.48259 14.56531,36.48259 l -208.668046,3.64825 c 0,0 2.856506,-23.06307 3.776788,-34.66108 c 0.774266,-9.75783 1.146189,-17.41852 1.465287,-29.35052 c 0.133754,-5.00144 0.242215,-14.16678 0.330089,-25.4947 c 0.154393,-19.903 0.664583,-32.88525 0.717398,-55.285148 c 0.05822,-24.689726 -5.3813,-58.805485 -5.3813,-58.805485 z"
         id="rect2988-5"
         sodipodi:nodetypes="ccccsccasssc" />
      <rect
         style="opacity:0.5;fill:url(#linearGradient3766);fill-opacity:1;fill-rule:evenodd;stroke:none"
         id="rect3785"
         width="164.89101"
         height="122.53369"
         x="32.985741"
         y="32.058178" />
      <path
         style="fill:#fff37a;fill-opacity:1;fill-rule:evenodd"
         d="m 27.868122,31.581602 l 176.194228,1.359663 c 0,0 0.1608,14.813457 -1.9593,26.769624 c -2.35448,13.277915 -0.78558,73.194861 0.28191,93.921701 c 0.49535,9.61797 0.64615,19.75818 3.10061,29.1839 c 2.50296,9.612 11.66405,27.17459 11.66405,27.17459 l -188.951306,3.2537 c 0,0 1.705022,-20.53456 2.50046,-30.91253 c 0.261389,-3.41031 1.37258,-19.49254 1.826949,-29.34887 c 0.238308,-5.16944 -0.05821,-75.909583 -2.202317,-91.011824 C 28.87588,51.775741 27.868122,31.581602 27.868122,31.581602 z"
         id="rect2988"
         sodipodi:nodetypes="ccssaccsssc" />
      <g
         transform="matrix(3.2110903,-1.1505176,1.1961002,3.0887179,519.91557,-51.381238)"
         style="font-size:25px;opacity:0.85;fill:#000080;font-family:Bitstream Vera Sans"
         id="flowRoot2989">
        <path
           style="font-size:48px;font-variant:normal;font-weight:bold;font-stretch:normal;fill:#000080;font-family:Segoe Print;-inkscape-font-specification:Segoe Print Bold"
           d="m -122.45064,16.763698 c 2.62904,-0.04381 3.92192,3.976234 2.1379,4.783257 c -3.15993,3.288986 -5.32289,3.940283 -10.056,4.530948 c -3.68554,0.30242 -7.56531,-0.142712 -10.84816,-3.953347 c -1.58558,-1.655016 -3.37731,-5.993392 -3.22735,-8.114434 c 0.18121,-2.563033 0.1766,-5.43202 1.14165,-7.7598273 c 2.97201,-6.64282783 7.7165,-12.7393532 14.14199,-16.3269707 c 3.37996,-1.808288 7.62598,-3.097345 11.29468,-1.379695 c 2.43012,1.190418 4.15307,3.4179265 4.46796,6.0374161 c -0.0587,2.3661263 1.31087,3.5371097 -0.46355,4.46103077 c -1.43636,1.2055821 -3.13879,1.93367746 -3.42622,-0.29171277 c -0.2673,-2.083587 -0.4093,-3.6228499 -1.58114,-5.6144591 c -1.02348,-0.7927085 -4.57718,-0.635898 -5.71411,-0.2319041 c -4.16201,1.940751 -7.41073,5.4327835 -10.01365,9.1406327 c -2.24668,3.4838118 -4.79696,7.4782709 -4.41293,11.9518464 c -0.28666,2.863809 2.01495,5.859224 5.0168,6.584796 c 3.44996,1.287441 5.48312,1.056071 8.60298,-0.9997 l 2.93915,-2.817877 z"
           id="path2998"
           sodipodi:nodetypes="ccccsccccccccccccc" />
      </g>
      <path
         style="font-size:12px;font-style:normal;font-weight:normal;opacity:0.75;fill:url(#linearGradient3796);fill-opacity:1;fill-rule:evenodd;stroke:none;display:inline;font-family:Bitstream Vera Sans"
         d="m 198.26473,159.48709 c 0,0 4.6573,16.65816 7.64207,24.73016 c 3.27684,8.86186 11.23853,25.93283 11.23853,25.93283 l -188.682739,2.93737 c 0,0 2.45318,-20.5463 3.555748,-30.8354 c 0.73633,-6.87139 2.043174,-20.63392 2.043174,-20.63392 c 82.694757,-0.15423 64.091192,-1.23281 164.203217,-2.13104 z"
         id="rect2988-8"
         sodipodi:nodetypes="caccacc" />
    </g>
  </g>
  <g
     transform="translate(-22.223346,53.739535)"
     id="layer1"
     inkscape:groupmode="layer"
     inkscape:label="Dish"
     style="display:inline" />
</svg>
