<?xml version="1.0" encoding="UTF-8" standalone="no"?><!-- Created with Inkscape (http://www.inkscape.org/) --><svg xmlns:dc="http://purl.org/dc/elements/1.1/" xmlns:cc="http://creativecommons.org/ns#" xmlns:rdf="http://www.w3.org/1999/02/22-rdf-syntax-ns#" xmlns:svg="http://www.w3.org/2000/svg" xmlns="http://www.w3.org/2000/svg" xmlns:xlink="http://www.w3.org/1999/xlink" xmlns:sodipodi="http://sodipodi.sourceforge.net/DTD/sodipodi-0.dtd" xmlns:inkscape="http://www.inkscape.org/namespaces/inkscape" width="300" height="300" id="svg2" version="1.0"><defs><linearGradient id="1" gradientUnits="userSpaceOnUse" x1="259.43" y1="916.52" x2="198.86" y2="809.46"><stop stop-color="#808080"/><stop offset="1" stop-color="#808080" stop-opacity="0"/></linearGradient><linearGradient id="2"><stop stop-color="#999"/><stop offset="1" stop-color="#999" stop-opacity="0"/></linearGradient><linearGradient id="0" x1="79.14" y1="61.53" x2="48.888" y2="144.1" gradientUnits="userSpaceOnUse"><stop stop-color="#e6e6e6" stop-opacity=".91"/><stop offset=".583" stop-color="#eee" stop-opacity=".498"/><stop offset="1" stop-color="#ddd" stop-opacity=".247"/><stop offset="1" stop-color="#ccc" stop-opacity="0"/></linearGradient><radialGradient id="5" cx="48.548" cy="142.74" fx="48.548" fy="142.74" r="31.535" gradientTransform="matrix(1 0 0 1.63158 0-90.15)" gradientUnits="userSpaceOnUse"><stop/><stop offset="1" stop-opacity="0"/></radialGradient><radialGradient id="3" cx="120.75" cy="52.18" fx="120.75" fy="52.18" r="61.13" gradientTransform="matrix(1 0 0 .95011 2 7.129)" gradientUnits="userSpaceOnUse"><stop stop-color="#f9f9f9"/><stop offset="1" stop-color="#f9f9f9" stop-opacity="0"/></radialGradient><radialGradient xlink:href="#2" id="6" cx="38.504" cy="137.9" fx="38.504" fy="137.9" r="31.535" gradientTransform="matrix(1 0 0 1.63158 0-90.15)" gradientUnits="userSpaceOnUse"/><radialGradient xlink:href="#2" id="4" cx="76.68" cy="117.38" fx="76.68" fy="117.38" r="31.535" gradientTransform="matrix(1 0 0 1.63158 0-90.15)" gradientUnits="userSpaceOnUse"/></defs><sodipodi:namedview pagecolor="#ffffff" bordercolor="#666666" borderopacity="1.0" showgrid="false"/><metadata><rdf:RDF><cc:Work><dc:format>image/svg+xml</dc:format><dc:type rdf:resource="http://purl.org/dc/dcmitype/StillImage"/><dc:title>deafened_server</dc:title><dc:date>2009.08.17</dc:date><dc:creator><cc:Agent><dc:title>Martin Skilnand</dc:title></cc:Agent></dc:creator><dc:rights><cc:Agent><dc:title>Martin Skilnand</dc:title></cc:Agent></dc:rights><dc:publisher><cc:Agent><dc:title>Mumble team</dc:title></cc:Agent></dc:publisher><dc:subject><rdf:Bag><rdf:li>mumble deafened server</rdf:li></rdf:Bag></dc:subject><cc:license rdf:resource="BSD"/><dc:description>Icon for voice chat program mumble</dc:description><dc:identifier>deafened_server.svg</dc:identifier><dc:source>https://github.com/mumble-voip/mumble/</dc:source></cc:Work></rdf:RDF></metadata><path d="m80.08299 142.73859a31.535269 51.45228 0 1 1 -63.07054 0 31.535269 51.45228 0 1 1 63.07054 0" transform="matrix(1.6336-.28276.24191 1.39757-11.803 33.04)" fill="#999" fill-rule="evenodd"/><path d="m71.51 156.37c-1.427-9.07-5.337-31.488-1.359-53.724 3.161-17.671 12.276-35.23 24.618-45.881 27.873-24.06 81.57-14.964 81.57-14.964 0 0 20.06 6.02 35.623 22.511 8.639 9.152 16.1 22.95 17.484 37.34 3.888 40.32.922 37.902.922 37.902l-23.528-4.578-.574-27.16c0 0-2.093-17.379-10.23-32.3-7.517-13.779-24.64-23.17-33.781-24.918-17.449-3.487-29.803 2.171-43.13 12.915-4.568 4.281-8.819 9.601-11.448 15.545-3.639 8.227-7.14 23.25-8.06 37.529-1.248 19.459 5.27 39.19 5.27 39.19l-33.383.584"/><path d="m71.45 156.17c-1.427-9.07-5.337-31.488-1.359-53.724 3.161-17.671 12.276-35.23 24.618-45.881 15.192-13.11 40.16-16.53 59.16-16.548 15.866-.015 27.391 2.465 27.391 2.465-3.12.794 12.701 5.249 8.688 6.639-3.694-.059-9.484.168-17.204-.49-6.811-.58-16.861.211-19.486.618-17.514 2.715-12.625-.148-34.2 14.07-4.568 4.281-8.819 9.601-11.448 15.545-3.639 8.227-7.14 23.25-8.06 37.529-1.248 19.459 5.27 39.19 5.27 39.19l-33.383.584" opacity=".42" fill="url(#0)"/><path d="m80.08299 142.73859a31.535269 51.45228 0 1 1 -63.07054 0 31.535269 51.45228 0 1 1 63.07054 0" transform="matrix(1.6379-.25654.21947 1.40126-17.14 33.667)" fill-rule="evenodd"/><path d="m72.19 156.27c-1.427-9.07-5.337-31.488-1.359-53.724 3.161-17.671 12.276-35.23 24.618-45.881 15.192-13.11 40.16-16.53 59.16-16.548 15.866-.015 27.391 2.465 27.391 2.465-3.12.794 12.701 5.249 8.688 6.639-3.694-.059-9.484.168-17.204-.49-6.811-.58-16.861.211-19.486.618-17.514 2.715-12.625-.148-34.2 14.07-4.568 4.281-8.819 9.601-11.448 15.545-3.639 8.227-7.14 23.25-8.06 37.529-1.248 19.459 5.27 39.19 5.27 39.19l-33.383.584" opacity=".42" fill="url(#3)"/><g fill-rule="evenodd"><path d="m80.08299 142.73859a31.535269 51.45228 0 1 1 -63.07054 0 31.535269 51.45228 0 1 1 63.07054 0" transform="matrix(1.34776.1083-.12233 1.28227 162.13 8.665)"/><path d="m80.08299 142.73859a31.535269 51.45228 0 1 1 -63.07054 0 31.535269 51.45228 0 1 1 63.07054 0" transform="matrix(1.20427.10721-.10931 1.26938 155.61 12.229)" fill="#999"/><path d="m80.08299 142.73859a31.535269 51.45228 0 1 1 -63.07054 0 31.535269 51.45228 0 1 1 63.07054 0" transform="matrix(1.34776.1083-.12233 1.28227 162.08 9.12)" fill="url(#4)"/></g><g fill="#1a1a1a"><path d="m172.79 48.649c-6.811-.58-16.844.218-19.469.625-.986.153-1.679.253-2.531.375 3.61-.136 7.439.151 11.531.969 9.141 1.746 26.26 11.158 33.781 24.938 8.138 14.917 10.219 32.28 10.219 32.28l.355 25.289 11.24.909 10.216 6.797c0 0 5.264 1.172 1.376-39.15-1.388-14.393-8.861-28.19-17.5-37.34-16.989-17.796-18.822-14.302-39.22-15.688"/><path d="m80.08299 142.73859a31.535269 51.45228 0 1 1 -63.07054 0 31.535269 51.45228 0 1 1 63.07054 0" transform="matrix(.60432.11003-.10692.84398 183.98 72.898)" opacity=".726" fill-rule="evenodd"/></g><path d="m80.08299 142.73859a31.535269 51.45228 0 1 1 -63.07054 0 31.535269 51.45228 0 1 1 63.07054 0" transform="matrix(1.63793-.25654.21947 1.40126-17.08 34.06)" fill="url(#6)" fill-rule="evenodd"/><path transform="translate(0-752.36)" d="m172.92 801.01c-6.811-.58-16.844.218-19.469.625-.986.153-1.679.253-2.531.375 3.61-.136 7.439.151 11.531.969 9.141 1.746 26.26 11.158 33.781 24.938 8.138 14.917 10.219 32.28 10.219 32.28l.355 24.978 10.859 1.472 10.805 6.441c0 0 5.056 1.276 1.168-39.05-1.388-14.393-8.861-28.19-17.5-37.34-16.989-17.796-18.822-14.302-39.22-15.688" fill="url(#1)"/><g fill-rule="evenodd"><path d="m80.08299 142.73859a31.535269 51.45228 0 1 1 -63.07054 0 31.535269 51.45228 0 1 1 63.07054 0" transform="matrix(.60432.1182-.10692.90665 181.85 65.59)" opacity=".726" fill="url(#5)"/><path d="m36.35 756c-.626 0-1.259.242-1.739.722l-27.562 27.595c-.959.961-.959 2.517 0 3.478l113.27 113.43-113.79 113.96c-.959.961-.959 2.517 0 3.478l27.562 27.595c.959.961 2.519.961 3.478 0l113.76-113.96 112.71 112.87c.959.961 2.486.961 3.445 0l27.595-27.595c.959-.961.959-2.517 0-3.478l-112.71-112.87 112.19-112.35c.959-.961.959-2.485 0-3.445l-27.563-27.628c-.959-.961-2.519-.961-3.478 0l-112.19 112.35-113.27-113.43c-.48-.48-1.08-.722-1.706-.722" opacity=".6" fill="#0064ff" transform="translate(0-752.36)"/></g></svg>