<?xml version="1.0" encoding="UTF-8" standalone="no"?><!-- Created with Inkscape (http://www.inkscape.org/) --><svg xmlns:dc="http://purl.org/dc/elements/1.1/" xmlns:cc="http://creativecommons.org/ns#" xmlns:rdf="http://www.w3.org/1999/02/22-rdf-syntax-ns#" xmlns:svg="http://www.w3.org/2000/svg" xmlns="http://www.w3.org/2000/svg" xmlns:xlink="http://www.w3.org/1999/xlink" xmlns:sodipodi="http://sodipodi.sourceforge.net/DTD/sodipodi-0.dtd" xmlns:inkscape="http://www.inkscape.org/namespaces/inkscape" version="1.1" width="400" height="400" id="svg2"><metadata><rdf:RDF><cc:Work><dc:format>image/svg+xml</dc:format><dc:type rdf:resource="http://purl.org/dc/dcmitype/StillImage"/><dc:title/></cc:Work></rdf:RDF></metadata><sodipodi:namedview pagecolor="#ffffff" bordercolor="#666666" borderopacity="1" objecttolerance="10" gridtolerance="10" guidetolerance="10" showgrid="false"/><defs><linearGradient id="0"><stop stop-color="#fff"/><stop offset="1" stop-color="#fff" stop-opacity="0"/></linearGradient><radialGradient cx="317.55" cy="344.61" r="257.14" fx="317.55" fy="344.61" id="5" gradientUnits="userSpaceOnUse" gradientTransform="matrix(1 0 0 1.01111 0-6.04)"><stop stop-color="#fea"/><stop offset="1" stop-color="#fea" stop-opacity="0"/></radialGradient><radialGradient cx="608.16" cy="685.83" r="257.14" fx="608.16" fy="685.83" id="6" gradientUnits="userSpaceOnUse" gradientTransform="matrix(1 0 0 1.01111 0-6.04)"><stop stop-color="#a80"/><stop offset="1" stop-color="#fc0" stop-opacity="0"/></radialGradient><radialGradient cx="338.57" cy="162.36" r="58.57" fx="338.57" fy="162.36" id="7" gradientUnits="userSpaceOnUse" gradientTransform="matrix(1 0 0 1.34146 0-55.44)"><stop/><stop offset="1" stop-opacity="0"/></radialGradient><radialGradient cx="333.02" cy="127.22" r="58.57" fx="333.02" fy="127.22" id="4" xlink:href="#0" gradientUnits="userSpaceOnUse" gradientTransform="matrix(1 0 0 1.34146 0-55.44)"/><radialGradient cx="314.29" cy="127.22" r="58.57" fx="314.29" fy="127.22" id="8" xlink:href="#0" gradientUnits="userSpaceOnUse" gradientTransform="matrix(1 0 0 1.34146 0-55.44)"/><radialGradient cx="94.77" cy="120.23" r="53.18" fx="94.77" fy="120.23" id="1" xlink:href="#0" gradientUnits="userSpaceOnUse" gradientTransform="matrix(-2.65246-.03483-.03899 2.96928 975.28-337.56)"/><radialGradient cx="91.21" cy="129.03" r="53.18" fx="91.21" fy="129.03" id="3" xlink:href="#0" gradientUnits="userSpaceOnUse" gradientTransform="matrix(2.65246-.03483.03899 2.96928-176.25-341.6)"/><radialGradient cx="63.13" cy="117.14" r="20.708" fx="63.13" fy="117.14" id="2" xlink:href="#0" gradientUnits="userSpaceOnUse" gradientTransform="matrix(.97202-.0741.12651 1.39062-13.05-41.08)"/></defs><g transform="matrix(.55 0 0 .55-22-119.95)"><path d="m697.14285 543.79077a257.14285 260 0 1 1 -514.2857 0 257.14285 260 0 1 1 514.2857 0" transform="matrix(.875 0 0 .86538 11.429 162.29)" fill="#fd5"/><path d="m697.14285 543.79077a257.14285 260 0 1 1 -514.2857 0 257.14285 260 0 1 1 514.2857 0" transform="matrix(.875 0 0 .86538 12.143 163)" fill="url(#5)"/><path d="m697.14285 543.79077a257.14285 260 0 1 1 -514.2857 0 257.14285 260 0 1 1 514.2857 0" transform="matrix(.875 0 0 .86538 9.286 164.43)" fill="url(#6)"/><g fill="url(#7)"><path d="m397.14287 162.36218a58.57143 78.57143 0 1 1 -117.14286 0 58.57143 78.57143 0 1 1 117.14286 0" transform="matrix(1.1466 0 0 1.15428 58.17 401.48)"/><path d="m397.14287 162.36218a58.57143 78.57143 0 1 1 -117.14286 0 58.57143 78.57143 0 1 1 117.14286 0" transform="matrix(1.35687 0 0 1.2259-133.32 398.09)"/></g><path d="m326.43 509.29c-37.476 0-67.875 38.38-67.875 85.72 0 47.34 30.399 85.72 67.875 85.72 30.827 0 56.829-25.969 65.09-61.53 8.769 28.565 29.73 48.688 54.19 48.688 32.35 0 58.56-35.2 58.56-78.59 0-43.39-26.21-78.56-58.56-78.56-26.02 0-48.06 22.787-55.688 54.28-9.629-32.539-34.475-55.719-63.59-55.719" fill="#f2f2f2"/><path d="m525.36 772.16c0 34.715-57.33 62.857-128.06 62.857-70.73 0-128.06-28.14-128.06-62.857 0-19.424-76.14-119.65-47.934-108.32 22.249 8.936 96.52 48.42 176 45.46 85.76-3.187 138.85-33.988 163.76-42.42 26.07-8.82-35.702 88.93-35.702 105.28" fill="#a00"/><path d="m458.57141 453.79074a27.14286 32.857143 0 1 1 -54.28571 0 27.14286 32.857143 0 1 1 54.28571 0" transform="translate(-94.29 139.8)"/><g fill="#333"><path d="m422.92 447.89l95.5 29.665-5.933 19.1-97.19-24.21 7.628-24.557"/><path d="m362.29 446.04l-93.02 36.697 7.339 18.605 95.12-31.382-9.436-23.92"/></g><path d="m512.88 770.72c0 27.798-50.957 50.33-113.81 50.33-62.858 0-113.81-22.535-113.81-50.33 0-15.554-67.67-95.81-42.602-86.74 19.774 7.156 85.79 38.769 156.42 36.404 76.22-2.552 123.4-27.22 145.54-33.966 23.17-7.06-31.73 71.21-31.73 84.3" fill="#500"/><path d="m287.89348 754.87225a61.11423 48.992399 0 1 1 -122.22846 0 61.11423 48.992399 0 1 1 122.22846 0" transform="matrix(1.05562 0 0 .99042 160.68 23.982)" opacity=".5" fill="#f00"/><path d="m256.56 696.46c1.804 32.06 64.02 74.955 138.67 74.955 74.09 0 132.95-42.512 135.62-74.24-25.345 9.58-68.83 27.436-133.27 29.594-57.62 1.929-112.15-18.742-141.02-30.31" opacity=".2" fill="#1a1a1a"/><path d="m258.03 690.06c1.804 32.06 64.02 74.955 138.67 74.955 74.09 0 132.95-42.512 135.62-74.24-25.345 9.58-68.83 27.436-133.27 29.594-57.62 1.929-112.15-18.742-141.02-30.31" fill="#e6e6e6"/><path d="m458.57141 453.79074a27.14286 32.857143 0 1 1 -54.28571 0 27.14286 32.857143 0 1 1 54.28571 0" transform="matrix(1.32602 0 0 1.4148-125.92-50.925)"/><path d="m397.14287 162.36218a58.57143 78.57143 0 1 1 -117.14286 0 58.57143 78.57143 0 1 1 117.14286 0" transform="matrix(1.15854 0 0 1.09091-66.09 417.92)" fill="url(#4)"/><path d="m397.14287 162.36218a58.57143 78.57143 0 1 1 -117.14286 0 58.57143 78.57143 0 1 1 117.14286 0" transform="translate(107.52 426.84)" fill="url(#8)"/><g fill="#333"><path d="m258.58 689.39c7.865 13.882 64.52 37.58 139.18 37.58 74.09 0 127.39-29.38 135.12-36.861-25.345 9.58-68.83 27.436-133.27 29.594-57.62 1.929-112.15-18.742-141.02-30.31" opacity=".2"/><path opacity=".2" d="m391.07 745.37h4.643v19.643h-4.643z"/><path opacity=".2" d="m334.46 745.2h4.643v11.07h-4.643z"/><path opacity=".2" d="m446.25 739.48h4.643v20h-4.643z"/><path opacity=".2" d="m293.75 719.66h4.643v20h-4.643z"/><path opacity=".2" d="m483.75 733.05h4.643v11.07h-4.643z"/></g><path opacity=".75" fill="#782121" d="m393.45 778.61h7.07v42.43h-7.07z"/></g><g transform="matrix(.55 0 0 .55-22 128.85)"><path d="m171.04 320.8c0 0-113.45-9.528-116.31-138.3-2.778-123.31 116.31-138.3 116.31-138.3 0 0 0 276.61 0 276.61" fill="#ccc"/><path d="m168.09 315.36c0 0-103.7-9.208-106.31-133.66-2.539-119.17 106.31-133.66 106.31-133.66 0 0 0 267.32 0 267.32"/><path d="m223.23-171.2c87.35-34.33 108.85 79.939 172.43 81.39 48.2 1.1 80.69-56.32 133.41-55.674 67.49.845 99.02 183.4 99.02 183.4l-36.02 4.285c0 0-22.497-129.31-69.812-142.93-43.3-12.469-84.02 50.47-130.24 47.988-54.35-2.917-94.96-84.01-146.21-72.51-51.754 11.615-37.23 161.68-37.23 161.68l-38.639 4.648c0 0 6.583-193.92 53.29-212.28" fill="#ccc"/><path d="m225.91-162.86c85.81-33.07 106.93 77 169.38 78.4 47.35 1.059 79.27-54.25 131.06-53.628 66.3.814 97.27 176.66 97.27 176.66l-35.38 4.128c0 0-22.1-124.55-68.58-137.68-42.537-12.01-82.54 48.613-127.94 46.22-53.4-2.81-93.28-80.92-143.63-69.84-50.841 11.188-36.572 155.74-36.572 155.74l-37.958 4.477c0 0 6.467-186.79 52.35-204.48"/><path d="m162.08 36.479c0 0 23.406-10.614 36.23-10.364 10.172.198 28.19 9.328 28.19 9.328 0 0-26.14 56.627-25.355 139.37.721 76.48 18.857 149.76 18.857 149.76 0 0-14.944 10.663-24.295 11.401-11.812.932-33.634-9.328-33.634-9.328 0 0-22.499-100.75-22.15-151.63.317-46.55 22.15-138.53 22.15-138.53" fill="#b3b3b3"/><path d="m166.32 315.46c0 0-103.7-9.208-106.31-133.66-2.539-119.17 106.31-133.66 106.31-133.66 0 0 0 267.32 0 267.32" fill="url(#3)"/><path d="m165.79 40.861c0 0 18.19-10.345 28.16-10.1 7.906.193 21.914 9.09 21.914 9.09 0 0-20.314 55.19-19.707 135.83.56 74.54 14.657 145.97 14.657 145.97 0 0-11.616 10.393-18.884 11.11-9.181.908-26.14-9.09-26.14-9.09 0 0-17.487-98.19-17.218-147.79.246-45.37 17.218-135.02 17.218-135.02"/><path d="m629.56 325.45c0 0 113.45-9.528 116.31-138.3 2.778-123.31-116.31-138.3-116.31-138.3 0 0 0 276.61 0 276.61" fill="#ccc"/><path d="m632.5 320.01c0 0 103.7-9.208 106.31-133.66 2.539-119.17-106.31-133.66-106.31-133.66 0 0 0 267.32 0 267.32"/><path d="m638.51 41.12c0 0-23.406-10.614-36.23-10.364-10.172.198-28.19 9.328-28.19 9.328 0 0 26.14 56.627 25.355 139.37-.721 76.48-18.857 149.76-18.857 149.76 0 0 14.944 10.663 24.295 11.401 11.812.932 33.634-9.328 33.634-9.328 0 0 22.499-100.75 22.15-151.63-.317-46.55-22.15-138.53-22.15-138.53" fill="#b3b3b3"/><path d="m632.72 319.5c0 0 103.7-9.208 106.31-133.66 2.539-119.17-106.31-133.66-106.31-133.66 0 0 0 267.32 0 267.32" fill="url(#1)"/><path d="m634.81 45.504c0 0-18.19-10.345-28.16-10.1-7.906.193-21.914 9.09-21.914 9.09 0 0 20.314 55.19 19.707 135.83-.56 74.54-14.657 145.97-14.657 145.97 0 0 11.616 10.393 18.884 11.11 9.181.908 26.14-9.09 26.14-9.09 0 0 17.487-98.19 17.218-147.79-.246-45.37-17.218-135.02-17.218-135.02"/><g fill="url(#2)"><path d="m83.84266 117.13688a20.708128 27.27412 0 1 1 -41.41626 0 20.708128 27.27412 0 1 1 41.41626 0" transform="matrix(.72908.86452-1.25408.5026 336.23-264)" opacity=".75"/><path d="m83.84266 117.13688a20.708128 27.27412 0 1 1 -41.41626 0 20.708128 27.27412 0 1 1 41.41626 0" transform="matrix(.72908.86452-1.25408.5026 604.93-239.75)" opacity=".75"/><path d="m83.84266 117.13688a20.708128 27.27412 0 1 1 -41.41626 0 20.708128 27.27412 0 1 1 41.41626 0" transform="matrix(.99452.53839-.98376.92603 165.58-53.6)" opacity=".75"/><path d="m83.84266 117.13688a20.708128 27.27412 0 1 1 -41.41626 0 20.708128 27.27412 0 1 1 41.41626 0" transform="matrix(.31431 1.07104-1.16959.00998 727.86-19.458)" opacity=".75"/><path d="m83.84266 117.13688a20.708128 27.27412 0 1 1 -41.41626 0 20.708128 27.27412 0 1 1 41.41626 0" transform="matrix(.31431 1.07104-1.16959.00998 307.07-26.393)" opacity=".75"/></g></g></svg>