<?xml version="1.0" encoding="UTF-8" standalone="no"?>
<svg
   xmlns:dc="http://purl.org/dc/elements/1.1/"
   xmlns:cc="http://creativecommons.org/ns#"
   xmlns:rdf="http://www.w3.org/1999/02/22-rdf-syntax-ns#"
   xmlns:svg="http://www.w3.org/2000/svg"
   xmlns="http://www.w3.org/2000/svg"
   xmlns:xlink="http://www.w3.org/1999/xlink"
   xmlns:sodipodi="http://sodipodi.sourceforge.net/DTD/sodipodi-0.dtd"
   xmlns:inkscape="http://www.inkscape.org/namespaces/inkscape"
   width="744"
   height="750"
   viewBox="0 184 744 750"
   sodipodi:version="0.32"
   inkscape:version="0.91 r13725"
   inkscape:output_extension="org.inkscape.output.svg.inkscape"
   id="svg6183"
   version="1.1"
   sodipodi:docname="filter.svg">
  <defs
     id="defs4">
    <linearGradient
       inkscape:collect="always"
       id="linearGradient3202">
      <stop
         style="stop-color:#000000;stop-opacity:1;"
         offset="0"
         id="stop3204" />
      <stop
         style="stop-color:#000000;stop-opacity:0;"
         offset="1"
         id="stop3206" />
    </linearGradient>
    <linearGradient
       id="linearGradient3186">
      <stop
         style="stop-color:#2e3436;stop-opacity:1;"
         offset="0"
         id="stop3188" />
      <stop
         id="stop3196"
         offset="0.21671198"
         style="stop-color:#888a85;stop-opacity:1;" />
      <stop
         id="stop3194"
         offset="0.39369902"
         style="stop-color:#eeeeec;stop-opacity:1;" />
      <stop
         style="stop-color:#888a85;stop-opacity:1;"
         offset="0.716712"
         id="stop3198" />
      <stop
         style="stop-color:#2e3436;stop-opacity:1;"
         offset="1"
         id="stop3190" />
    </linearGradient>
    <linearGradient
       inkscape:collect="always"
       xlink:href="#linearGradient3186"
       id="linearGradient3192"
       x1="147.20779"
       y1="588.79077"
       x2="692.03229"
       y2="435.24756"
       gradientUnits="userSpaceOnUse" />
    <radialGradient
       inkscape:collect="always"
       xlink:href="#linearGradient3202"
       id="radialGradient3228"
       gradientUnits="userSpaceOnUse"
       gradientTransform="matrix(0.7909498,-0.2517358,0.1438305,0.4519132,-29.097717,123.54506)"
       cx="328.49667"
       cy="658.08899"
       fx="328.49667"
       fy="658.08899"
       r="341.42856" />
    <linearGradient
       inkscape:collect="always"
       xlink:href="#linearGradient3186"
       id="linearGradient3236"
       x1="272.75562"
       y1="722.36218"
       x2="485.42715"
       y2="722.36218"
       gradientUnits="userSpaceOnUse" />
    <radialGradient
       inkscape:collect="always"
       xlink:href="#linearGradient3202"
       id="radialGradient3315"
       gradientUnits="userSpaceOnUse"
       gradientTransform="matrix(0.7909498,-0.2517358,0.1438305,0.4519132,-29.097717,123.54506)"
       cx="328.49667"
       cy="658.08899"
       fx="328.49667"
       fy="658.08899"
       r="341.42856" />
    <linearGradient
       inkscape:collect="always"
       id="linearGradient8662">
      <stop
         style="stop-color:#000000;stop-opacity:1;"
         offset="0"
         id="stop8664" />
      <stop
         style="stop-color:#000000;stop-opacity:0;"
         offset="1"
         id="stop8666" />
    </linearGradient>
    <radialGradient
       inkscape:collect="always"
       xlink:href="#linearGradient8662"
       id="radialGradient7559"
       gradientUnits="userSpaceOnUse"
       gradientTransform="matrix(1,0,0,0.536723,0,16.87306)"
       cx="24.837126"
       cy="36.421127"
       fx="24.837126"
       fy="36.421127"
       r="15.644737" />
  </defs>
  <sodipodi:namedview
     id="base"
     pagecolor="#ffffff"
     bordercolor="#666666"
     borderopacity="1.0"
     inkscape:pageopacity="0.0"
     inkscape:pageshadow="2"
     inkscape:zoom="0.24748737"
     inkscape:cx="-2175.2538"
     inkscape:cy="621.5403"
     inkscape:document-units="px"
     inkscape:current-layer="layer1"
     showgrid="false"
     showguides="true"
     inkscape:guide-bbox="true"
     inkscape:window-width="1920"
     inkscape:window-height="996"
     inkscape:window-x="-8"
     inkscape:window-y="-8"
     inkscape:window-maximized="1">
    <sodipodi:guide
       orientation="0,1"
       position="-922.85714,940"
       id="guide3157" />
    <sodipodi:guide
       orientation="0,1"
       position="-911.42857,125.71429"
       id="guide3159" />
    <sodipodi:guide
       orientation="1,0"
       position="-28.571429,20"
       id="guide3163" />
    <sodipodi:guide
       orientation="1,0"
       position="782.85714,11.428571"
       id="guide3165" />
    <sodipodi:guide
       orientation="0,1"
       position="330,501.42857"
       id="guide3171" />
    <sodipodi:guide
       orientation="0,1"
       position="492.85714,770"
       id="guide3173" />
  </sodipodi:namedview>
  <metadata
     id="metadata7">
    <rdf:RDF>
      <cc:Work
         rdf:about="">
        <dc:format>image/svg+xml</dc:format>
        <dc:type
           rdf:resource="http://purl.org/dc/dcmitype/StillImage" />
        <dc:title>filter</dc:title>
        <dc:date>Mar 2010</dc:date>
        <dc:creator>
          <cc:Agent>
            <dc:title>Franziska Sponsel</dc:title>
          </cc:Agent>
        </dc:creator>
        <dc:rights>
          <cc:Agent>
            <dc:title>Franziska Sponsel</dc:title>
          </cc:Agent>
        </dc:rights>
        <dc:publisher>
          <cc:Agent>
            <dc:title>RRZE</dc:title>
          </cc:Agent>
        </dc:publisher>
        <dc:subject>
          <rdf:Bag>
            <rdf:li>filter</rdf:li>
            <rdf:li>search</rdf:li>
          </rdf:Bag>
        </dc:subject>
        <dc:contributor>
          <cc:Agent>
            <dc:title>Beate Kaspar</dc:title>
          </cc:Agent>
        </dc:contributor>
        <cc:license
           rdf:resource="http://creativecommons.org/licenses/by-sa/3.0/" />
      </cc:Work>
      <cc:License
         rdf:about="http://creativecommons.org/licenses/by-sa/3.0/">
        <cc:permits
           rdf:resource="http://creativecommons.org/ns#Reproduction" />
        <cc:permits
           rdf:resource="http://creativecommons.org/ns#Distribution" />
        <cc:requires
           rdf:resource="http://creativecommons.org/ns#Notice" />
        <cc:requires
           rdf:resource="http://creativecommons.org/ns#Attribution" />
        <cc:permits
           rdf:resource="http://creativecommons.org/ns#DerivativeWorks" />
        <cc:requires
           rdf:resource="http://creativecommons.org/ns#ShareAlike" />
      </cc:License>
    </rdf:RDF>
  </metadata>
  <g
     inkscape:label="Ebene 1"
     inkscape:groupmode="layer"
     id="layer1">
    <g
       id="g7561">
      <path
         transform="matrix(24.949788,0,0,8.6737161,-237.71653,532.50765)"
         style="opacity:0.29946522;fill:url(#radialGradient7559);fill-opacity:1;fill-rule:evenodd;stroke:none;stroke-width:1;stroke-linecap:butt;stroke-linejoin:miter;marker:none;marker-start:none;marker-mid:none;marker-end:none;stroke-miterlimit:10;stroke-dasharray:none;stroke-dashoffset:0;stroke-opacity:1;visibility:visible;display:inline;overflow:visible"
         sodipodi:type="arc"
         sodipodi:ry="8.3968935"
         sodipodi:rx="15.644737"
         sodipodi:cy="36.421127"
         sodipodi:cx="24.837126"
         id="path8660"
         d="M 40.481863,36.421127 A 15.644737,8.3968935 0 1 1 9.1923885,36.421127 A 15.644737,8.3968935 0 1 1 40.481863,36.421127 z" />
      <rect
         y="112.36218"
         x="-31.428572"
         height="814.28571"
         width="814.28571"
         id="rect2385"
         style="opacity:0.59999999999999998;fill:none;fill-opacity:1;stroke:none;stroke-width:22;stroke-linejoin:miter;stroke-miterlimit:4;stroke-dasharray:none;stroke-opacity:1" />
      <path
         sodipodi:nodetypes="ccccccc"
         id="path3175"
         d="M 31.428571,280.93361 L 281.42857,550.93361 L 281.42857,778.07648 C 338.34603,841.03207 397.85639,875.46572 458.57143,896.6479 L 458.57143,552.36218 L 712.85714,282.36218 L 31.428571,280.93361 z"
         style="fill:url(#linearGradient3192);fill-rule:evenodd;stroke:#2e3436;stroke-width:23;stroke-linecap:butt;stroke-linejoin:round;stroke-opacity:1;stroke-miterlimit:4;stroke-dasharray:none;fill-opacity:1" />
      <path
         sodipodi:nodetypes="ccccc"
         id="rect3169"
         d="M 282.85715,546.64789 C 347.2689,572.58649 404.13158,566.21218 457.14287,546.64789 L 457.14287,898.07645 L 282.85715,784.80609 L 282.85715,546.64789 z"
         style="opacity:0.59999999999999998;fill:url(#linearGradient3236);fill-opacity:1;stroke:none;stroke-width:22;stroke-linejoin:miter;stroke-miterlimit:4;stroke-opacity:1" />
      <path
         style="fill:none;fill-rule:evenodd;stroke:#2e3436;stroke-width:23;stroke-linecap:butt;stroke-linejoin:round;stroke-opacity:1;stroke-miterlimit:4;stroke-dasharray:none;fill-opacity:1"
         d="M 31.428571,280.93361 L 281.42857,550.93361 L 281.42857,778.07648 C 338.34603,841.03207 397.85639,875.46572 458.57143,896.6479 L 458.57143,552.36218 L 712.85714,282.36218 L 31.428571,280.93361 z"
         id="path3238"
         sodipodi:nodetypes="ccccccc" />
      <path
         sodipodi:nodetypes="cccccccccccc"
         id="path3240"
         d="M 113.68797,334.88101 C 164.14101,388.39672 197.27009,428.22253 247.5737,482.14426 C 264.00195,500.25034 283.31802,516.78604 299.20781,535.23985 C 311.99506,564.61801 301.59563,584.25709 303.20036,629.31201 C 304.27277,675.31334 302.3117,721.37023 304.15625,767.34375 C 309.13024,779.48136 321.41375,785.98935 329.74371,795.481 C 358.82636,821.41836 391.30621,844.00889 426.9375,859.90625 C 435.6415,860.74552 438.92096,849.9481 436.75,843.09375 C 436.72928,745.14647 433.61722,642.13484 435.63594,544.19924 C 446.92661,518.00759 474.39741,507.29154 491.52947,485.07719 C 544.35232,429.04229 580.25068,390.31746 632.70089,333.95536 C 404.26737,378.11653 292.58152,355.59197 113.68797,334.88101 z"
         style="fill:none;fill-opacity:1;fill-rule:evenodd;stroke:#eeeeec;stroke-width:23;stroke-linecap:butt;stroke-linejoin:miter;stroke-miterlimit:4;stroke-dasharray:none;stroke-opacity:1;opacity:0.50000000000000000" />
      <g
         id="g3280">
        <path
           sodipodi:type="arc"
           style="opacity:1;fill:#555753;fill-opacity:1;stroke:#2e3436;stroke-width:22;stroke-linejoin:miter;stroke-miterlimit:4;stroke-dasharray:none;stroke-opacity:1"
           id="path3167"
           sodipodi:cx="387.14285"
           sodipodi:cy="342.36218"
           sodipodi:rx="341.42856"
           sodipodi:ry="58.57143"
           d="M 728.57141,342.36218 A 341.42856,58.57143 0 1 1 45.714294,342.36218 A 341.42856,58.57143 0 1 1 728.57141,342.36218 z"
           transform="translate(-14.285714,-65.714286)" />
        <path
           style="opacity:0.73777448999999984;fill:url(#radialGradient3228);fill-opacity:1;stroke:none;stroke-width:22;stroke-linejoin:miter;stroke-miterlimit:4;stroke-dasharray:none;stroke-opacity:1"
           d="M 363.40625,228.15625 C 267.38859,229.58883 170.17628,233.04457 76.96875,257.8125 C 64.470665,261.91539 50.546296,266.19038 41.65625,276.25 C 42.273952,280.83957 48.535089,282.40106 51.46875,285.0625 C 71.461618,296.25564 94.60466,299.67621 116.66842,304.97567 C 194.45422,320.4017 274.04082,323.33722 353.15588,325.0228 C 447.91308,325.92307 543.20068,321.47216 636.3861,303.61278 C 659.1044,298.77639 682.58756,293.19176 702.09375,280 C 704.42441,277.96677 704.42888,274.13236 701.1875,272.90625 C 686.73346,261.66621 668.02532,258.18355 650.77867,252.98101 C 596.36295,239.88184 540.29647,235.31356 484.53439,231.29421 C 444.20803,228.87742 403.80152,227.98267 363.40625,228.15625 z"
           id="path3200" />
      </g>
      <g
         id="g3284">
        <path
           transform="translate(-14.285714,-65.714286)"
           d="M 728.57141,342.36218 A 341.42856,58.57143 0 1 1 45.714294,342.36218 A 341.42856,58.57143 0 1 1 728.57141,342.36218 z"
           sodipodi:ry="58.57143"
           sodipodi:rx="341.42856"
           sodipodi:cy="342.36218"
           sodipodi:cx="387.14285"
           id="path3286"
           style="opacity:1;fill:#555753;fill-opacity:1;stroke:#2e3436;stroke-width:22;stroke-linejoin:miter;stroke-miterlimit:4;stroke-dasharray:none;stroke-opacity:1"
           sodipodi:type="arc" />
        <path
           id="path3288"
           d="M 363.40625,228.15625 C 267.38859,229.58883 170.17628,233.04457 76.96875,257.8125 C 64.470665,261.91539 50.546296,266.19038 41.65625,276.25 C 42.273952,280.83957 48.535089,282.40106 51.46875,285.0625 C 71.461618,296.25564 94.60466,299.67621 116.66842,304.97567 C 194.45422,320.4017 274.04082,323.33722 353.15588,325.0228 C 447.91308,325.92307 543.20068,321.47216 636.3861,303.61278 C 659.1044,298.77639 682.58756,293.19176 702.09375,280 C 704.42441,277.96677 704.42888,274.13236 701.1875,272.90625 C 686.73346,261.66621 668.02532,258.18355 650.77867,252.98101 C 596.36295,239.88184 540.29647,235.31356 484.53439,231.29421 C 444.20803,228.87742 403.80152,227.98267 363.40625,228.15625 z"
           style="opacity:0.73777448999999984;fill:url(#radialGradient3228);fill-opacity:1;stroke:none;stroke-width:22;stroke-linejoin:miter;stroke-miterlimit:4;stroke-dasharray:none;stroke-opacity:1" />
      </g>
      <path
         transform="translate(-14.285714,-65.714286)"
         d="M 728.57141,342.36218 A 341.42856,58.57143 0 1 1 45.714294,342.36218 A 341.42856,58.57143 0 1 1 728.57141,342.36218 z"
         sodipodi:ry="58.57143"
         sodipodi:rx="341.42856"
         sodipodi:cy="342.36218"
         sodipodi:cx="387.14285"
         id="path3306"
         style="fill:#555753;fill-opacity:1;stroke:#2e3436;stroke-width:22;stroke-linejoin:miter;stroke-miterlimit:4;stroke-dasharray:none;stroke-opacity:1"
         sodipodi:type="arc" />
      <path
         sodipodi:nodetypes="cccccccc"
         id="path3318"
         d="M 361,240.34375 C 262.90117,241.98009 131.74243,247.76417 37.279021,276.37421 C 33.534133,276.24679 41.426457,289.39141 52.285211,297.43274 C 81.438838,308.87005 141.35663,323.53785 186.21312,326.12292 C 286.49347,340.44813 407.46514,334.4376 508.55475,331.34051 C 652.04922,314.23324 694.98928,305.70038 707.29601,279.78046 C 668.93781,263.11068 603.45651,256.40174 562.47468,250.26635 C 495.64169,242.35611 428.26208,239.9579 361,240.34375 z"
         style="fill:none;fill-opacity:1;stroke:#eeeeec;stroke-width:20;stroke-linejoin:miter;stroke-miterlimit:4;stroke-dasharray:none;stroke-opacity:1" />
      <path
         id="path3308"
         d="M 363.40625,228.15625 C 267.38859,229.58883 170.17628,233.04457 76.96875,257.8125 C 64.470665,261.91539 50.546296,266.19038 41.65625,276.25 C 42.273952,280.83957 48.535089,282.40106 51.46875,285.0625 C 71.461618,296.25564 94.60466,299.67621 116.66842,304.97567 C 194.45422,320.4017 274.04082,323.33722 353.15588,325.0228 C 447.91308,325.92307 543.20068,321.47216 636.3861,303.61278 C 659.1044,298.77639 682.58756,293.19176 702.09375,280 C 704.42441,277.96677 704.42888,274.13236 701.1875,272.90625 C 686.73346,261.66621 668.02532,258.18355 650.77867,252.98101 C 596.36295,239.88184 540.29647,235.31356 484.53439,231.29421 C 444.20803,228.87742 403.80152,227.98267 363.40625,228.15625 z"
         style="opacity:0.73777448;fill:url(#radialGradient3315);fill-opacity:1;stroke:none;stroke-width:22;stroke-linejoin:miter;stroke-miterlimit:4;stroke-dasharray:none;stroke-opacity:1" />
      <path
         sodipodi:type="arc"
         style="fill:none;fill-opacity:1;stroke:#2e3436;stroke-width:22;stroke-linejoin:miter;stroke-miterlimit:4;stroke-dasharray:none;stroke-opacity:1"
         id="path3346"
         sodipodi:cx="387.14285"
         sodipodi:cy="342.36218"
         sodipodi:rx="341.42856"
         sodipodi:ry="58.57143"
         d="M 728.57141,342.36218 A 341.42856,58.57143 0 1 1 45.714294,342.36218 A 341.42856,58.57143 0 1 1 728.57141,342.36218 z"
         transform="translate(-14.285714,-65.714286)" />
    </g>
  </g>
</svg>
