<?xml version="1.0" encoding="UTF-8" standalone="no"?><svg xmlns:dc="http://purl.org/dc/elements/1.1/" xmlns:cc="http://creativecommons.org/ns#" xmlns:rdf="http://www.w3.org/1999/02/22-rdf-syntax-ns#" xmlns:svg="http://www.w3.org/2000/svg" xmlns="http://www.w3.org/2000/svg" xmlns:xlink="http://www.w3.org/1999/xlink" xmlns:sodipodi="http://sodipodi.sourceforge.net/DTD/sodipodi-0.dtd" xmlns:inkscape="http://www.inkscape.org/namespaces/inkscape" width="744" height="750" viewBox="0 184 744 750"><defs><linearGradient id="2"><stop/><stop offset="1" stop-opacity="0"/></linearGradient><linearGradient id="3"><stop stop-color="#2e3436"/><stop offset=".217" stop-color="#888a85"/><stop offset=".394" stop-color="#eeeeec"/><stop offset=".717" stop-color="#888a85"/><stop offset="1" stop-color="#2e3436"/></linearGradient><linearGradient xlink:href="#3" id="1" x1="147.21" y1="588.79" x2="692.03" y2="435.25" gradientUnits="userSpaceOnUse"/><linearGradient xlink:href="#3" id="0" x1="272.76" y1="722.36" x2="485.43" y2="722.36" gradientUnits="userSpaceOnUse"/><radialGradient xlink:href="#2" id="4" gradientUnits="userSpaceOnUse" gradientTransform="matrix(.79095-.25174.14383.45191-29.1 123.55)" cx="328.5" cy="658.09" fx="328.5" fy="658.09" r="341.43"/><radialGradient xlink:href="#2" id="5" gradientUnits="userSpaceOnUse" gradientTransform="matrix(1 0 0 .53672 0 16.873)" cx="24.837" cy="36.421" fx="24.837" fy="36.421" r="15.645"/></defs><sodipodi:namedview pagecolor="#ffffff" bordercolor="#666666" borderopacity="1.0" showgrid="false" showguides="true"><sodipodi:guide orientation="0,1" position="-922.85714,940"/><sodipodi:guide orientation="0,1" position="-911.42857,125.71429"/><sodipodi:guide orientation="1,0" position="-28.571429,20"/><sodipodi:guide orientation="1,0" position="782.85714,11.428571"/><sodipodi:guide orientation="0,1" position="330,501.42857"/><sodipodi:guide orientation="0,1" position="492.85714,770"/></sodipodi:namedview><metadata><rdf:RDF><cc:Work><dc:format>image/svg+xml</dc:format><dc:type rdf:resource="http://purl.org/dc/dcmitype/StillImage"/><dc:title>filter</dc:title><dc:date>Mar 2010</dc:date><dc:creator><cc:Agent><dc:title>Franziska Sponsel</dc:title></cc:Agent></dc:creator><dc:rights><cc:Agent><dc:title>Franziska Sponsel</dc:title></cc:Agent></dc:rights><dc:publisher><cc:Agent><dc:title>RRZE</dc:title></cc:Agent></dc:publisher><dc:subject><rdf:Bag><rdf:li>filter</rdf:li><rdf:li>search</rdf:li></rdf:Bag></dc:subject><dc:contributor><cc:Agent><dc:title>Beate Kaspar</dc:title></cc:Agent></dc:contributor><cc:license rdf:resource="http://creativecommons.org/licenses/by-sa/3.0/"/></cc:Work><cc:License rdf:about="http://creativecommons.org/licenses/by-sa/3.0/"><cc:permits rdf:resource="http://creativecommons.org/ns#Reproduction"/><cc:permits rdf:resource="http://creativecommons.org/ns#Distribution"/><cc:requires rdf:resource="http://creativecommons.org/ns#Notice"/><cc:requires rdf:resource="http://creativecommons.org/ns#Attribution"/><cc:permits rdf:resource="http://creativecommons.org/ns#DerivativeWorks"/><cc:requires rdf:resource="http://creativecommons.org/ns#ShareAlike"/></cc:License></rdf:RDF></metadata><g fill-rule="evenodd"><path transform="matrix(24.94979 0 0 8.67372-237.72 532.51)" d="M40.481863 36.421127A15.644737 8.396894 0 1 1 9.192389 36.421127 15.644737 8.396894 0 1 1 40.481863 36.421127" marker="none" opacity=".299" stroke-miterlimit="10" fill="url(#5)"/><path d="m31.429 280.93l250 270v227.14c56.917 62.956 116.43 97.39 177.14 118.57v-344.29l254.29-270-681.43-1.429z" fill="url(#1)" stroke="#2e3436" stroke-linejoin="round" stroke-width="23"/></g><path d="m282.86 546.65c64.41 25.939 121.27 19.564 174.29 0v351.43l-174.29-113.27v-238.16" opacity=".6" fill="url(#0)" stroke-width="22"/><g fill="none" fill-rule="evenodd" stroke-width="23"><path d="m31.429 280.93l250 270v227.14c56.917 62.956 116.43 97.39 177.14 118.57v-344.29l254.29-270-681.43-1.429z" stroke="#2e3436" stroke-linejoin="round"/><path d="m113.69 334.88c50.45 53.52 83.58 93.34 133.89 147.26 16.428 18.11 35.744 34.642 51.634 53.1 12.787 29.378 2.388 49.02 3.993 94.07 1.072 46-.889 92.06.956 138.03 4.974 12.138 17.257 18.646 25.587 28.14 29.08 25.937 61.56 48.53 97.19 64.43 8.704.839 11.983-9.958 9.813-16.813-.021-97.95-3.133-200.96-1.114-298.89 11.291-26.19 38.761-36.908 55.894-59.12 52.823-56.03 88.72-94.76 141.17-151.12-228.43 44.16-340.12 21.637-519.01.926z" opacity=".5" stroke="#eeeeec"/></g><g stroke-width="22"><path d="M728.57141 342.36218A341.42856 58.57143 0 1 1 45.714294 342.36218 341.42856 58.57143 0 1 1 728.57141 342.36218z" transform="translate(-14.286-65.71)" fill="#555753" stroke="#2e3436"/><path d="m363.41 228.16c-96.02 1.433-193.23 4.888-286.44 29.656-12.498 4.103-26.422 8.378-35.31 18.438.618 4.59 6.879 6.151 9.813 8.813 19.993 11.193 43.14 14.614 65.2 19.913 77.79 15.426 157.37 18.362 236.49 20.05 94.76.9 190.04-3.551 283.23-21.41 22.718-4.836 46.2-10.421 65.71-23.613 2.331-2.033 2.335-5.868-.906-7.094-14.454-11.24-33.16-14.723-50.41-19.925-54.42-13.1-110.48-17.667-166.24-21.687-40.33-2.417-80.73-3.312-121.13-3.138" opacity=".738" fill="url(#4)"/><path transform="translate(-14.286-65.71)" d="M728.57141 342.36218A341.42856 58.57143 0 1 1 45.714294 342.36218 341.42856 58.57143 0 1 1 728.57141 342.36218z" fill="#555753" stroke="#2e3436"/><path d="m363.41 228.16c-96.02 1.433-193.23 4.888-286.44 29.656-12.498 4.103-26.422 8.378-35.31 18.438.618 4.59 6.879 6.151 9.813 8.813 19.993 11.193 43.14 14.614 65.2 19.913 77.79 15.426 157.37 18.362 236.49 20.05 94.76.9 190.04-3.551 283.23-21.41 22.718-4.836 46.2-10.421 65.71-23.613 2.331-2.033 2.335-5.868-.906-7.094-14.454-11.24-33.16-14.723-50.41-19.925-54.42-13.1-110.48-17.667-166.24-21.687-40.33-2.417-80.73-3.312-121.13-3.138" opacity=".738" fill="url(#4)"/><path transform="translate(-14.286-65.71)" d="M728.57141 342.36218A341.42856 58.57143 0 1 1 45.714294 342.36218 341.42856 58.57143 0 1 1 728.57141 342.36218z" fill="#555753" stroke="#2e3436"/></g><path d="m361 240.34c-98.1 1.636-229.26 7.42-323.72 36.03-3.745-.127 4.147 13.02 15.01 21.06 29.15 11.437 89.07 26.11 133.93 28.69 100.28 14.325 221.25 8.315 322.34 5.218 143.49-17.11 186.43-25.64 198.74-51.56-38.36-16.67-103.84-23.379-144.82-29.514-66.833-7.91-134.21-10.308-201.47-9.923z" fill="none" stroke="#eeeeec" stroke-width="20"/><g stroke-width="22"><path d="m363.41 228.16c-96.02 1.433-193.23 4.888-286.44 29.656-12.498 4.103-26.422 8.378-35.31 18.438.618 4.59 6.879 6.151 9.813 8.813 19.993 11.193 43.14 14.614 65.2 19.913 77.79 15.426 157.37 18.362 236.49 20.05 94.76.9 190.04-3.551 283.23-21.41 22.718-4.836 46.2-10.421 65.71-23.613 2.331-2.033 2.335-5.868-.906-7.094-14.454-11.24-33.16-14.723-50.41-19.925-54.42-13.1-110.48-17.667-166.24-21.687-40.33-2.417-80.73-3.312-121.13-3.138" opacity=".738" fill="url(#4)"/><path d="M728.57141 342.36218A341.42856 58.57143 0 1 1 45.714294 342.36218 341.42856 58.57143 0 1 1 728.57141 342.36218z" transform="translate(-14.286-65.71)" fill="none" stroke="#2e3436"/></g></svg>