<?xml version="1.0" encoding="UTF-8" standalone="no"?><!-- Created with Inkscape (http://www.inkscape.org/) --><svg xmlns:svg="http://www.w3.org/2000/svg" xmlns="http://www.w3.org/2000/svg" version="1.0" width="64" height="64" id="svg2383"><g stroke-linejoin="round" stroke-linecap="round" stroke-width=".227"><path d="m13.627 45.32l-10.409-.048v-17.362-17.362h14.364 14.364v17.455 17.455l-3.955-.044c-2.175-.024-8.639-.066-14.364-.092z" fill="#afdde9" stroke="#afdde9"/><path d="m33.13 30.09v-19.545h14.181 14.181v19.545 19.545h-14.181-14.181v-19.545z" fill="#37c8ab" stroke="#37c8ab"/><path d="m3.218 47.971v-1.666l6.03.12c3.316.066 9.78.12 14.364.12h8.334v1.545 1.545h-14.364-14.364v-1.666z" fill="#3771c8" stroke="#3771c8"/></g><g font-family="Bitstream Vera Sans"><text x="9.455" y="49.27" font-size="3.5"><tspan x="9.455" y="49.27">Chatbar</tspan></text><text x="-43" y="51.744" transform="matrix(0-1 1 0 0 0)" font-size="12"><tspan x="-43" y="51.744">Tree</tspan></text></g><g fill="none" stroke="#000"><path stroke-linejoin="round" stroke-linecap="round" stroke-width="1.247" d="m2.545 9.818h59.64v40.545h-59.64z"/><g fill-rule="evenodd"><path d="m32.545 50.18v-40.36"/><path d="m2.545 45.818l30 .182"/></g></g><text x="-37.823" y="20.562" transform="matrix(0-1 1 0 0 0)" font-family="Bitstream Vera Sans" font-size="12"><tspan x="-37.823" y="20.562">Log</tspan></text></svg>