<?xml version="1.0" encoding="UTF-8" standalone="no"?><!-- Created with Inkscape (http://www.inkscape.org/) --><svg xmlns:svg="http://www.w3.org/2000/svg" xmlns="http://www.w3.org/2000/svg" version="1.0" width="64" height="64" id="svg2383"><g stroke-linejoin="round" stroke-linecap="round"><path d="m13.627 45.32l-10.409-.048v-17.362-17.362h14.364 14.364v17.455 17.455l-3.955-.044c-2.175-.024-8.639-.066-14.364-.092z" fill="#afdde9" stroke="#afdde9" stroke-width=".227"/><path d="m33.12 27.966v-17.426h14.188 14.188v17.426 17.426h-14.188-14.188v-17.426z" fill="#37c8ab" stroke="#37c8ab" stroke-width=".215"/><path d="m3.264 47.974v-1.624l12.22.117c6.721.065 19.821.117 29.11.117h16.89v1.506 1.506h-29.11-29.11v-1.624z" fill="#3771c8" stroke="#3771c8" stroke-width=".319"/></g><g font-family="Bitstream Vera Sans"><text x="25.767" y="49.34" font-size="3.5"><tspan x="25.767" y="49.34">Chatbar</tspan></text><g font-size="12" transform="matrix(0-1 1 0 0 0)"><text x="-43" y="51.744"><tspan x="-43" y="51.744">Tree</tspan></text><text x="-38.31" y="20.852"><tspan x="-38.31" y="20.852">Log</tspan></text></g></g><g fill="none" stroke="#000"><path stroke-linejoin="round" stroke-linecap="round" stroke-width="1.247" d="m2.545 9.818h59.64v40.545h-59.64z"/><g fill-rule="evenodd"><path d="m32.545 45.86v-36.09" stroke-width=".946"/><path d="m2.583 45.856l59.17.107" stroke-width="1.075"/></g></g></svg>