<?xml version="1.0" encoding="UTF-8" standalone="no"?><!-- Created with Inkscape (http://www.inkscape.org/) --><svg xmlns:svg="http://www.w3.org/2000/svg" xmlns="http://www.w3.org/2000/svg" version="1.0" width="64" height="64" id="svg4960"><g stroke-linejoin="round" stroke-linecap="round" stroke-width=".227"><path d="m28.21 35.863l-13.182-.048v-16.09-16.09h18.337 18.337v16.182 16.182l-5.154-.044c-2.835-.024-11.09-.066-18.337-.092z" fill="#37c8ab" stroke="#37c8ab"/><path d="m28.1 55.32l-13.1-.048v-9.21-9.21l7.7.121c4.235.066 12.494.121 18.353.121h10.653v9.182 9.182l-5.25-.044c-2.888-.024-11.146-.066-18.353-.092z" fill="#afdde9" stroke="#afdde9"/><path d="m15.03 57.88v-1.575l7.524.12c4.138.066 12.388.12 18.332.12h10.808v1.454 1.454h-18.332-18.332v-1.575z" fill="#3771c8" stroke="#3771c8"/></g><g font-family="Bitstream Vera Sans"><g font-size="12"><text x="20.18" y="23.455"><tspan x="20.18" y="23.455">Tree</tspan></text><text x="22.18" y="49.818"><tspan x="22.18" y="49.818">Log</tspan></text></g><text x="25.636" y="59.09" font-size="3.5"><tspan x="25.636" y="59.09">Chatbar</tspan></text></g><g fill="none" stroke="#000"><path stroke-linejoin="round" stroke-linecap="round" stroke-width="1.247" d="m14.364 2.909h38v57.27h-38z"/><g fill-rule="evenodd"><path d="m14.364 36.36l37.818.182"/><path d="m14.182 55.818l38 .182"/></g></g></svg>