/* XPM */
static char *mumble[] = {
/* columns rows colors chars-per-pixel */
"32 32 5 1",
"  c black",
". c #808080",
"X c gray78",
"o c gray100",
"O c None",
/* pixels */
"OOOOOOOOooooooooooooooooOOOOOOOO",
"OOOOOOoooo. oooooooo .ooooOOOOOO",
"OOOOOooo.    oooooo    .oooOOOOO",
"OOOOooo.     oooooo     .oooOOOO",
"OOOoooo  .o  XooooX  o.  ooooOOO",
"OOooooX  Xo  .oooo.  oX  XooooOO",
"Oooooo.  oo  .oooo.  oo  .oooooO",
"Oooooo  .oo  .oooo.  oo.  oooooO",
"oooooo  Xoo  .oooo.  ooX  oooooo",
"oooooo  ooo  .oooo.  ooo  oooooo",
"oooooo  ooo  .oooo.  ooo  oooooo",
"oooooo  ooo  .oooo.  ooo  oooooo",
"oooooX   ooo  ....  ooo   Xooooo",
"oooo  XX. ooo      ooo .XX  oooo",
"ooo XX..  oooooooooooo  ..XX ooo",
"ooX ..    oooooooooooo    .. Xoo",
"oo X.     o          o     .X oo",
"oo .      o          o      . oo",
"oX .      o oo  o oo o      . Xo",
"o .       o o o o o  o       . o",
"o .       o oo  o oo o       . o",
"o         o o o o o  o         o",
"o         o o o o o  o         o",
"oo        o ooo oooo o        oo",
"oo        o          o        oo",
"Oo        o          o        oO",
"Ooo       oooooooooooo       ooO",
"OOo       oooooooooooo       oOO",
"OOOo      oooo.  .oooo      oOOO",
"OOOOoo   ooooo    oooo.   ooOOOO",
"OOOOOooooooooo.        XoooOOOOO",
"OOOOOOOooooooooooooooooooOOOOOOO"
};
