<?xml version="1.0" encoding="UTF-8" standalone="no"?><!-- Created with Inkscape (http://www.inkscape.org/) --><svg xmlns:dc="http://purl.org/dc/elements/1.1/" xmlns:cc="http://creativecommons.org/ns#" xmlns:rdf="http://www.w3.org/1999/02/22-rdf-syntax-ns#" xmlns:svg="http://www.w3.org/2000/svg" xmlns="http://www.w3.org/2000/svg" xmlns:xlink="http://www.w3.org/1999/xlink" xmlns:sodipodi="http://sodipodi.sourceforge.net/DTD/sodipodi-0.dtd" xmlns:inkscape="http://www.inkscape.org/namespaces/inkscape" width="400" height="400" id="svg2" version="1.0"><defs><linearGradient id="1"><stop stop-color="#969696"/><stop offset="1" stop-color="#e6e6e6" stop-opacity="0"/></linearGradient><linearGradient id="2"><stop stop-color="#b3b3b3"/><stop offset="1" stop-color="#b3b3b3" stop-opacity="0"/></linearGradient><linearGradient id="0"><stop stop-color="#afafaf"/><stop offset="1" stop-color="#e6e6e6" stop-opacity="0"/></linearGradient><radialGradient id="9" cx="333.53" cy="217.58" fx="333.53" fy="217.58" r="29.875" gradientTransform="matrix(-.95122-.37973-.79005 1.97905 561.78-104.78)" gradientUnits="userSpaceOnUse"><stop stop-color="#e6e6e6"/><stop offset="1" stop-color="#e6e6e6" stop-opacity="0"/></radialGradient><radialGradient id="A" cx="206.64" cy="214.43" fx="206.64" fy="214.43" r="190.25" gradientTransform="matrix(.97267.01618-.01666.97474 9.219 2.074)" gradientUnits="userSpaceOnUse"><stop stop-opacity="0"/><stop offset=".817" stop-opacity=".02"/><stop offset=".899" stop-opacity=".145"/><stop offset=".912" stop-opacity=".208"/><stop offset=".956" stop-opacity=".251"/><stop offset="1" stop-opacity=".333"/></radialGradient><radialGradient id="B" cx="172.61" cy="303.21" fx="172.61" fy="303.21" r="22.63" gradientTransform="matrix(1 0 0 .63329 0 119.5)" gradientUnits="userSpaceOnUse"><stop stop-color="#999"/><stop offset="1" stop-color="#999" stop-opacity="0"/></radialGradient><radialGradient r="38.625" fy="25.979" fx="250.46" cy="25.979" cx="250.46" gradientTransform="matrix(-1.18645.79501.21181.31609 435.39-174.97)" gradientUnits="userSpaceOnUse" id="C" xlink:href="#0"/><radialGradient r="103.52" fy="230.12" fx="458.03" cy="230.12" cx="458.03" gradientTransform="matrix(.41734-.01064.00888.3481 9.439 55.32)" gradientUnits="userSpaceOnUse" id="8"><stop stop-color="#bebebe"/><stop offset="1" stop-color="#b3b3b3" stop-opacity="0"/></radialGradient><radialGradient r="38.625" fy="25.979" fx="250.46" cy="25.979" cx="250.46" gradientTransform="matrix(1.18645.79501-.21181.31609-32.887-175.82)" gradientUnits="userSpaceOnUse" id="7" xlink:href="#0"/><radialGradient xlink:href="#2" id="3" cx="248.86" cy="217.68" fx="248.86" fy="217.68" r="16.697" gradientTransform="matrix(1 0 0 1.49816 0-108.44)" gradientUnits="userSpaceOnUse"/><radialGradient xlink:href="#1" id="D" cx="335.09" cy="219.04" fx="335.09" fy="219.04" r="29.875" gradientTransform="matrix(.54659-.27741.64049 1.262 11.608 18.445)" gradientUnits="userSpaceOnUse"/><radialGradient r="29.875" fy="219.04" fx="335.09" cy="219.04" cx="335.09" gradientTransform="matrix(-.54659-.27741-.64049 1.262 394.97 17.341)" gradientUnits="userSpaceOnUse" id="4" xlink:href="#1"/><radialGradient xlink:href="#2" id="6" cx="212.03" cy="217.68" fx="212.03" fy="217.68" r="16.494" gradientTransform="matrix(1 0 0 1.51661 0-112.46)" gradientUnits="userSpaceOnUse"/><radialGradient xlink:href="#2" id="5" cx="171.23" cy="217.68" fx="171.23" fy="217.68" r="19.572" gradientTransform="matrix(1 0 0 1.2781 0-60.54)" gradientUnits="userSpaceOnUse"/></defs><sodipodi:namedview pagecolor="#ffffff" bordercolor="#666666" borderopacity="1.0" showgrid="false"/><metadata><rdf:RDF><cc:Work><dc:format>image/svg+xml</dc:format><dc:type rdf:resource="http://purl.org/dc/dcmitype/StillImage"/><dc:title>Mumble logo</dc:title><dc:date>2009.08.17</dc:date><dc:creator><cc:Agent><dc:title>Martin Skilnand</dc:title></cc:Agent></dc:creator><dc:rights><cc:Agent><dc:title>Martin Skilnand</dc:title></cc:Agent></dc:rights><dc:publisher><cc:Agent><dc:title>Mumble team</dc:title></cc:Agent></dc:publisher><dc:identifier>mumble.svg</dc:identifier><dc:source>https://github.com/mumble-voip/mumble/</dc:source><dc:description>Logo for voice chat program mumble</dc:description><cc:license rdf:resource="BSD"/></cc:Work></rdf:RDF></metadata><path d="m385.62 214.43c0 96.12-80.13 174.05-178.98 174.05-98.85 0-178.98-77.924-178.98-174.05 0-96.12 80.13-174.05 178.98-174.05 98.85 0 178.98 77.924 178.98 174.05z" transform="matrix(1.0811 0 0 1.10435-22.438-34.386)" fill="#1a1a1a" stroke="#000" stroke-linejoin="round" stroke-width="4.576"/><g fill="#fff"><path d="m385.62 214.43c0 96.12-80.13 174.05-178.98 174.05-98.85 0-178.98-77.924-178.98-174.05 0-96.12 80.13-174.05 178.98-174.05 98.85 0 178.98 77.924 178.98 174.05" transform="matrix(1.04227 0 0 1.0695-13.736-29.618)" opacity=".9"/><path d="m385.62 214.43c0 96.12-80.13 174.05-178.98 174.05-98.85 0-178.98-77.924-178.98-174.05 0-96.12 80.13-174.05 178.98-174.05 98.85 0 178.98 77.924 178.98 174.05z" transform="matrix(1.06413 0 0 1.07868-20.794-31.718)" stroke="#333" stroke-linejoin="round" stroke-width="1.413"/></g><path d="m385.62 214.43c0 96.12-80.13 174.05-178.98 174.05-98.85 0-178.98-77.924-178.98-174.05 0-96.12 80.13-174.05 178.98-174.05 98.85 0 178.98 77.924 178.98 174.05z" transform="matrix(1.08566 0 0 1.10901-24.345-36.15)" fill="none" stroke="#000" stroke-linejoin="round" stroke-width="1.83"/><path d="m385.62498 214.43469a178.98123 174.04742 0 1 1 -357.96246 0 178.98123 174.04742 0 1 1 357.96246 0" transform="matrix(1.07649 0 0 1.10093-20.514-34.696)" opacity=".75" fill="url(#A)"/><g fill-rule="evenodd"><path d="m152.41 31.61c-24.652-.615-49.623 15.705-55.853 40.13-1.451 5.92-2.043 11.533-2.147 17.251 0 21.21 0 42.42 0 63.62 8.333 0 16.667 0 25 0 .088-22.382-.127-44.644.17-67.07.769-14.243 11.773-29.26 27.05-29.08.112 22.669-.229 45.35.18 68.01 1.303 18.426 18.762 33.676 37.24 32.11 11.546-.28 23.18.673 34.648-.725 17.466-3.274 29.553-21.06 27.929-38.449 0-20.286 0-40.571 0-60.857 15.888-1.16 27.938 14.263 28.642 29.08.295 22.427.082 44.692.17 67.07 8.333 0 16.667 0 25 0 0-22.5 0-45 0-67.5-.818-7.276-1.972-16.18-5.915-23.2-10.229-20.751-34.15-31.948-56.717-30.26-6.591-.837-13.681 3.62-15.487 9.867.109 26.739.186 53.49-.015 80.22-.753 11.2-11.79 19.764-22.805 18.342-7.792.339-16.594.014-21.908-6.682-7.162-7.57-4.763-18.405-5.184-27.812.019-21.719-.071-43.42.125-65.1-3.259-6.591-10.503-9.994-17.679-8.912l-1.188-.016-1.258-.04z" transform="matrix(1.05 0 0 1.05-5.356.51)" stroke="#fff"/><path d="m107.27 156.26v177.84c-35.13-3.853-62.737-42.19-62.737-88.92 0-46.734 27.609-85.07 62.737-88.92" opacity=".967" fill="url(#9)"/><g stroke="#fff"><g transform="matrix(1.05 0 0 1.05-5.356.51)"><path d="m290.42 313.16c-.699-.007-3.311-.575-3.94-.167 0 0-1.036 3.02-4.604 5.673-3.133 2.331-6.108 4.566-9.295 6.663-2.862 1.882-5.933 3.918-8.81 5.302-2.264 1.09-4.114 1.248-4.114 1.248h-32.22c-2.01 0-3.662 1.587-3.662 3.563v.875c0 1.975 1.649 3.594 3.662 3.594h33.879c.78 0 3.597-.82 5.272-1.555 4.177-1.833 6.899-4.166 11.71-7.03 5.114-3.271 14.573-10.886 14.573-10.886 1.68-1.088 2.128-3.289 1.019-4.938l-.478-.75c-.693-1.03-1.828-1.582-2.993-1.594z"/><path d="m288.25 148.44v169.38c33.455-3.67 59.75-40.18 59.75-84.69 0-44.508-26.295-81.02-59.75-84.69z" opacity=".967"/><path d="m106.22 149.34v169.38c-33.455-3.67-59.75-40.18-59.75-84.69 0-44.508 26.295-81.02 59.75-84.69z" opacity=".967"/></g><path d="m194.74412 325.86444a22.13001 13.831259 0 1 1 -44.26003 0 22.13001 13.831259 0 1 1 44.26003 0z" transform="matrix(1.30479 0 0 1.21464-20.461-43.8)" opacity=".967"/><rect width="13.329" height="171.95" x="274.72" y="146.09" rx="3.888" ry="3.54" transform="matrix(1.04333 0 0 1.05002-4.656.095)" opacity=".967" stroke-width="1.054"/><rect width="13.06" height="171.96" x="106.56" y="147.08" rx="3.81" ry="3.54" transform="matrix(1.04333 0 0 1.05002-3.835.095)" opacity=".967" stroke-width="1.043"/></g><path d="m131.64 188.83h140.84v111.89h-140.84z"/></g><g font-family="Tahoma" text-anchor="middle" text-align="center" font-weight="bold" font-size="64"><path d="m189.84 226.69c0 2.313-.438 4.344-1.313 6.094-.875 1.75-2.052 3.198-3.531 4.344-1.75 1.375-3.672 2.354-5.766 2.938-2.094.583-4.755.875-7.984.875h-18.625v-46.531h16.438c3.417 0 6.01.13 7.766.391 1.76.26 3.411.807 4.953 1.641 1.667.896 2.911 2.094 3.734 3.594.823 1.5 1.234 3.229 1.234 5.188 0 2.271-.568 4.292-1.703 6.06-1.135 1.771-2.703 3.073-4.703 3.906v.25c2.875.604 5.177 1.839 6.906 3.703 1.729 1.865 2.594 4.38 2.594 7.547m-14.969-19.12c0-.75-.193-1.521-.578-2.313-.385-.792-.984-1.365-1.797-1.719-.771-.333-1.682-.516-2.734-.547-1.052-.031-2.62-.047-4.703-.047h-.813v9.844h1.469c2 0 3.401-.021 4.203-.063.802-.042 1.63-.26 2.484-.656.937-.437 1.583-1.042 1.938-1.813.354-.771.531-1.667.531-2.688m2.938 18.906c0-1.437-.292-2.562-.875-3.375-.583-.812-1.458-1.427-2.625-1.844-.708-.271-1.682-.422-2.922-.453-1.24-.031-2.901-.047-4.984-.047h-2.156v11.656h.625c3.042 0 5.146-.021 6.313-.063 1.167-.042 2.354-.323 3.563-.844 1.062-.458 1.839-1.13 2.328-2.02.49-.885.734-1.891.734-3.02" transform="matrix(1.10072 0 0 2.0001-23.812-190.28)" fill="url(#5)"/><path d="m189.84 226.69c0 2.313-.438 4.344-1.313 6.094-.875 1.75-2.052 3.198-3.531 4.344-1.75 1.375-3.672 2.354-5.766 2.938-2.094.583-4.755.875-7.984.875h-18.625v-46.531h16.438c3.417 0 6.01.13 7.766.391 1.76.26 3.411.807 4.953 1.641 1.667.896 2.911 2.094 3.734 3.594.823 1.5 1.234 3.229 1.234 5.188 0 2.271-.568 4.292-1.703 6.06-1.135 1.771-2.703 3.073-4.703 3.906v.25c2.875.604 5.177 1.839 6.906 3.703 1.729 1.865 2.594 4.38 2.594 7.547m-14.969-19.12c0-.75-.193-1.521-.578-2.313-.385-.792-.984-1.365-1.797-1.719-.771-.333-1.682-.516-2.734-.547-1.052-.031-2.62-.047-4.703-.047h-.813v9.844h1.469c2 0 3.401-.021 4.203-.063.802-.042 1.63-.26 2.484-.656.937-.437 1.583-1.042 1.938-1.813.354-.771.531-1.667.531-2.688m2.938 18.906c0-1.437-.292-2.562-.875-3.375-.583-.812-1.458-1.427-2.625-1.844-.708-.271-1.682-.422-2.922-.453-1.24-.031-2.901-.047-4.984-.047h-2.156v11.656h.625c3.042 0 5.146-.021 6.313-.063 1.167-.042 2.354-.323 3.563-.844 1.062-.458 1.839-1.13 2.328-2.02.49-.885.734-1.891.734-3.02" transform="matrix(1.10072 0 0 2.0001-28.29-190.6)" fill="#fff"/><path d="m227.56 240.94h-31.06v-46.531h11.688v37.656h19.375z" transform="matrix(1.10072 0 0 2.0001-23.812-190.28)" fill="url(#6)"/></g><path d="m187.31 197.56v94.53h14.13.063 21.375v-19.25h-21.375v-75.28h-14.188" fill="#fff"/><path d="m233.13 240.94v-46.531h31.469v8.875h-19.844v8.156h18.281v8.875h-18.281v11.75h19.844v8.875z" transform="matrix(1.10072 0 0 2.0001-23.812-190.28)" fill="url(#3)" font-family="Tahoma" text-anchor="middle" text-align="center" font-weight="bold" font-size="64"/><path d="m227.81 197.5v94.53h14.188 21.375v-19.25h-21.375v-22.281h19.656v-18.656h-19.656v-15.09h21.375v-19.25h-21.375-.063-14.12" fill="#fff"/><g fill-rule="evenodd"><path d="m155.37 33.01c-25.884-.646-52.1 16.49-58.645 42.13-1.524 6.216-2.145 12.11-2.255 18.11 0 22.268 0 44.536 0 66.804 8.75 0 17.5 0 26.25 0 .093-23.501-.133-46.876.179-70.43.807-14.955 12.362-30.721 28.401-30.539.118 23.802-.241 47.619.189 71.41 1.368 19.347 19.7 35.36 39.11 33.72 12.12-.294 24.337.707 36.38-.761 18.339-3.438 31.03-22.12 29.325-40.37 0-21.3 0-42.6 0-63.9 16.682-1.218 29.334 14.976 30.07 30.539.31 23.549.087 46.927.179 70.43 8.75 0 17.5 0 26.25 0 0-23.625 0-47.25 0-70.875-.859-7.64-2.07-16.989-6.211-24.358-10.74-21.789-35.861-33.545-59.55-31.774-6.921-.879-14.365 3.801-16.261 10.36.114 28.08.195 56.16-.016 84.23-.791 11.76-12.38 20.752-23.945 19.259-8.182.355-17.423.014-23-7.02-7.52-7.949-5-19.326-5.443-29.2.02-22.805-.075-45.589.131-68.36-3.422-6.921-11.03-10.493-18.563-9.358l-1.247-.017-1.321-.042" fill="url(#8)"/><path d="m154.53 34.27c-31.655 0-56.17 21.233-59.981 48.759h26.972c3.645-12.426 13.11-21.517 24.511-22.575.74-.7 1.772-1.148 2.92-1.148h26.611l.098-15.619c0 0-2.378-3.725-4.298-5.48-2.175-1.988-5.112-3.428-8.01-3.741-2.425-.262-5.2-.041-8.827-.197" fill="url(#C)"/><path d="m194.74412 325.86444a22.13001 13.831259 0 1 1 -44.26003 0 22.13001 13.831259 0 1 1 44.26003 0" transform="matrix(1.30479 0 0 1.21464-20.434-43.907)" opacity=".967" fill="url(#B)"/><path d="m298.66 157.26v177.84c35.13-3.853 62.738-42.19 62.738-88.92 0-46.734-27.609-85.07-62.738-88.92" opacity=".967" fill="url(#D)"/><path d="m247.97 33.422c31.655 0 56.17 21.233 59.981 48.759h-26.972c-3.645-12.426-13.11-21.517-24.511-22.575-.74-.7-1.772-1.148-2.92-1.148h-26.611l-.098-15.619c0 0 2.378-3.725 4.298-5.48 2.175-1.988 5.112-3.428 8.01-3.741 2.425-.262 5.2-.041 8.827-.197" fill="url(#7)"/><path d="m107.92 156.15v177.84c-35.13-3.853-62.737-42.19-62.737-88.92 0-46.734 27.609-85.07 62.737-88.92" opacity=".967" fill="url(#4)"/></g></svg>