<?xml version="1.0" encoding="UTF-8"?>
<!-- MUMBLE-TFAR: Storm of The Galaxy emblem (clone-trooper helmet, 501st blue).
     Generated to match scripts/generate-branding.py — keep the two in sync. -->
<svg xmlns="http://www.w3.org/2000/svg" width="512" height="512" viewBox="0 0 100 100">
  <defs>
    <linearGradient id="wall" x1="0" y1="0" x2="0" y2="1">
      <stop offset="0" stop-color="#0d1b3a"/>
      <stop offset="1" stop-color="#070e20"/>
    </linearGradient>
    <clipPath id="rc">
      <rect x="0" y="0" width="100" height="100" rx="14" ry="14"/>
    </clipPath>
  </defs>

  <g clip-path="url(#rc)">
    <!-- panelled wall -->
    <rect x="0" y="0" width="100" height="100" fill="url(#wall)"/>
    <g fill="#040916">
      <rect x="15.6" y="0" width="2.2" height="100"/>
      <rect x="32.2" y="0" width="2.2" height="100"/>
      <rect x="48.9" y="0" width="2.2" height="100"/>
      <rect x="65.6" y="0" width="2.2" height="100"/>
      <rect x="82.2" y="0" width="2.2" height="100"/>
    </g>
    <rect x="70" y="0" width="9" height="45" fill="#17466e"/>
    <rect x="72" y="0" width="5" height="42" fill="#265aa0"/>

    <!-- dome (drawn first, the jaw covers its lower arc) -->
    <ellipse cx="50" cy="40.32" rx="33.12" ry="22.32" fill="#eceff4" stroke="#c4cad4" stroke-width="0.9"/>
    <!-- dome fin (blue stripe) -->
    <polygon points="47.02,18.2 52.98,18.2 51.99,39.6 48.01,39.6" fill="#2b5ccd"/>
    <polygon points="48.01,19.6 51.99,19.6 51.32,37.4 48.68,37.4" fill="#1c3c8c"/>
    <!-- helmet: jaw -->
    <polygon points="18.87,48.24 81.13,48.24 76.50,74.16 63.25,90 36.75,90 23.50,74.16"
             fill="#eceff4" stroke="#c4cad4" stroke-width="0.8"/>
    <!-- T-visor -->
    <polygon points="25.49,48.24 74.51,48.24 70.53,56.16 55.96,53.28 44.04,53.28 29.47,56.16"
             fill="#181c26"/>
    <polygon points="44.04,53.28 55.96,53.28 52.65,79.92 47.35,79.92" fill="#181c26"/>
    <!-- cheek tick marks -->
    <g fill="#2b5ccd">
      <polygon points="61.26,62.64 63.58,62.64 64.90,69.84 62.58,69.84"/>
      <polygon points="66.23,62.64 68.55,62.64 69.87,69.84 67.55,69.84"/>
      <polygon points="71.20,62.64 73.52,62.64 74.84,69.84 72.52,69.84"/>
      <polygon points="38.74,62.64 36.42,62.64 35.10,69.84 37.42,69.84"/>
      <polygon points="33.77,62.64 31.45,62.64 30.13,69.84 32.45,69.84"/>
      <polygon points="28.80,62.64 26.48,62.64 25.16,69.84 27.48,69.84"/>
    </g>
    <!-- chin vents -->
    <g fill="#181c26">
      <polygon points="56.62,81.36 62.59,79.20 61.26,85.68 55.96,87.12"/>
      <polygon points="43.38,81.36 37.41,79.20 38.74,85.68 44.04,87.12"/>
    </g>
    <!-- ear discs -->
    <circle cx="21.19" cy="51.84" r="3.6" fill="#2b5ccd" stroke="#1c3c8c" stroke-width="0.8"/>
    <circle cx="78.81" cy="51.84" r="3.6" fill="#2b5ccd" stroke="#1c3c8c" stroke-width="0.8"/>
  </g>
</svg>
