<?xml version="1.0" encoding="UTF-8" standalone="no"?><!-- Created with Inkscape (http://www.inkscape.org/) --><svg xmlns:dc="http://purl.org/dc/elements/1.1/" xmlns:cc="http://creativecommons.org/ns#" xmlns:rdf="http://www.w3.org/1999/02/22-rdf-syntax-ns#" xmlns:svg="http://www.w3.org/2000/svg" xmlns="http://www.w3.org/2000/svg" xmlns:xlink="http://www.w3.org/1999/xlink" xmlns:sodipodi="http://sodipodi.sourceforge.net/DTD/sodipodi-0.dtd" xmlns:inkscape="http://www.inkscape.org/namespaces/inkscape" width="400" height="400" id="svg2" version="1.0"><defs><radialGradient id="0" cx="333.53" cy="217.58" fx="333.53" fy="217.58" r="29.875" gradientTransform="matrix(-.95122-.37973-.79005 1.97905 561.78-104.78)" gradientUnits="userSpaceOnUse"><stop stop-color="#e6e6e6"/><stop offset="1" stop-color="#e6e6e6" stop-opacity="0"/></radialGradient></defs><sodipodi:namedview pagecolor="#ffffff" bordercolor="#666666" borderopacity="1.0" showgrid="false"/><metadata><rdf:RDF><cc:Work><dc:format>image/svg+xml</dc:format><dc:type rdf:resource="http://purl.org/dc/dcmitype/StillImage"/><dc:title>Mumble logo</dc:title><dc:date>2009.08.17</dc:date><dc:creator><cc:Agent><dc:title>Martin Skilnand</dc:title></cc:Agent></dc:creator><dc:rights><cc:Agent><dc:title>Martin Skilnand</dc:title></cc:Agent></dc:rights><dc:publisher><cc:Agent><dc:title>Mumble team</dc:title></cc:Agent></dc:publisher><dc:identifier>mumble.svg</dc:identifier><dc:source>https://github.com/mumble-voip/mumble/</dc:source><dc:description>Logo for voice chat program mumble</dc:description><cc:license rdf:resource="BSD"/></cc:Work></rdf:RDF></metadata><path d="m385.62498 214.43469a178.98123 174.04742 0 1 1 -357.96246 0 178.98123 174.04742 0 1 1 357.96246 0" transform="matrix(1.0811 0 0 1.10435-22.438-34.386)" fill="#fff" stroke-linejoin="round" stroke-width="4.576"/><g fill-rule="evenodd"><path d="m152.41 31.61c-24.652-.615-49.623 15.705-55.853 40.13-1.451 5.92-2.043 11.533-2.147 17.251 0 21.21 0 42.42 0 63.62 8.333 0 16.667 0 25 0 .088-22.382-.127-44.644.17-67.07.769-14.243 11.773-29.26 27.05-29.08.112 22.669-.229 45.35.18 68.01 1.303 18.426 18.762 33.676 37.24 32.11 11.546-.28 23.18.673 34.648-.725 17.466-3.274 29.553-21.06 27.929-38.449 0-20.286 0-40.571 0-60.857 15.888-1.16 27.938 14.263 28.642 29.08.295 22.427.082 44.692.17 67.07 8.333 0 16.667 0 25 0 0-22.5 0-45 0-67.5-.818-7.276-1.972-16.18-5.915-23.2-10.229-20.751-34.15-31.948-56.717-30.26-6.591-.837-13.681 3.62-15.487 9.867.109 26.739.186 53.49-.015 80.22-.753 11.2-11.79 19.764-22.805 18.342-7.792.339-16.594.014-21.908-6.682-7.162-7.57-4.763-18.405-5.184-27.812.019-21.719-.071-43.42.125-65.1-3.259-6.591-10.503-9.994-17.679-8.912l-1.188-.016-1.258-.04z" transform="matrix(1.05 0 0 1.05-5.356.51)" stroke="#fff"/><path d="m107.27 156.26v177.84c-35.13-3.853-62.737-42.19-62.737-88.92 0-46.734 27.609-85.07 62.737-88.92" opacity=".967" fill="url(#0)"/><g stroke="#fff"><g transform="matrix(1.05 0 0 1.05-5.356.51)"><path d="m290.42 313.16c-.699-.007-3.311-.575-3.94-.167 0 0-1.036 3.02-4.604 5.673-3.133 2.331-6.108 4.566-9.295 6.663-2.862 1.882-5.933 3.918-8.81 5.302-2.264 1.09-4.114 1.248-4.114 1.248h-32.22c-2.01 0-3.662 1.587-3.662 3.563v.875c0 1.975 1.649 3.594 3.662 3.594h33.879c.78 0 3.597-.82 5.272-1.555 4.177-1.833 6.899-4.166 11.71-7.03 5.114-3.271 14.573-10.886 14.573-10.886 1.68-1.088 2.128-3.289 1.019-4.938l-.478-.75c-.693-1.03-1.828-1.582-2.993-1.594z"/><path d="m288.25 148.44v169.38c33.455-3.67 59.75-40.18 59.75-84.69 0-44.508-26.295-81.02-59.75-84.69z" opacity=".967"/><path d="m106.22 149.34v169.38c-33.455-3.67-59.75-40.18-59.75-84.69 0-44.508 26.295-81.02 59.75-84.69z" opacity=".967"/></g><path d="m194.74412 325.86444a22.13001 13.831259 0 1 1 -44.26003 0 22.13001 13.831259 0 1 1 44.26003 0z" transform="matrix(1.30479 0 0 1.21464-20.461-43.8)" opacity=".967"/><rect width="13.329" height="171.95" x="274.72" y="146.09" rx="3.888" ry="3.54" transform="matrix(1.04333 0 0 1.05002-4.656.095)" opacity=".967" stroke-width="1.054"/><rect width="13.06" height="171.96" x="106.56" y="147.08" rx="3.81" ry="3.54" transform="matrix(1.04333 0 0 1.05002-3.835.095)" opacity=".967" stroke-width="1.043"/></g></g></svg>