<?xml version="1.0" encoding="UTF-8" standalone="no"?><!-- Created with Inkscape (http://www.inkscape.org/) --><svg xmlns:dc="http://purl.org/dc/elements/1.1/" xmlns:cc="http://creativecommons.org/ns#" xmlns:rdf="http://www.w3.org/1999/02/22-rdf-syntax-ns#" xmlns:svg="http://www.w3.org/2000/svg" xmlns="http://www.w3.org/2000/svg" xmlns:xlink="http://www.w3.org/1999/xlink" xmlns:sodipodi="http://sodipodi.sourceforge.net/DTD/sodipodi-0.dtd" xmlns:inkscape="http://www.inkscape.org/namespaces/inkscape" width="300" height="300" id="svg2" version="1.0"><sodipodi:namedview pagecolor="#ffffff" bordercolor="#666666" borderopacity="1.0" showgrid="true" width="300" showguides="true"><inkscape:grid type="xygrid"/></sodipodi:namedview><defs><filter id="0" height="1.5" width="1.5" y="-.25" x="-.25"><feGaussianBlur stdDeviation="5" in="SourceAlpha" result="result1"/><feComposite operator="arithmetic" k2="3.2" k3="0" k1="-1" k4="-2" result="result3" in2="result1"/><feColorMatrix values="1 0 0 0 0 0 1 0 0 0 0 0 1 0 0 0 0 0 10 0 " result="result2"/><feComposite result="fbSourceGraphic" in="SourceGraphic" operator="out" in2="result2"/><feGaussianBlur in="fbSourceGraphic" stdDeviation=".01" result="result4"/><feComposite operator="out" in="fbSourceGraphic" in2="result4" result="result5"/><feBlend blend="normal" mode="multiply" in="result1" in2="result5" result="result6"/><feBlend blend="normal" mode="screen" in="result4" in2="result6"/></filter><linearGradient id="2" x1="288.96" y1="147.3" x2="8.967" y2="140.25" gradientUnits="userSpaceOnUse"><stop stop-color="#3f3f3f"/><stop offset="1" stop-color="#747474" stop-opacity="0"/></linearGradient><linearGradient id="3"><stop stop-color="#4d4d4d"/><stop offset="1" stop-color="#4d4d4d" stop-opacity="0"/></linearGradient><linearGradient id="1"><stop stop-color="#ccc"/><stop offset="1" stop-color="#b4b4b4" stop-opacity="0"/></linearGradient><radialGradient id="7" cx="77.915" cy="206.04" fx="77.915" fy="206.04" r="44.733" gradientTransform="matrix(.8489 0 0 .26721 10.645 184.45)" gradientUnits="userSpaceOnUse"><stop/><stop offset="1" stop-opacity="0"/></radialGradient><radialGradient xlink:href="#3" id="6" cx="77.72" cy="253.97" fx="77.72" fy="253.97" r="44.733" gradientTransform="matrix(1 0 0 .26721 0 176.36)" gradientUnits="userSpaceOnUse"/><radialGradient xlink:href="#1" id="4" cx="77.18" cy="240.66" fx="77.18" fy="240.66" r="44.733" gradientTransform="matrix(1 0 0 .26721 0 176.36)" gradientUnits="userSpaceOnUse"/><radialGradient xlink:href="#3" id="8" cx="79.44" cy="268.73" fx="79.44" fy="268.73" r="44.733" gradientTransform="matrix(1 0 0 .26721 0 176.36)" gradientUnits="userSpaceOnUse"/><radialGradient xlink:href="#1" id="5" cx="77.18" cy="240.66" fx="77.18" fy="240.66" r="43.983" gradientTransform="matrix(1 0 0 .25472 0 179.36)" gradientUnits="userSpaceOnUse"/></defs><metadata><rdf:RDF><cc:Work><dc:format>image/svg+xml</dc:format><dc:type rdf:resource="http://purl.org/dc/dcmitype/StillImage"/><dc:title>muted_self</dc:title><cc:license rdf:resource="BSD"/><dc:rights><cc:Agent><dc:title>Martin Skilnand</dc:title></cc:Agent></dc:rights><dc:creator><cc:Agent><dc:title>Martin Skilnand</dc:title></cc:Agent></dc:creator><dc:date>2009.08.17</dc:date><dc:publisher><cc:Agent><dc:title>Mumble team</dc:title></cc:Agent></dc:publisher><dc:description>Icon for voice chat program mumble</dc:description><dc:subject><rdf:Bag><rdf:li>mumble muted self</rdf:li></rdf:Bag></dc:subject><dc:source>https://github.com/mumble-voip/mumble/</dc:source><dc:identifier>muted_self.svg</dc:identifier></cc:Work></rdf:RDF></metadata><g transform="translate(-22.22 53.74)"><g fill-rule="evenodd"><path d="m240.66 129.88c0 24.75-46.536 44.813-103.94 44.813-57.41 0-103.94-20.06-103.94-44.813 0-24.75 46.536-44.813 103.94-44.813 57.41 0 103.94 20.06 103.94 44.813" transform="matrix(1.28772 0 0 1.33616-1.335-85.48)" fill="#1a1a1a" filter="url(#0)"/><path transform="matrix(1.84628 0 0 3.24528 46.812-286.96)" d="m123.24 107.37c0 4.984-24.987 9.02-55.809 9.02-30.823 0-55.809-4.04-55.809-9.02 0-4.984 24.987-9.02 55.809-9.02 30.823 0 55.809 4.04 55.809 9.02" fill="#fff"/><g fill="#ffe6d5" stroke="#916f6f"><g stroke-width="1.402"><rect width="39.04" height="40.29" x="168.93" y="55.13" ry="4.515" transform="matrix(.9996-.02815.02172.99976 0 0)" opacity=".6" rx="4.515"/><rect width="39.04" height="40.29" x="-173.61" y="46" ry="4.515" transform="matrix(-.9996-.02815-.02172.99976 0 0)" opacity=".6" rx="4.515"/></g><rect width="31.14" height="39.915" x="203.64" y="67.94" ry="4.473" transform="matrix(.99556-.09412.06318.998 0 0)" opacity=".6" stroke-width="1.246" rx="4.473"/><rect width="27.979" height="39.71" x="227.08" y="102.48" ry="4.45" transform="matrix(.96591-.25886.15165.98843 0 0)" opacity=".6" stroke-width="1.178" rx="4.45"/><rect width="31.14" height="39.915" x="-138.4" y="34.902" ry="4.473" transform="matrix(-.99556-.09412-.06318.998 0 0)" opacity=".6" stroke-width="1.246" rx="4.473"/><rect width="27.979" height="39.71" x="-113" y="13.94" ry="4.45" transform="matrix(-.96591-.25886-.15165.98843 0 0)" opacity=".6" stroke-width="1.178" rx="4.45"/></g><path d="m121.16 240.66c0 6.187-19.692 11.203-43.983 11.203-24.291 0-43.983-5.02-43.983-11.203 0-6.187 19.692-11.203 43.983-11.203 24.291 0 43.983 5.02 43.983 11.203" transform="matrix(2.65343 0 0 1.07637-29.66-201.16)" opacity=".76" fill="url(#7)"/><path d="m72.33 26.623c-28.332 15.884-42.23 46.882-42.23 60.23 0 24.809 20.688 46.749 45.45 71.55 17.728 17.756 30.813 23.287 59.45 27.767 14.695 2.298 52.04 1.913 62.7.939 39.641-3.581 51.27-8.701 69.2-24.773 25.869-23.2 48.35-49.985 48.35-75.48.444-4.777-10.545-43.14-43.15-59.07-24.407-11.924-58.23-27.508-75.54-25.11-20.71 2.865-28.506 2.606-48.984-.234-20.2-2.127-56.962 13.607-75.24 24.19m119.81 31.918c7.209-1.088 16.274-3.706 30.448-2.745 1.059.072 26.822 3.835 36.465 7.094 33.601 11.356 44.575 19.482 44.17 21.439 0 10.443-10.153 14.195-32.24 25.611-8.9 4.6-25.753 14.169-44.25 13.898-20.938-.306-41.19 2.958-39.796 3.744-14.53 2.794-13.154 3.194-25.407.378-5.35-1.997-18.922-5.293-45.874-3.689-10.761.641-22.42-4.344-40.477-16.32-22.757-15.09-29.731-11.122-29.731-21.285 0-5.468 12.342-15.425 37.744-23.01 6.451-1.927 33.629-7.439 33.869-7.08 14.969-1.803 27.65 1.132 35.17 1.909 15.42 2.359 24.958 2.147 39.908.053" fill="#969696"/></g><path d="m129.31 82.987l13.394-6.981"/></g><g fill-rule="evenodd"><path d="m49.861 80.56c-28.332 15.884-42.23 46.882-42.23 60.23 0 24.809 20.688 46.749 45.45 71.55 17.728 17.756 30.813 23.287 59.45 27.767 14.695 2.298 52.04 1.913 62.7.939 39.641-3.581 51.27-8.701 69.2-24.773 25.869-23.2 48.35-49.985 48.35-75.48.444-4.777-10.545-43.14-43.15-59.07-24.407-11.924-58.23-27.508-75.54-25.11-20.71 2.865-28.506 2.606-48.984-.234-20.2-2.127-56.962 13.607-75.24 24.19m119.81 31.918c7.209-1.088 16.274-3.706 30.448-2.745 1.059.072 26.822 3.835 36.465 7.094 33.601 11.356 44.575 19.482 44.17 21.439 0 10.443-10.153 14.195-32.24 25.612-8.9 4.6-25.753 14.169-44.25 13.898-20.938-.306-41.19 2.958-39.796 3.744-14.53 2.794-13.154 3.194-25.407.378-5.35-1.997-18.922-5.293-45.874-3.689-10.761.641-22.42-4.344-40.477-16.32-22.757-15.09-29.731-11.122-29.731-21.285 0-5.468 12.342-15.425 37.744-23.01 6.451-1.927 33.629-7.439 33.869-7.08 14.969-1.803 27.65 1.132 35.17 1.909 15.42 2.359 24.958 2.147 39.908.053" fill="url(#2)"/><g fill="url(#4)"><path d="m121.16182 240.66389a43.983402 11.20332 0 1 1 -87.966801 0 43.983402 11.20332 0 1 1 87.966801 0" transform="matrix(1.09842 0 0 1.42894 24.426-148.35)" opacity=".85"/><path d="m121.16182 240.66389a43.983402 11.20332 0 1 1 -87.966801 0 43.983402 11.20332 0 1 1 87.966801 0" transform="matrix(1.09842 0 0 1.42894 101.91-148.35)"/></g><path d="m121.16182 240.66389a43.983402 11.20332 0 1 1 -87.966801 0 43.983402 11.20332 0 1 1 87.966801 0" transform="matrix(1.09985 0 0 1.10675 63.899-165.14)" opacity=".76" fill="url(#8)"/><path d="m121.16182 240.66389a43.983402 11.20332 0 1 1 -87.966801 0 43.983402 11.20332 0 1 1 87.966801 0" transform="matrix(1.08069.25387-.1976 1.38838 159.87-270.24)" fill="url(#5)"/><path d="m121.16182 240.66389a43.983402 11.20332 0 1 1 -87.966801 0 43.983402 11.20332 0 1 1 87.966801 0" transform="matrix(-1.08069.25387.1976 1.38838 137.64-270.1)" fill="url(#4)"/><path d="m121.16182 240.66389a43.983402 11.20332 0 1 1 -87.966801 0 43.983402 11.20332 0 1 1 87.966801 0" transform="matrix(1.42321 0 0 .7117 41.3 61.854)" opacity=".76" fill="url(#6)"/><path d="m36.17 4.303c-.626 0-1.259.242-1.739.722l-27.562 27.595c-.959.961-.959 2.517 0 3.478l113.27 113.43-113.79 113.96c-.959.961-.959 2.517 0 3.478l27.562 27.595c.959.961 2.519.961 3.478 0l113.76-113.96 112.71 112.87c.959.961 2.486.961 3.445 0l27.595-27.595c.959-.961.959-2.517 0-3.478l-112.71-112.87 112.19-112.35c.959-.961.959-2.485 0-3.445l-27.563-27.628c-.959-.961-2.519-.961-3.478 0l-112.19 112.35-113.27-113.43c-.48-.48-1.08-.722-1.706-.722" opacity=".6" fill="#ff0505"/></g></svg>