<?xml version="1.0" encoding="UTF-8" standalone="no"?><!-- Created with Inkscape (http://www.inkscape.org/) --><svg xmlns:dc="http://purl.org/dc/elements/1.1/" xmlns:cc="http://creativecommons.org/ns#" xmlns:rdf="http://www.w3.org/1999/02/22-rdf-syntax-ns#" xmlns:svg="http://www.w3.org/2000/svg" xmlns="http://www.w3.org/2000/svg" xmlns:xlink="http://www.w3.org/1999/xlink" xmlns:sodipodi="http://sodipodi.sourceforge.net/DTD/sodipodi-0.dtd" xmlns:inkscape="http://www.inkscape.org/namespaces/inkscape" width="520" height="520" id="svg2" version="1.1"><defs><radialGradient id="0" cx="395.71" cy="576.65" fx="395.71" fy="576.65" r="250" gradientUnits="userSpaceOnUse"><stop stop-color="#ff0"/><stop offset=".2" stop-color="#ff1d00" stop-opacity=".788"/><stop offset=".412" stop-color="#f00"/><stop offset=".474" stop-color="#ff5324"/><stop offset=".474" stop-color="#d60000"/><stop offset=".576" stop-color="#d40000"/><stop offset=".888"/><stop offset="1"/></radialGradient><radialGradient id="1" cx="391.43" cy="592.36" fx="391.43" fy="592.36" r="297.06" gradientTransform="matrix(1 0 0 1.0096 0-5.697)" gradientUnits="userSpaceOnUse"><stop stop-color="#969696"/><stop offset=".535" stop-color="#c8c8c8"/><stop offset=".948" stop-color="#fff"/><stop offset="1" stop-color="#646464"/></radialGradient></defs><sodipodi:namedview pagecolor="#ffffff" bordercolor="#666666" borderopacity="1.0" showgrid="false"/><metadata><rdf:RDF><cc:Work><dc:format>image/svg+xml</dc:format><dc:type rdf:resource="http://purl.org/dc/dcmitype/StillImage"/><dc:title/></cc:Work></rdf:RDF></metadata><path d="m645.71 576.65c0 138.07-111.93 250-250 250-138.07 0-250-111.93-250-250 0-138.07 111.93-250 250-250 138.07 0 250 111.93 250 250" fill="url(#0)" transform="translate(-136.19-316.83)"/><path d="m680 592.36c0 160.95-129.2 291.43-288.57 291.43-159.37 0-288.57-130.48-288.57-291.43 0-160.95 129.2-291.43 288.57-291.43 159.37 0 288.57 130.48 288.57 291.43z" transform="matrix(.87537 0 0 .86679-82.65-253.46)" fill="none" stroke="url(#1)" stroke-width="16.972"/></svg>