<?xml version="1.0" encoding="utf-8"?>
<!-- Generator: Adobe Illustrator 17.0.0, SVG Export Plug-In . SVG Version: 6.00 Build 0)  -->
<!DOCTYPE svg PUBLIC "-//W3C//DTD SVG 1.1//EN" "http://www.w3.org/Graphics/SVG/1.1/DTD/svg11.dtd">
<svg version="1.1"
	 id="svg16168" xmlns:inkscape="http://www.inkscape.org/namespaces/inkscape" xmlns:svg="http://www.w3.org/2000/svg" xmlns:cc="http://creativecommons.org/ns#" xmlns:dc="http://purl.org/dc/elements/1.1/" xmlns:sodipodi="http://sodipodi.sourceforge.net/DTD/sodipodi-0.dtd" xmlns:rdf="http://www.w3.org/1999/02/22-rdf-syntax-ns#" sodipodi:version="0.32" inkscape:version="0.46" inkscape:output_extension="org.inkscape.output.svg.inkscape" sodipodi:docname="image-x-generic.svg" sodipodi:docbase="/home/jimmac/src/cvs/tango-icon-theme/scalable/mimetypes"
	 xmlns="http://www.w3.org/2000/svg" xmlns:xlink="http://www.w3.org/1999/xlink" x="0px" y="0px" width="48px" height="48px"
	 viewBox="0 0 48 48" enable-background="new 0 0 48 48" xml:space="preserve">
<path opacity="0.85" fill="#EA4335" enable-background="new    " d="M31.744,26.685c0,4.281-3.463,7.744-7.744,7.744
	s-7.744-3.463-7.744-7.744s3.463-7.744,7.744-7.744S31.744,22.404,31.744,26.685z"/>
<path opacity="0.85" fill="#EA4335" enable-background="new    " d="M44.4,12.045H32.52v-3.27c0-1.26-1.03-2.29-2.3-2.29H17.77
	c-1.27,0-2.29,1.03-2.29,2.29v3.27H3.6c-1.48,0-2.68,1.2-2.68,2.68v24.12c0,1.48,1.2,2.67,2.68,2.67h40.8
	c1.48,0,2.68-1.19,2.68-2.67v-24.12C47.08,13.245,45.88,12.045,44.4,12.045z M24,37.615c-6.04,0-10.94-4.89-10.94-10.92
	c0-6.05,4.9-10.94,10.94-10.94s10.94,4.89,10.94,10.94C34.94,32.725,30.04,37.615,24,37.615z"/>
</svg>
