<?xml version="1.0" encoding="utf-8"?>
<!-- Generator: Adobe Illustrator 17.0.0, SVG Export Plug-In . SVG Version: 6.00 Build 0)  -->
<!DOCTYPE svg PUBLIC "-//W3C//DTD SVG 1.1//EN" "http://www.w3.org/Graphics/SVG/1.1/DTD/svg11.dtd">
<svg version="1.1" id="Layer_1" xmlns="http://www.w3.org/2000/svg" xmlns:xlink="http://www.w3.org/1999/xlink" x="0px" y="0px"
	 width="141.732px" height="141.732px" viewBox="0 0 141.732 141.732" enable-background="new 0 0 141.732 141.732"
	 xml:space="preserve">
<path opacity="0.85" fill="#EA4335" enable-background="new    " d="M123.948,60.605c0-16.148-12.967-29.239-28.964-29.239
	c-10.538,0-19.758,5.682-24.826,14.175C65.09,37.048,55.869,31.366,45.33,31.366c-15.998,0.001-28.964,13.09-28.964,29.239
	c0,8.402,3.518,15.973,9.141,21.306h-0.008l41.467,40.055c0.761,0.923,1.902,1.511,3.18,1.511c1.185,0,2.251-0.507,3.005-1.317
	l41.668-40.249h-0.013C120.433,76.578,123.948,69.009,123.948,60.605"/>
</svg>
