<?xml version="1.0" encoding="UTF-8" standalone="no"?><!-- Created with Inkscape (http://www.inkscape.org/) --><svg xmlns:dc="http://purl.org/dc/elements/1.1/" xmlns:cc="http://creativecommons.org/ns#" xmlns:rdf="http://www.w3.org/1999/02/22-rdf-syntax-ns#" xmlns:svg="http://www.w3.org/2000/svg" xmlns="http://www.w3.org/2000/svg" xmlns:xlink="http://www.w3.org/1999/xlink" xmlns:sodipodi="http://sodipodi.sourceforge.net/DTD/sodipodi-0.dtd" xmlns:inkscape="http://www.inkscape.org/namespaces/inkscape" width="48" height="48" id="svg11300" version="1.1"><defs><linearGradient id="4"><stop stop-color="#fff"/><stop offset="1" stop-color="#fff" stop-opacity="0"/></linearGradient><linearGradient id="3"><stop/><stop offset="1" stop-opacity="0"/></linearGradient><linearGradient xlink:href="#4" id="5" x1="16.438" y1="49.11" x2="17.402" y2="43.42" gradientUnits="userSpaceOnUse"/><linearGradient id="0" x1="41.25" y1="36.69" x2="48.25" y2="35.69" gradientUnits="userSpaceOnUse"><stop stop-color="#c6c6c6"/><stop offset="1" stop-color="#c6c6c6" stop-opacity="0"/></linearGradient><linearGradient id="2" x1="18.329" y1="15.323" x2="14.406" y2="14.05" gradientUnits="userSpaceOnUse"><stop/><stop offset="1" stop-opacity=".485"/></linearGradient><linearGradient xlink:href="#3" id="1" x1="25.16" y1="15.804" x2="33.969" y2="20.438" gradientUnits="userSpaceOnUse"/><radialGradient id="9" cx="33.5" cy="21.434" fx="33.5" fy="21.434" r=".988" gradientUnits="userSpaceOnUse"><stop stop-color="#d5d5d5"/><stop offset="1" stop-color="#747474"/></radialGradient><radialGradient xlink:href="#3" id="A" cx="25.19" cy="41" fx="25.19" fy="41" r="16.438" gradientTransform="matrix(1 0 0 .42586 0 23.54)" gradientUnits="userSpaceOnUse"/><radialGradient id="8" cx="15.438" cy="42.09" fx="15.438" fy="42.09" r="11.188" gradientTransform="matrix(1 0 0 .52514 0 22.02)" gradientUnits="userSpaceOnUse"><stop stop-color="#b0b0b0"/><stop offset="1" stop-color="#747474"/></radialGradient><radialGradient xlink:href="#4" id="6" cx="20.275" cy="5.712" fx="20.275" fy="5.712" r="12.494" gradientTransform="matrix(2.53075 0 0 2.29601-31.04-6.7)" gradientUnits="userSpaceOnUse"/><radialGradient id="7" cx="19.557" cy="6.644" fx="19.557" fy="6.644" r="10.989" gradientTransform="matrix(1.49192-.08445-.05874 3.98672-9.647-20.276)" gradientUnits="userSpaceOnUse"><stop stop-color="#d5d5d5"/><stop offset="1" stop-color="#a0a0a0"/></radialGradient></defs><sodipodi:namedview stroke="#ef2929" fill="#eeeeec" pagecolor="#ffffff" bordercolor="#666666" borderopacity="0.25490196" showgrid="false"/><metadata><rdf:RDF><cc:Work><dc:format>image/svg+xml</dc:format><dc:type rdf:resource="http://purl.org/dc/dcmitype/StillImage"/><dc:creator><cc:Agent><dc:title>Jakub Steiner</dc:title></cc:Agent></dc:creator><dc:source>http://jimmac.musichall.cz</dc:source><cc:license rdf:resource="http://creativecommons.org/licenses/publicdomain/"/><dc:title/><dc:subject><rdf:Bag><rdf:li>mic</rdf:li><rdf:li>mike</rdf:li><rdf:li>microphone</rdf:li><rdf:li>input</rdf:li><rdf:li>audio</rdf:li><rdf:li>record</rdf:li><rdf:li>voice</rdf:li></rdf:Bag></dc:subject></cc:Work><cc:License rdf:about="http://creativecommons.org/licenses/publicdomain/"><cc:permits rdf:resource="http://creativecommons.org/ns#Reproduction"/><cc:permits rdf:resource="http://creativecommons.org/ns#Distribution"/><cc:permits rdf:resource="http://creativecommons.org/ns#DerivativeWorks"/></cc:License></rdf:RDF></metadata><g fill-rule="evenodd"><g color="#000"><path d="M41.625 41A16.4375 7 0 1 1 8.75 41 16.4375 7 0 1 1 41.625 41" transform="matrix(1.10646 0 0 1.04464-2.682-2.518)" marker="none" opacity=".494" stroke-width="2" fill="url(#A)"/><path d="M27.625 46.375A11.1875 5.875 0 1 1 5.25 46.375 11.1875 5.875 0 1 1 27.625 46.375z" transform="translate(8.75-7)" marker="none" fill="url(#8)" stroke="#424242"/><path transform="matrix(2.06667 0 0 1.26667-43.983 9.475)" d="M35.375 22.125A1.875 1.875 0 1 1 31.625 22.125 1.875 1.875 0 1 1 35.375 22.125" marker="none" stroke-width="2" fill="#424242"/><path d="m20.25 31.375c0 0 .736 3.402 3 3.125 6.125-.75 5.471-.49 9.875.875 4.438 1.375 2.094 3.594 6.625 4 4.531.406 4.125-3.625 8-3.875" marker="none" fill="none" stroke="url(#0)"/><rect width="22.14" height="30.692" x="16.03" y="-4.01" rx="6.694" ry="6.694" transform="matrix(.97073.24016-.26401.96452 0 0)" marker="none" fill="url(#7)" stroke="#7c7c7c"/><rect transform="matrix(.97073.24016-.26401.96452 0 0)" ry="5.42" rx="5.42" y="-3.01" x="17.21" height="28.524" width="19.862" marker="none" opacity=".307" fill="none" stroke="#fff"/><path d="m20.09 1.969c-2.221.352-4.151 2.04-4.781 4.344l-4.844 17.844c2.857 1.404 6.638.469 10.219.469.49 0 .988-.002 1.469-.031-.935-.228-2.313-.563-2.313-.563-.22-.06-.421-.135-.563-.25-.005-.004-.027-.027-.031-.031-.013-.013-.047-.046-.063-.063-.006-.006-.026-.026-.031-.031-.008-.016-.025-.05-.031-.063-.01-.024-.025-.072-.031-.094 0-.003 0-.029 0-.031-.006-.011-.026-.052-.031-.063 0-.006 0-.027 0-.031 0-.018 0-.051 0-.063 0-.006 0-.028 0-.031 0-.003 0-.028 0-.031.008-.036.025-.093.031-.125.005-.01.025-.051.031-.063 0-.003 0-.028 0-.031.008-.025.022-.071.031-.094.008-.016.026-.052.031-.063.025-.045.063-.118.094-.156.006-.006.027-.027.031-.031.011-.006.052-.026.063-.031.029-.017.089-.048.125-.063.011 0 .052 0 .063 0 0-.002 0-.024 0-.031.007 0 .029 0 .031 0 .175-.033.396-.007.625.031l5.938 1.375c1.19-.291 2.327-.69 3.406-1.156-.152-.086-.317-.141-.469-.188-.037-.011-.088-.023-.125-.031 0 0-8.219-2-8.219-2-.22-.06-.444-.135-.594-.25-.005-.004-.026-.027-.031-.031-.005-.004-.027-.027-.031-.031-.004-.005-.027-.027-.031-.031-.005-.011-.026-.052-.031-.063-.006-.006-.026-.026-.031-.031 0-.003 0-.028 0-.031-.006-.011-.026-.051-.031-.063 0-.003 0-.029 0-.031 0-.011 0-.052 0-.063-.001-.022-.002-.071 0-.094 0-.004 0-.027 0-.031-.001-.013-.001-.051 0-.063 0-.003 0-.028 0-.031.006-.011.026-.052.031-.063.009-.028.022-.068.031-.094.005-.011.026-.052.031-.063.017-.036.044-.094.063-.125.014-.021.045-.07.063-.094.005-.005.027-.027.031-.031.006-.006.027-.027.031-.031.011-.006.052-.026.063-.031.016-.008.05-.025.063-.031.009-.004.046-.023.063-.031.003 0 .029 0 .031 0 .004-.004.025-.025.031-.031.003 0 .028 0 .031 0 .007-.007.03-.029.031-.031.003 0 .028 0 .031 0 .006 0 .028 0 .031 0 .144-.006.322.033.5.063l8.313 1.938c.619.173 1.187.609 1.625 1.031.514-.273.991-.595 1.469-.906-.146-.195-1.33-1.699-2.406-2.031-.037-.011-.088-.023-.125-.031 0 0-8.219-2-8.219-2-.22-.06-.444-.135-.594-.25-.005-.004-.026-.027-.031-.031-.005-.004-.027-.027-.031-.031-.004-.005-.027-.027-.031-.031-.005-.011-.026-.052-.031-.063-.006-.006-.026-.026-.031-.031 0-.003 0-.028 0-.031-.006-.011-.026-.051-.031-.063 0-.003 0-.029 0-.031 0-.011 0-.052 0-.063-.001-.022-.002-.071 0-.094 0-.004 0-.027 0-.031-.001-.013-.001-.051 0-.063 0-.003 0-.028 0-.031.006-.011.026-.052.031-.063.009-.028.022-.068.031-.094.005-.011.026-.052.031-.063.017-.036.044-.094.063-.125.014-.021.045-.07.063-.094.005-.005.027-.027.031-.031.006-.006.027-.027.031-.031.011-.006.052-.026.063-.031.016-.008.05-.025.063-.031.005-.006.026-.026.031-.031.011 0 .051 0 .063 0 .004-.004.025-.025.031-.031.003 0 .028 0 .031 0 .007-.007.03-.029.031-.031.003 0 .028 0 .031 0 .006 0 .028 0 .031 0 .144-.006.322.033.5.063l8.313 1.938c1.344.375 2.469 2 2.469 2l-.406 1.563c.184-.12.384-.218.563-.344l2.594-9.531c.841-3.074-.96-6.146-4.03-6.906l-9.281-2.313c-.6-.148-1.193-.197-1.781-.156-.004 0-.025 0-.031 0-.013 0-.05.001-.063 0-.006 0-.025 0-.031 0-.003 0-.025 0-.031 0-.03.001-.095-.001-.125 0-.009 0-.046 0-.063 0-.004 0-.027 0-.031 0-.011 0-.052 0-.063 0-.011 0-.052 0-.063 0m-4.5 5.219l4.906.969c.19.059.391.145.531.281.005.005.027.026.031.031.004.005.027.026.031.031.005.011.026.052.031.063.006.005.026.026.031.031.01.025.024.071.031.094.009.029.025.09.031.125 0 .006 0 .027 0 .031 0 .018 0 .051 0 .063 0 .028.002.095 0 .125 0 .003 0 .028 0 .031-.006.011-.026.052-.031.063-.007.028-.023.068-.031.094 0 .003 0 .028 0 .031-.006.011-.026.052-.031.063-.007.014-.024.049-.031.063-.006.005-.026.026-.031.031-.005.011-.026.052-.031.063-.005.005-.027.026-.031.031-.005.005-.026.026-.031.031-.005.005-.026.027-.031.031-.011.005-.052.026-.063.031-.006.006-.026.026-.031.031-.021.009-.072.024-.094.031-.024.009-.069.025-.094.031-.165.035-.354.02-.531-.031l-4.938-1.063.406-1.406m7.813 1.594c.003 0 .028 0 .031 0 .006 0 .028 0 .031 0 .144-.006.322.033.5.063l8.313 1.938c1.344.375 2.219 1.75 2.219 1.75l-.344 1.531c-.146-.195-1.143-1.418-2.219-1.75-.037-.011-.088-.023-.125-.031 0 0-8.219-2-8.219-2-.22-.06-.444-.135-.594-.25-.005-.004-.026-.027-.031-.031-.005-.004-.027-.027-.031-.031-.004-.005-.027-.027-.031-.031-.005-.011-.026-.052-.031-.063-.006-.006-.026-.026-.031-.031 0-.003 0-.028 0-.031-.006-.011-.026-.051-.031-.063 0-.003 0-.029 0-.031 0-.011 0-.052 0-.063-.001-.022-.002-.071 0-.094 0-.004 0-.027 0-.031-.001-.013-.001-.051 0-.063 0-.003 0-.028 0-.031.006-.011.026-.052.031-.063.009-.028.022-.068.031-.094.005-.011.026-.052.031-.063.017-.036.044-.094.063-.125.014-.021.045-.07.063-.094.005-.005.027-.027.031-.031.006-.006.027-.027.031-.031.011-.006.052-.026.063-.031.016-.008.05-.025.063-.031.005-.006.026-.026.031-.031.011 0 .051 0 .063 0 .004-.004.025-.025.031-.031.003 0 .028 0 .031 0 .007-.007.03-.029.031-.031m-8.719 1.781l4.906.969c.19.059.391.145.531.281.005.005.027.026.031.031.004.005.027.026.031.031.005.011.026.052.031.063.006.005.026.026.031.031 0 .002 0 .024 0 .031.006.011.026.051.031.063.007.023.024.067.031.094 0 .003 0 .027 0 .031 0 .018 0 .051 0 .063 0 .024.002.069 0 .094-.005.042-.019.11-.031.156 0 .003 0 .028 0 .031-.013.03-.049.097-.063.125-.007.015-.024.049-.031.063-.005.011-.026.052-.031.063-.006.006-.026.026-.031.031-.035.045-.083.093-.125.125-.006.006-.026.026-.031.031-.016.008-.05.025-.063.031-.009.004-.046.023-.063.031-.003 0-.029 0-.031 0-.011.006-.052.026-.063.031-.165.035-.354.02-.531-.031l-4.938-1.063.406-1.406m7.813 1.656c.003 0 .028 0 .031 0 .006 0 .028 0 .031 0 .144-.006.322.033.5.063l8.313 1.938c1.344.375 2.094 1.656 2.094 1.656l-.313 1.438c-.146-.195-1.049-1.231-2.125-1.563-.037-.011-.088-.023-.125-.031 0 0-8.219-2-8.219-2-.22-.06-.444-.135-.594-.25-.005-.004-.026-.027-.031-.031-.005-.004-.027-.027-.031-.031-.004-.005-.027-.027-.031-.031-.005-.011-.026-.052-.031-.063-.006-.006-.026-.026-.031-.031 0-.003 0-.028 0-.031-.006-.011-.026-.051-.031-.063 0-.003 0-.029 0-.031 0-.011 0-.052 0-.063-.001-.022-.002-.071 0-.094 0-.004 0-.027 0-.031-.001-.013-.001-.051 0-.063 0-.003 0-.028 0-.031.006-.011.026-.052.031-.063.009-.028.022-.068.031-.094.005-.011.026-.052.031-.063.017-.036.044-.094.063-.125.014-.021.045-.07.063-.094.005-.005.027-.027.031-.031.006-.006.027-.027.031-.031.011-.006.052-.026.063-.031.016-.008.05-.025.063-.031.009-.004.046-.023.063-.031.003 0 .029 0 .031 0 .004-.004.025-.025.031-.031.003 0 .028 0 .031 0 .007-.007.03-.029.031-.031m-8.75 1.719l4.906 1c.139.043.285.11.406.188.011.005.052.026.063.031.006.006.026.026.031.031.005.005.026.026.031.031.013.013.047.046.063.063.006.006.026.026.031.031 0 .003 0 .028 0 .031.006.011.026.052.031.063.006.005.026.026.031.031.011.032.025.09.031.125 0 .011 0 .052 0 .063.001.023.002.069 0 .094 0 .003 0 .028 0 .031-.008.037-.024.095-.031.125 0 .003 0 .028 0 .031-.014.032-.049.096-.063.125-.008.016-.026.052-.031.063-.005.011-.023.046-.031.063-.005.011-.026.052-.031.063-.025.029-.067.071-.094.094-.006.006-.026.026-.031.031-.006.006-.026.026-.031.031-.016.008-.05.025-.063.031-.009.004-.046.023-.063.031-.003 0-.029 0-.031 0-.179.053-.396.057-.594 0l-4.938-1.125.406-1.375m-.875 3.344l4.906 1.063c.222.068.455.196.594.375.006.006.026.026.031.031.008.016.025.049.031.063.01.025.024.071.031.094.006.011.026.052.031.063 0 .011 0 .052 0 .063 0 .006 0 .027 0 .031 0 .018 0 .051 0 .063 0 .003 0 .028 0 .031 0 .003 0 .029 0 .031-.004.012-.026.05-.031.063-.001.004.001.028 0 .031 0 .003 0 .029 0 .031-.008.032-.021.092-.031.125-.032.079-.081.162-.125.219-.005.005-.027.026-.031.031-.005.005-.026.026-.031.031-.005.005-.026.027-.031.031-.006.006-.026.026-.031.031-.011.005-.052.026-.063.031-.005.006-.026.026-.031.031-.025.01-.072.024-.094.031-.011 0-.052 0-.063 0-.165.035-.354.02-.531-.031l-4.938-1.156.406-1.406m-.969 3.375l4.906 1.063c.19.059.391.145.531.281.005.005.027.026.031.031.004.005.027.026.031.031.005.011.026.052.031.063.006.005.026.026.031.031.01.025.024.071.031.094.009.029.025.09.031.125.001.006 0 .023 0 .031 0 .018 0 .051 0 .063 0 .028.002.095 0 .125-.001.004.001.027 0 .031-.005.012-.028.051-.031.063-.007.028-.023.068-.031.094-.008.021-.022.069-.031.094-.007.014-.024.049-.031.063-.006.005-.026.026-.031.031-.005.011-.026.052-.031.063-.005.005-.027.026-.031.031-.005.005-.026.026-.031.031-.005.005-.026.027-.031.031-.011.005-.052.026-.063.031-.006.006-.026.026-.031.031-.021.009-.072.024-.094.031-.024.009-.069.025-.094.031-.165.035-.354.02-.531-.031l-4.938-1.156.406-1.406" marker="none" opacity=".443" fill="url(#6)"/><path d="m22.281 15.844l8.313 1.938c1.344.375 2.469 2 2.469 2l-.406 1.594c0 0-1.344-1.844-2.531-2.094 0 0-8.219-2-8.219-2-.485-.131-.935-.321-.75-.906.188-.594.563-.625 1.125-.531" marker="none" fill="url(#1)"/><path d="m31.5 19l-.125 15.375v.031.031c.088 1.403-1.096 2.637-2.25 2.406l-10.469-2.156c-.469-.125-1.719-.625-1.313-2.063l-1.938-.5c-.679 2.437 1.25 4.156 2.688 4.469l10.656 2.188c2.575.515 4.748-1.834 4.625-4.406-.001-.021.001-.041 0-.063l.125-15.313h-2z" marker="none" fill="#747474" stroke="#424242"/><g fill="url(#1)"><path d="m21.25 19.281l8.313 1.938c1.344.375 2.469 2 2.469 2l-.406 1.594c0 0-1.344-1.844-2.531-2.094 0 0-8.219-2-8.219-2-.485-.131-.935-.321-.75-.906.188-.594.563-.625 1.125-.531" marker="none"/><path d="m24.09 8.969l8.313 1.938c1.344.375 2.063 1.5 2.063 1.5l-.406 1.594c0 0-.938-1.344-2.125-1.594 0 0-8.219-2-8.219-2-.485-.131-.935-.321-.75-.906.188-.594.563-.625 1.125-.531" marker="none"/><path d="m23.19 12.406l8.313 1.938c1.344.375 2.063 1.563 2.063 1.563l-.438 1.5c0 0-.906-1.313-2.094-1.563 0 0-8.219-2-8.219-2-.485-.131-.935-.321-.75-.906.188-.594.563-.625 1.125-.531" marker="none"/></g><path d="M35.375 22.125A1.875 1.875 0 1 1 31.625 22.125 1.875 1.875 0 1 1 35.375 22.125z" transform="matrix(1.26667 0 0 1.26667-10.308-8.15)" marker="none" stroke-width=".789" fill="url(#9)" stroke="#424242"/><path d="m20.344 22.719l8.313 1.938c1.344.375 2.469 2 2.469 2l-.406 1.594c0 0-1.344-1.844-2.531-2.094 0 0-8.219-2-8.219-2-.485-.131-.872-.321-.75-.906.124-.592.563-.625 1.125-.531" marker="none" fill="url(#1)"/><g fill="url(#2)"><path d="m16.563 23.344l-4.938-1.156.406-1.406 4.906 1.063c.406.125.844.375.688.969-.154.587-.625.656-1.063.531" marker="none"/><path d="m17.531 19.977l-4.938-1.156.406-1.406 4.906 1.063c.406.125.844.375.688.969-.154.587-.625.656-1.063.531" marker="none"/><path d="m18.406 16.547l-4.938-1.094.406-1.406 4.906 1c.406.125.844.375.688.969-.154.587-.625.656-1.063.531" marker="none"/><path d="m19.344 13.148l-4.938-1.063.406-1.406 4.906.969c.406.125.844.375.688.969-.154.587-.625.656-1.063.531" marker="none"/><path d="m20.25 9.781l-4.938-1.063.406-1.406 4.906.969c.406.125.844.375.688.969-.154.587-.625.656-1.063.531" marker="none"/></g><path transform="matrix(.9163 0 0 .80773 10.126 1.917)" d="M27.625 46.375A11.1875 5.875 0 1 1 5.25 46.375 11.1875 5.875 0 1 1 27.625 46.375z" marker="none" opacity=".295" stroke-width="1.162" fill="none" stroke="url(#5)"/></g><path d="m5.298.208c-.102 0-.205.039-.284.117l-4.494 4.477c-.156.156-.156.408 0 .564l18.466 18.402-18.552 18.487c-.156.156-.156.408 0 .564l4.494 4.477c.156.156.411.156.567 0l18.547-18.487 18.375 18.311c.156.156.405.156.562 0l4.499-4.477c.156-.156.156-.408 0-.564l-18.375-18.311 18.29-18.226c.156-.156.156-.403 0-.559l-4.494-4.482c-.156-.156-.411-.156-.567 0l-18.29 18.226-18.466-18.402c-.078-.078-.176-.117-.278-.117" opacity=".6" fill="#ff0505"/></g></svg>