<?xml version="1.0" encoding="UTF-8" standalone="no"?><!-- Created with Inkscape (http://www.inkscape.org/) --><svg xmlns:dc="http://purl.org/dc/elements/1.1/" xmlns:cc="http://creativecommons.org/ns#" xmlns:rdf="http://www.w3.org/1999/02/22-rdf-syntax-ns#" xmlns:svg="http://www.w3.org/2000/svg" xmlns="http://www.w3.org/2000/svg" xmlns:xlink="http://www.w3.org/1999/xlink" xmlns:sodipodi="http://sodipodi.sourceforge.net/DTD/sodipodi-0.dtd" xmlns:inkscape="http://www.inkscape.org/namespaces/inkscape" id="svg249" height="48" width="48"><defs><linearGradient id="5"><stop/><stop offset="1" stop-opacity="0"/></linearGradient><linearGradient xlink:href="#7" id="6" x1="13.354" y1="1.487" x2="14.08" y2="2.402" gradientUnits="userSpaceOnUse" gradientTransform="matrix(1 0 0 1.18482 0-.728)"/><linearGradient xlink:href="#5" id="9" x1="14.584" y1="1.639" x2="14.553" y2="2.491" gradientUnits="userSpaceOnUse" gradientTransform="matrix(1 0 0 1.59421 0-.79)"/><linearGradient id="7"><stop stop-color="#fff"/><stop offset="1" stop-color="#fff" stop-opacity="0"/></linearGradient><linearGradient id="8" gradientUnits="userSpaceOnUse" gradientTransform="matrix(2.77439 0 0 1.96971-1892.18-872.89)" x1="302.86" y1="366.65" x2="302.86" y2="609.51"><stop stop-opacity="0"/><stop offset=".5"/><stop offset="1" stop-opacity="0"/></linearGradient><linearGradient id="0" x1="18.431" y1="19.12" x2="18.402" y2="4.27" gradientUnits="userSpaceOnUse" gradientTransform="matrix(1.31955 0 0 1.29901-3.106-1.336)"><stop stop-color="#859dbc"/><stop offset="1" stop-color="#547299"/></linearGradient><linearGradient xlink:href="#7" id="1" x1="16.813" y1="1.875" x2="16.813" y2="4.719" gradientUnits="userSpaceOnUse" gradientTransform="matrix(-1.31955 0 0 1.36206 40.39-.362)"/><linearGradient id="4" x1="19" y1="9.774" x2="19" y2="15.636" gradientUnits="userSpaceOnUse" gradientTransform="matrix(1.31955 0 0 2.13393-4.476-14.648)"><stop stop-opacity="0"/><stop offset=".5" stop-opacity=".567"/><stop offset="1" stop-opacity="0"/></linearGradient><linearGradient xlink:href="#7" id="2" x1="19.97" y1="6.117" x2="19.97" y2="2.531" gradientUnits="userSpaceOnUse" gradientTransform="matrix(1.31955 0 0 1.28036-5.745.249)"/><linearGradient xlink:href="#5" id="3" x1="19.452" y1="13.174" x2="19.685" y2="27.1" gradientUnits="userSpaceOnUse" gradientTransform="matrix(1.22426 0 0 1.28218.372.265)"/><radialGradient xlink:href="#5" id="E" gradientUnits="userSpaceOnUse" gradientTransform="matrix(-2.77439 0 0 1.96971 112.76-872.89)" cx="605.71" cy="486.65" fx="605.71" fy="486.65" r="117.14"/><radialGradient r="14.375" fy="125" fx="55" cy="125" cx="55" gradientUnits="userSpaceOnUse" id="D"><stop stop-color="#fff"/><stop offset=".5" stop-color="#fff520" stop-opacity=".891"/><stop offset="1" stop-color="#fff300" stop-opacity="0"/></radialGradient><radialGradient id="C" gradientUnits="userSpaceOnUse" gradientTransform="matrix(.97303 0 0 1.03494 3.169.555)" cx="8.144" cy="7.268" fx="8.144" fy="7.268" r="38.16"><stop stop-color="#fff"/><stop offset="1" stop-color="#f8f8f8"/></radialGradient><radialGradient xlink:href="#5" id="B" gradientUnits="userSpaceOnUse" gradientTransform="matrix(2.77439 0 0 1.96971-1891.63-872.89)" cx="605.71" cy="486.65" fx="605.71" fy="486.65" r="117.14"/><radialGradient id="A" gradientUnits="userSpaceOnUse" gradientTransform="matrix(.96049 0 0 1.04477-.104-.159)" cx="33.967" cy="35.737" fx="33.967" fy="35.737" r="86.71"><stop stop-color="#fafafa"/><stop offset="1" stop-color="#bbb"/></radialGradient><radialGradient id="F" gradientUnits="userSpaceOnUse" gradientTransform="matrix(.96827 0 0 1.03637 3.25.49)" cx="8.824" cy="3.756" fx="8.824" fy="3.756" r="37.752"><stop stop-color="#a3a3a3"/><stop offset="1" stop-color="#4c4c4c"/></radialGradient></defs><sodipodi:namedview showgrid="false" borderopacity="0.25490196" bordercolor="#666666" pagecolor="#ffffff" showguides="true"/><metadata><rdf:RDF><cc:Work><dc:format>image/svg+xml</dc:format><dc:type rdf:resource="http://purl.org/dc/dcmitype/StillImage"/><dc:title>New Bookmark</dc:title><dc:subject><rdf:Bag><rdf:li>bookmark</rdf:li><rdf:li>remember</rdf:li><rdf:li>favorite</rdf:li></rdf:Bag></dc:subject><cc:license rdf:resource="http://creativecommons.org/licenses/publicdomain/"/><dc:creator><cc:Agent><dc:title>Andreas Nilsson</dc:title></cc:Agent></dc:creator><dc:source/><dc:contributor><cc:Agent><dc:title>Jakub Steiner</dc:title></cc:Agent></dc:contributor><dc:description>create bookmark action</dc:description></cc:Work><cc:License rdf:about="http://creativecommons.org/licenses/publicdomain/"><cc:permits rdf:resource="http://creativecommons.org/ns#Reproduction"/><cc:permits rdf:resource="http://creativecommons.org/ns#Distribution"/><cc:permits rdf:resource="http://creativecommons.org/ns#DerivativeWorks"/></cc:License></rdf:RDF></metadata><g stroke-linecap="round" color="#000"><g transform="matrix(.02165 0 0 .01486 43.01 42.685)"><path marker="none" opacity=".402" fill="url(#8)" d="m-1559.25-150.7h1339.63v478.36h-1339.63z"/><path d="m-219.62-150.68c0 0 0 478.33 0 478.33 142.87.9 345.4-107.17 345.4-239.2 0-132.03-159.44-239.13-345.4-239.13" marker="none" opacity=".402" fill="url(#B)"/><path d="m-1559.25-150.68c0 0 0 478.33 0 478.33-142.87.9-345.4-107.17-345.4-239.2 0-132.03 159.44-239.13 345.4-239.13" marker="none" opacity=".402" fill="url(#E)"/></g><g display="block" stroke-linejoin="round"><rect width="34.875" height="41.06" x="6.5" y="3.5" ry="1.149" rx="1.149" marker="none" fill="url(#A)" stroke="url(#F)"/><rect width="32.937" height="39.03" x="7.502" y="4.501" ry=".149" rx=".149" marker="none" fill="none" stroke="url(#C)"/></g></g><g fill="none" fill-rule="evenodd" fill-opacity=".75"><path d="m11.506 5.494v37.907" stroke-opacity=".018" stroke="#000" stroke-width=".989"/><path d="m12.5 5.02v38.02" stroke-opacity=".205" stroke="#fff"/></g><g stroke-opacity=".082" fill="#9b9b9b" display="block" stroke-linejoin="round" fill-opacity=".55" stroke-linecap="round" color="#000"><rect width="20" height="1" x="16" y="9" rx=".138" ry=".065" marker="none"/><rect width="20" height="1" x="16" y="11" rx=".138" ry=".065" marker="none"/><rect width="20" height="1" x="16" y="13" rx=".138" ry=".065" marker="none"/><rect width="20" height="1" x="16" y="15" rx=".138" ry=".065" marker="none"/><rect width="20" height="1" x="16" y="17" rx=".138" ry=".065" marker="none"/><rect width="20" height="1" x="16" y="19" rx=".138" ry=".065" marker="none"/><rect width="20" height="1" x="16" y="21" rx=".138" ry=".065" marker="none"/><rect width="20" height="1" x="16" y="23" rx=".138" ry=".065" marker="none"/><rect width="9" height="1" x="16" y="25" rx=".062" ry=".065" marker="none"/><rect width="20" height="1" x="16" y="29" rx=".138" ry=".065" marker="none"/><rect width="20" height="1" x="16" y="31" rx=".138" ry=".065" marker="none"/><rect width="20" height="1" x="16" y="33" rx=".138" ry=".065" marker="none"/><rect width="20" height="1" x="16" y="35" rx=".138" ry=".065" marker="none"/><rect width="14" height="1" x="16" y="37" rx=".096" ry=".065" marker="none"/></g><g fill-rule="evenodd"><path d="m28.25 31.32l-7.098-4.191-6.84 3.75-.546-26.936h14.788l-.304 27.377" opacity=".28" fill="url(#3)" stroke-width=".313"/><path d="m12.427 3.518c0 0-.187-2.913 2.681-2.975l10.01-.035c1.158 0 1.463.684 1.463 1.602v27.62l-6.04-5.196-5.871 5.196-.083-26.21-2.164-.002z" fill="url(#0)" stroke="#364878"/><path d="m13.03 3.01c-.019-.786.283-1.932 2.345-1.994l9.652-.018c.613 0 1.062.167 1.062.799l-.029 8.692h-10.744l-.125-7.493c0 0-2.162.012-2.162.012" opacity=".445" fill="url(#1)" stroke-width=".313"/><rect width="10.556" height="12.804" x="15.317" y="6.691" rx=".062" ry=".065" opacity=".28" fill="url(#4)" stroke-linejoin="round" stroke-linecap="round"/><path d="m24.477 2.21l1.099.904-.028 24.399-5.05-4.308-4.793 4.211-.005-24.666 8.778-.54z" stroke-opacity=".191" fill="none" stroke="url(#2)"/></g><g color="#000"><path d="M69.375 125A14.375 14.375 0 1 1 40.625 125 14.375 14.375 0 1 1 69.375 125" transform="matrix(.61113 0 0 .61113 5.632-67.28)" fill="url(#D)" display="block" stroke-linejoin="round" marker="none" stroke-width="1.25"/><g stroke-width="1.105"><path d="m15.16 3.938l-.044-2.905c-2.131 0-2.121 1.935-2.121 2.905h2.166" marker="none" opacity=".483" fill="url(#6)"/><path d="m15.16 3.938l-.044-2.114c-2.298.018-2.121 2.114-2.121 2.114h2.166" marker="none" opacity=".358" fill="url(#9)"/></g></g></svg>