<?xml version="1.0" encoding="UTF-8" standalone="no"?><!-- Created with Inkscape (http://www.inkscape.org/) --><svg xmlns:dc="http://purl.org/dc/elements/1.1/" xmlns:cc="http://creativecommons.org/ns#" xmlns:rdf="http://www.w3.org/1999/02/22-rdf-syntax-ns#" xmlns:svg="http://www.w3.org/2000/svg" xmlns="http://www.w3.org/2000/svg" xmlns:xlink="http://www.w3.org/1999/xlink" xmlns:sodipodi="http://sodipodi.sourceforge.net/DTD/sodipodi-0.dtd" xmlns:inkscape="http://www.inkscape.org/namespaces/inkscape" id="svg2913" height="48" width="48"><defs><linearGradient gradientUnits="userSpaceOnUse" y2="46.07" x2="36.18" y1="33.606" x1="7.605" id="7"><stop stop-color="#bbb"/><stop offset="1" stop-color="#9f9f9f"/></linearGradient><linearGradient id="6" x1="33.431" y1="31.965" x2="21.748" y2="11.781" gradientUnits="userSpaceOnUse"><stop stop-color="#fff"/><stop offset=".5" stop-color="#e6e6e6"/><stop offset=".75" stop-color="#fff"/><stop offset=".842" stop-color="#e1e1e1"/><stop offset="1" stop-color="#fff"/></linearGradient><linearGradient id="8" x1="28.06" y1="31.431" x2="28.06" y2="36.437" gradientUnits="userSpaceOnUse"><stop stop-color="#ddd"/><stop offset="1" stop-color="#fdfdfd"/></linearGradient><linearGradient id="B" gradientUnits="userSpaceOnUse" gradientTransform="matrix(2.77439 0 0 1.96971-1892.18-872.89)" x1="302.86" y1="366.65" x2="302.86" y2="609.51"><stop stop-opacity="0"/><stop offset=".5"/><stop offset="1" stop-opacity="0"/></linearGradient><linearGradient xlink:href="#A" id="C" gradientUnits="userSpaceOnUse" x1="26.352" y1="22.334" x2="7.671" y2="8.796"/><linearGradient id="A"><stop stop-color="#fff"/><stop offset="1" stop-color="#fff" stop-opacity="0"/></linearGradient><linearGradient id="9"><stop/><stop offset="1" stop-opacity="0"/></linearGradient><linearGradient id="5" x1="12.25" y1="18.25" x2="7" y2="21.12" gradientUnits="userSpaceOnUse"><stop stop-color="#204a87"/><stop offset="1" stop-color="#204a87" stop-opacity="0"/></linearGradient><linearGradient gradientUnits="userSpaceOnUse" y2="52.746" x2="44.1" y1="9.558" x1="12.378" id="1" xlink:href="#A"/><linearGradient y2="39.08" x2="25.483" y1="39.08" x1="7.858" gradientUnits="userSpaceOnUse" id="2"><stop stop-color="#838383"/><stop offset="1" stop-color="#bbb" stop-opacity="0"/></linearGradient><linearGradient gradientUnits="userSpaceOnUse" y2="38.884" x2="12.222" y1="42.33" x1="12.277" id="0"><stop stop-color="#eee"/><stop offset="1" stop-color="#eee" stop-opacity="0"/></linearGradient><linearGradient gradientUnits="userSpaceOnUse" y2="31.482" x2="23.688" y1="16.444" x1="23.688" id="3"><stop stop-color="#fff" stop-opacity=".255"/><stop offset="1" stop-color="#fff"/></linearGradient><linearGradient id="4" x1="14.752" y1="15.868" x2="8.895" y2="16.743" gradientUnits="userSpaceOnUse"><stop stop-color="#3465a4"/><stop offset="1" stop-color="#3465a4" stop-opacity="0"/></linearGradient><radialGradient xlink:href="#A" id="G" cx="23.447" cy="6.458" fx="23.447" fy="6.458" r="19.06" gradientTransform="matrix(-1.31447-.01006-.01023 1.33622 46.22-4.91)" gradientUnits="userSpaceOnUse"/><radialGradient id="F" cx="24.837" cy="36.421" fx="24.837" fy="36.421" r="15.645" gradientTransform="matrix(1 0 0 .53672 0 16.873)" gradientUnits="userSpaceOnUse" xlink:href="#9"/><radialGradient xlink:href="#9" id="E" gradientUnits="userSpaceOnUse" gradientTransform="matrix(-2.77439 0 0 1.96971 112.76-872.89)" cx="605.71" cy="486.65" fx="605.71" fy="486.65" r="117.14"/><radialGradient gradientUnits="userSpaceOnUse" gradientTransform="matrix(1.28624.7817-.71078 1.16955-2.354.248)" r="20.936" fy="2.959" fx="15.571" cy="2.959" cx="15.571" id="D"><stop stop-color="#e4e4e4"/><stop offset="1" stop-color="#d3d3d3"/></radialGradient><radialGradient xlink:href="#9" id="H" gradientUnits="userSpaceOnUse" gradientTransform="matrix(2.77439 0 0 1.96971-1891.63-872.89)" cx="605.71" cy="486.65" fx="605.71" fy="486.65" r="117.14"/></defs><sodipodi:namedview showgrid="false" borderopacity="0.22745098" bordercolor="#666666" pagecolor="#ffffff" fill="#3465a4" stroke="#204a87"/><metadata><rdf:RDF><cc:Work><dc:format>image/svg+xml</dc:format><dc:type rdf:resource="http://purl.org/dc/dcmitype/StillImage"/><dc:title>Save As</dc:title><dc:creator><cc:Agent><dc:title>Jakub Steiner</dc:title></cc:Agent></dc:creator><dc:subject><rdf:Bag><rdf:li>hdd</rdf:li><rdf:li>hard drive</rdf:li><rdf:li>save as</rdf:li><rdf:li>io</rdf:li><rdf:li>store</rdf:li></rdf:Bag></dc:subject><cc:license rdf:resource="http://creativecommons.org/licenses/publicdomain/"/><dc:identifier/><dc:source>http://jimmac.musichall.cz</dc:source></cc:Work><cc:License rdf:about="http://creativecommons.org/licenses/publicdomain/"><cc:permits rdf:resource="http://creativecommons.org/ns#Reproduction"/><cc:permits rdf:resource="http://creativecommons.org/ns#Distribution"/><cc:permits rdf:resource="http://creativecommons.org/ns#DerivativeWorks"/></cc:License></rdf:RDF></metadata><g stroke-linecap="round"><g transform="matrix(.02411 0 0 .01929 45.49 41.752)" color="#000"><path marker="none" opacity=".402" fill="url(#B)" d="m-1559.25-150.7h1339.63v478.36h-1339.63z"/><path d="m-219.62-150.68c0 0 0 478.33 0 478.33 142.87.9 345.4-107.17 345.4-239.2 0-132.03-159.44-239.13-345.4-239.13" marker="none" opacity=".402" fill="url(#H)"/><path d="m-1559.25-150.68c0 0 0 478.33 0 478.33-142.87.9-345.4-107.17-345.4-239.2 0-132.03 159.44-239.13 345.4-239.13" marker="none" opacity=".402" fill="url(#E)"/></g><path d="m11.286 13.09c-.625 0-1.031.29-1.281.844 0 0-6.469 17.1-6.469 17.1 0 0-.25.672-.25 1.781 0 0 0 9.65 0 9.65 0 1.083.658 1.625 1.656 1.625h38.562c.985 0 1.594-.718 1.594-1.844v-9.65c0 0 .106-.77-.094-1.312l-6.719-17.197c-.185-.512-.637-.988-1.125-1h-25.875z" fill="none" fill-rule="evenodd" stroke="#535353" stroke-linejoin="round" stroke-width="2"/></g><g fill-rule="evenodd"><path d="m3.274 32.12l.765-.692 37.61.063 3.462.317v10.439c0 1.126-.607 1.843-1.592 1.843h-38.583c-.998 0-1.662-.542-1.662-1.625v-10.345" fill="url(#7)" stroke-width="1.02"/><path d="m3.549 31.04c-.714 1.464-.001 2.393 1.036 2.393 0 0 39 0 39 0 1.119-.024 1.845-1.012 1.429-2.143l-6.714-17.211c-.185-.512-.655-.988-1.143-1h-25.857c-.625 0-1.036.304-1.286.857 0 0-6.464 17.1-6.464 17.1" fill="url(#D)"/><path marker="none" color="#000" stroke-width="2.409" stroke-linecap="round" fill="url(#2)" stroke-linejoin="round" d="m7.858 36.3h17.625v5.563h-17.625z"/><path d="m7.858 41.862c0 0 0-4.01 0-4.01 1.836 3.179 8.296 4.01 12.937 4.01 0 0-12.937 0-12.937 0" opacity=".811" fill="url(#0)"/><path d="m44.796 30.754c.064 1.25-.414 2.316-1.322 2.344 0 0-38.12 0-38.12 0-1.289 0-1.868-.325-2.084-.868.092.944.826 1.649 2.084 1.649 0 0 38.12 0 38.12 0 1.076-.033 1.753-1.424 1.352-2.995l-.03-.13" fill="#fff"/><g stroke-linejoin="round" stroke-linecap="round"><g color="#000" stroke-width="2"><path d="m10.969 15.281c-.046.2-.188.387-.188.594 0 .949.591 1.789 1.344 2.594.24-.154.365-.354.625-.5-.94-.816-1.553-1.717-1.781-2.688m26.656 0c-.229.97-.842 1.872-1.781 2.688.274.154.404.368.656.531.757-.807 1.313-1.673 1.313-2.625 0-.207-.142-.393-.188-.594m2.188 8.438c-.614 4.04-7.299 7.25-15.531 7.25-8.212 0-14.86-3.193-15.5-7.219-.032.197-.125.392-.125.594 0 4.318 6.989 7.844 15.625 7.844 8.636 0 15.656-3.526 15.656-7.844 0-.213-.089-.417-.125-.625" marker="none" opacity=".691" fill="url(#3)"/><g fill="#fff" fill-opacity=".458"><path transform="translate(.088 5.302)" d="M8.57367 25.593554A1.370019 1.016466 0 1 1 5.833631 25.593554 1.370019 1.016466 0 1 1 8.57367 25.593554" marker="none"/><path d="M8.57367 25.593554A1.370019 1.016466 0 1 1 5.833631 25.593554 1.370019 1.016466 0 1 1 8.57367 25.593554" transform="translate(33.967 5.213)" marker="none"/></g></g><path d="m11.643 13.541c-.602 0-.993.279-1.233.812 0 0-6.415 16.591-6.415 16.591 0 0-.241.647-.241 1.715 0 0 0 9.29 0 9.29 0 1.355.444 1.627 1.594 1.627h37.687c1.323 0 1.534-.316 1.534-1.837v-9.29c0 0 .102-.742-.09-1.264l-6.593-16.806c-.178-.493-.551-.826-1.021-.838h-25.22z" fill="none" stroke="url(#1)"/></g><g fill="none" fill-opacity=".75" stroke-linecap="square"><g stroke-opacity=".424" stroke="#fff"><path d="m40.5 36.554v5.02"/><path d="m38.5 36.614v5.02"/><path d="m36.5 36.614v5.02"/><path d="m34.5 36.614v5.02"/><path d="m32.5 36.614v5.02"/><path d="m30.5 36.614v5.02"/></g><g stroke="#000"><path d="m39.5 36.604v5.02" opacity=".097"/><path d="m37.5 36.664v5.02" opacity=".097"/><path d="m35.5 36.664v5.02" opacity=".097"/><path d="m33.5 36.664v5.02" opacity=".097"/><path d="m31.5 36.664v5.02" opacity=".097"/></g></g><path d="m7.875 36.31v5.531h12.563l-12.219-.344-.344-5.188" opacity=".44" fill="#fff"/><g color="#000"><path d="M39.875 19.5625A14.875 6.6875 0 1 1 10.125 19.5625 14.875 6.6875 0 1 1 39.875 19.5625" transform="matrix(1.03782 0 0 1.06075-1.633 3.03)" marker="none" opacity=".206" stroke-opacity=".424" stroke-width=".934" stroke-linecap="square" fill="url(#6)" stroke-linejoin="round"/><path transform="matrix(1.13019 0 0-.7596-3.91 53.666)" d="M40.481863 36.421127A15.644737 8.396894 0 1 1 9.192389 36.421127 15.644737 8.396894 0 1 1 40.481863 36.421127" marker="none" opacity=".141" stroke-miterlimit="10" fill="url(#F)"/></g></g><g color="#000"><g display="block"><path d="m3.203 25.835c-1.031-31.22 25.538-26.29 25.379-10.05h7.313l-11.378 12.986-11.932-12.986c0 0 7.541 0 7.541 0 .457-10.969-16.718-14.179-16.923 10.05z" marker="none" fill="url(#4)" stroke="url(#5)"/><path d="m7.664 9.104c4.742-9.144 20.458-6.387 20.1 7.475h6.317c0 0-9.566 10.957-9.566 10.957l-10.1-10.957c0 0 6.457 0 6.457 0 .272-11.575-9.951-11.04-13.209-7.475z" marker="none" opacity=".472" stroke-miterlimit="10" fill="none" stroke="url(#C)"/></g><path d="m34.767 16.212l-1.984 2.546c-5.41-1.516-7.886 2.729-15.674 1.732l-3.861-4.409 7.186.083c.049-11.846-12.09-11.164-15.405-2.535 3.808-14.889 22.864-12.821 23.254 2.486l6.484.098" marker="none" opacity=".494" stroke-miterlimit="10" fill="url(#G)"/><g display="block" stroke-linecap="round"><rect width="39.25" height="12.278" x="4.564" y="30.3" rx="1.625" ry="1.625" marker="none" fill="url(#8)" stroke="#7d7d7d"/><path marker="none" opacity=".597" fill="#7d7d7d" d="m7 33h16v7h-16z"/><path marker="none" d="m24 32h1v9h-1z"/></g></g></svg>