<?xml version="1.0" encoding="UTF-8" standalone="no"?><!-- Created with Inkscape (http://www.inkscape.org/) --><svg xmlns:dc="http://purl.org/dc/elements/1.1/" xmlns:cc="http://creativecommons.org/ns#" xmlns:rdf="http://www.w3.org/1999/02/22-rdf-syntax-ns#" xmlns:svg="http://www.w3.org/2000/svg" xmlns="http://www.w3.org/2000/svg" xmlns:xlink="http://www.w3.org/1999/xlink" xmlns:sodipodi="http://sodipodi.sourceforge.net/DTD/sodipodi-0.dtd" xmlns:inkscape="http://www.inkscape.org/namespaces/inkscape" width="48" height="48" id="svg97"><defs><linearGradient id="7" gradientUnits="userSpaceOnUse" gradientTransform="matrix(2.77439 0 0 1.96971-1892.18-872.89)" x1="302.86" y1="366.65" x2="302.86" y2="609.51"><stop stop-opacity="0"/><stop offset=".5"/><stop offset="1" stop-opacity="0"/></linearGradient><linearGradient id="5" x1="22.25" y1="37.625" x2="19.75" y2="14.875" gradientUnits="userSpaceOnUse"><stop/><stop offset="1" stop-opacity="0"/></linearGradient><linearGradient id="4" gradientUnits="userSpaceOnUse" gradientTransform="scale(1.42154.70346)" x1="19.12" y1="28.946" x2="19.427" y2="51.913"><stop stop-color="#fff"/><stop offset="1" stop-color="#fff" stop-opacity="0"/></linearGradient><linearGradient id="6" xlink:href="#5"/><linearGradient id="0" x1="25.875" y1="10.625" x2="25.25" y2="30.875" gradientUnits="userSpaceOnUse" gradientTransform="matrix(1 0 0 1.23881 0-7.881)"><stop stop-color="#fafafa"/><stop offset=".5" stop-color="#a8a8a8"/><stop offset="1" stop-color="#cdcdcd"/></linearGradient><linearGradient id="3" gradientUnits="userSpaceOnUse" gradientTransform="matrix(1.4627 0 .06908.68367 0 0)" x1="5.266" y1="18.726" x2="8.212" y2="52.626"><stop stop-color="#fff" stop-opacity=".701"/><stop offset="1" stop-color="#fff" stop-opacity="0"/></linearGradient><linearGradient id="1" gradientUnits="userSpaceOnUse" gradientTransform="matrix(1.5353 0 0 .65134 3.451 2.448)" x1="14.899" y1="27.06" x2="22.715" y2="41.837"><stop stop-color="#fff" stop-opacity=".134"/><stop offset="1" stop-color="#fff" stop-opacity=".052"/></linearGradient><linearGradient id="2" gradientUnits="userSpaceOnUse" gradientTransform="matrix(1 0 0 1.02212 52.06-1.323)" x1="22.18" y1="36.988" x2="22.07" y2="32.05"><stop stop-color="#6194cb"/><stop offset="1" stop-color="#729fcf"/></linearGradient><radialGradient xlink:href="#6" id="A" gradientUnits="userSpaceOnUse" gradientTransform="matrix(2.77439 0 0 1.96971-1891.63-872.89)" cx="605.71" cy="486.65" fx="605.71" fy="486.65" r="117.14"/><radialGradient id="9" gradientUnits="userSpaceOnUse" gradientTransform="matrix(1.01564 0 .10311 1.0005 0-.084)" cx="26.11" cy="38.2" fx="26.11" fy="38.2" r="32.26"><stop stop-color="#a0a0a0"/><stop offset="1" stop-color="#a8a8a8"/></radialGradient><radialGradient xlink:href="#6" id="8" gradientUnits="userSpaceOnUse" gradientTransform="matrix(-2.77439 0 0 1.96971 112.76-872.89)" cx="605.71" cy="486.65" fx="605.71" fy="486.65" r="117.14"/><radialGradient id="B" gradientUnits="userSpaceOnUse" gradientTransform="matrix(.96827 0 0 1.04669 44.36-17.01)" cx="8.824" cy="3.756" fx="8.824" fy="3.756" r="37.752"><stop stop-color="#a3a3a3"/><stop offset="1" stop-color="#4c4c4c"/></radialGradient></defs><sodipodi:namedview pagecolor="#ffffff" bordercolor="#666666" borderopacity="1.0" showgrid="false"/><metadata><rdf:RDF><cc:Work><dc:format>image/svg+xml</dc:format><dc:type rdf:resource="http://purl.org/dc/dcmitype/StillImage"/><dc:title>Folder Icon Accept</dc:title><dc:date>2005-01-31</dc:date><dc:creator><cc:Agent><dc:title>Jakub Steiner</dc:title></cc:Agent></dc:creator><cc:license rdf:resource="http://creativecommons.org/licenses/publicdomain/"/><dc:source>http://jimmac.musichall.cz</dc:source><dc:description>Active state - when files are being dragged to.</dc:description><dc:publisher><cc:Agent><dc:title>Novell, Inc.</dc:title></cc:Agent></dc:publisher></cc:Work><cc:License rdf:about="http://creativecommons.org/licenses/publicdomain/"><cc:permits rdf:resource="http://creativecommons.org/ns#Reproduction"/><cc:permits rdf:resource="http://creativecommons.org/ns#Distribution"/><cc:permits rdf:resource="http://creativecommons.org/ns#DerivativeWorks"/></cc:License></rdf:RDF></metadata><g color="#000"><g stroke-linecap="round"><g stroke-linejoin="round"><path d="m4.62 38.651c.042.42.497.841.911.841h31.14c.414 0 .786-.42.744-.841l-2.697-27.12c-.042-.42-.497-.841-.911-.841h-12.723c-.591 0-1.209-.38-1.403-.96l-1.103-3.306c-.169-.507-.547-.736-1.314-.736h-14.937c-.414 0-.786.42-.744.841l3.042 32.12z" marker="none" fill="url(#9)" stroke="#5a5a5a"/><g fill="#729fcf" stroke="#000"><path d="m3.339 17.533h31.15" marker="none" opacity=".114"/><path d="m5.33 37.533h29.988" marker="none" opacity=".114"/><path d="m5.33 35.533h29.988" marker="none" opacity=".114"/></g></g><g transform="matrix(.02165 0 0 .01904 42.42 36.934)"><path marker="none" opacity=".402" fill="url(#7)" d="m-1559.25-150.7h1339.63v478.36h-1339.63z"/><path d="m-219.62-150.68c0 0 0 478.33 0 478.33 142.87.9 345.4-107.17 345.4-239.2 0-132.03-159.44-239.13-345.4-239.13" marker="none" opacity=".402" fill="url(#A)"/><path d="m-1559.25-150.68c0 0 0 478.33 0 478.33-142.87.9-345.4-107.17-345.4-239.2 0-132.03 159.44-239.13 345.4-239.13" marker="none" opacity=".402" fill="url(#8)"/></g></g><path d="m6.172 38.419c.031.31-.155.517-.475.414-.321-.103-.549-.31-.58-.621l-3.03-31.367c-.031-.31.157-.498.467-.498l14.75-.091c.531-.003.739.053.88.517 0 0 1.085 3.113 1.246 3.698l-1.556-2.917c-.265-.497-.599-.414-.973-.414h-13.13c-.31 0-.496.207-.465.517l2.979 30.865-.114-.103" marker="none" display="block" stroke-width="1.173" fill="url(#3)"/><g fill="#729fcf" stroke="#000" stroke-linejoin="round" stroke-linecap="round"><path d="m2.305 7.533h14.784" marker="none" opacity=".114"/><path d="m2.757 11.533h30.739" marker="none" opacity=".114"/></g></g><g fill="#fff" display="block" stroke="#000" fill-opacity=".58"><path d="m41.786 9.04c.01-.475.015-.725-.423-.724l-12.556.009c-.3 0-.325-.143 0 0 .325.143 1.247.658 2.183.701 0 0 10.796.016 10.797.015" stroke="none" transform="matrix(1.03442 0 .10452 1.03442-10.03 2.632)"/></g><g stroke="#000"><g fill="#729fcf" stroke-linejoin="round" stroke-linecap="round" color="#000"><path d="m3.163 15.533h30.831" marker="none" opacity=".114"/><path d="m5.159 33.533h29.988" marker="none" opacity=".114"/><path d="m4.866 31.533h30.11" marker="none" opacity=".114"/><path d="m4.634 29.533h30.17" marker="none" opacity=".114"/><path d="m4.463 27.533h30.17" marker="none" opacity=".114"/><path d="m4.256 25.533h30.21" marker="none" opacity=".114"/><path d="m4.02 23.533h30.27" marker="none" opacity=".114"/><path d="m3.853 21.533h30.27" marker="none" opacity=".114"/></g><path d="m41.786 9.04c.01-.475.015-.725-.423-.724l-12.556.009c-.3 0-.325-.143 0 0 .325.143 1.247.658 2.183.701 0 0 10.796.016 10.797.015" stroke="none" transform="matrix(1.03442 0 .10452 1.03442-10.03 2.632)" fill="#fff" display="block" fill-opacity=".58"/><g fill="#729fcf" display="inline" stroke-linejoin="round" fill-opacity="1" stroke-linecap="round" color="#000"><path d="m2.964 13.533h31.03" marker="none" opacity=".114"/><path d="m3.651 19.533h30.3" marker="none" opacity=".114"/><path d="m2.524 9.533h15.281" marker="none" opacity=".114"/></g></g><g fill-opacity="1"><g display="block" color="#000"><path d="m34.375 14.13l2.625 24.625-31 .125c0 0-1.875-24.75-1.875-24.75 0 0 30.375 0 30.25 0" marker="none" opacity=".392" fill="url(#5)" stroke-linejoin="round"/><path d="m43.38 2.494c.5 16.879-9.08 18.528-6.01 29 0 0-31.487.886-31.487.886-1.875-12.853 8.375-21.21 5.375-29.731l32.13-.155z" marker="none" fill="url(#0)" stroke="url(#B)"/><path d="m15.438 6.562h23.563" marker="none" fill="none" stroke="#a1a1a1"/><path d="m5.779 39.07c.103.211.31.423.621.423h33.31c.207 0 .521-.126.708-.264.53-.392.655-.612.893-.973 2.448-3.715 5.805-19.277 5.805-19.277.103-.211-.103-.423-.414-.423h-34.924c-.31 0-1.656 16.11-4.863 19.287l-1.238 1.228h.103z" marker="none" fill="url(#2)" stroke-linejoin="round" stroke="#3465a4"/><path d="m15.356 8.562h19.725" marker="none" fill="none" stroke="#a1a1a1"/></g><path d="m13.13 20.14c-.773 4.991-1.501 9.01-2.716 13.514 2.386-.707 7.116-3.205 17.12-3.205 10 0 16.724-9.249 17.652-10.354l-32.05.044" fill="url(#1)" fill-rule="evenodd"/><g color="#000"><g fill="none"><path d="m15.14 10.563h24.315" marker="none" display="block" stroke="#a1a1a1"/><path d="m45.82 19.688h-33.16c0 0-2.148 16.02-4.722 18.241 8.121 0 31.571-.049 31.591-.049 1.752 0 4.908-12.636 6.29-18.19z" marker="none" opacity=".523" fill-rule="evenodd" stroke-linecap="round" stroke="url(#4)"/><g display="block" stroke="#a1a1a1"><path d="m14.399 12.563h23.853" marker="none"/><path d="m13.629 14.563h23.346" marker="none"/><path d="m12.521 16.563h18.646" marker="none"/></g></g><path d="m6.375 31.75c-1.241-12.238 7.188-19.06 5.625-28.75h30.875l-30 .625c1.25 9.563-6.196 14.646-6.5 28.13" marker="none" display="block" fill="#fff" stroke="none"/></g></g></svg>