<?xml version="1.0" encoding="UTF-8" standalone="no"?><!-- Created with Inkscape (http://www.inkscape.org/) --><svg xmlns:dc="http://purl.org/dc/elements/1.1/" xmlns:cc="http://creativecommons.org/ns#" xmlns:rdf="http://www.w3.org/1999/02/22-rdf-syntax-ns#" xmlns:svg="http://www.w3.org/2000/svg" xmlns="http://www.w3.org/2000/svg" xmlns:xlink="http://www.w3.org/1999/xlink" xmlns:sodipodi="http://sodipodi.sourceforge.net/DTD/sodipodi-0.dtd" xmlns:inkscape="http://www.inkscape.org/namespaces/inkscape" width="48" height="48" id="svg249"><defs><linearGradient id="0" gradientUnits="userSpaceOnUse" gradientTransform="matrix(2.77439 0 0 1.96971-1892.18-872.89)" x1="302.86" y1="366.65" x2="302.86" y2="609.51"><stop stop-opacity="0"/><stop offset=".5"/><stop offset="1" stop-opacity="0"/></linearGradient><linearGradient id="1"><stop/><stop offset="1" stop-opacity="0"/></linearGradient><radialGradient xlink:href="#B" id="8" gradientUnits="userSpaceOnUse" cx="9.413" cy="18.811" fx="9.413" fy="18.811" r="1.208"/><radialGradient xlink:href="#1" id="9" gradientUnits="userSpaceOnUse" gradientTransform="matrix(2.77439 0 0 1.96971-1891.63-872.89)" cx="605.71" cy="486.65" fx="605.71" fy="486.65" r="117.14"/><radialGradient gradientUnits="userSpaceOnUse" fy="114.57" fx="20.892" r="5.256" cy="114.57" cx="20.892" id="A" xlink:href="#B"/><radialGradient xlink:href="#1" id="7" gradientUnits="userSpaceOnUse" gradientTransform="matrix(-2.77439 0 0 1.96971 112.76-872.89)" cx="605.71" cy="486.65" fx="605.71" fy="486.65" r="117.14"/><radialGradient id="6" gradientUnits="userSpaceOnUse" cx="55" cy="125" fx="55" fy="125" r="14.375"><stop stop-color="#fff"/><stop offset=".5" stop-color="#fff520" stop-opacity=".891"/><stop offset="1" stop-color="#fff300" stop-opacity="0"/></radialGradient><radialGradient r="86.71" fy="35.737" fx="33.967" cy="35.737" cx="33.967" gradientTransform="scale(.96049 1.04113)" gradientUnits="userSpaceOnUse" id="2"><stop stop-color="#fafafa"/><stop offset="1" stop-color="#bbb"/></radialGradient><radialGradient gradientUnits="userSpaceOnUse" fy="64.57" fx="20.892" r="5.257" cy="64.57" cx="20.892" id="B"><stop stop-color="#f0f0f0"/><stop offset="1" stop-color="#9a9a9a"/></radialGradient><radialGradient xlink:href="#A" id="3" gradientUnits="userSpaceOnUse" cx="9.413" cy="30.3" fx="9.413" fy="30.3" r="1.207"/><radialGradient r="37.752" fy="3.756" fx="8.824" cy="3.756" cx="8.824" gradientTransform="matrix(.96827 0 0 1.03277 3.354.646)" gradientUnits="userSpaceOnUse" id="5"><stop stop-color="#a3a3a3"/><stop offset="1" stop-color="#4c4c4c"/></radialGradient><radialGradient r="38.16" fy="7.268" fx="8.144" cy="7.268" cx="8.144" gradientTransform="matrix(.96827 0 0 1.03277 3.354.646)" gradientUnits="userSpaceOnUse" id="4"><stop stop-color="#fff"/><stop offset="1" stop-color="#f8f8f8"/></radialGradient></defs><sodipodi:namedview pagecolor="#ffffff" bordercolor="#666666" borderopacity="0.32941176" showgrid="false"/><metadata><rdf:RDF><cc:Work><dc:format>image/svg+xml</dc:format><dc:type rdf:resource="http://purl.org/dc/dcmitype/StillImage"/><dc:title>New Document</dc:title><dc:creator><cc:Agent><dc:title>Jakub Steiner</dc:title></cc:Agent></dc:creator><dc:source>http://jimmac.musichall.cz</dc:source><cc:license rdf:resource="http://creativecommons.org/licenses/publicdomain/"/></cc:Work><cc:License rdf:about="http://creativecommons.org/licenses/publicdomain/"><cc:permits rdf:resource="http://creativecommons.org/ns#Reproduction"/><cc:permits rdf:resource="http://creativecommons.org/ns#Distribution"/><cc:permits rdf:resource="http://creativecommons.org/ns#DerivativeWorks"/></cc:License></rdf:RDF></metadata><g stroke-linecap="round" color="#000"><g transform="matrix(.02165 0 0 .01486 43.01 42.685)"><path marker="none" opacity=".402" fill="url(#0)" d="m-1559.25-150.7h1339.63v478.36h-1339.63z"/><path d="m-219.62-150.68c0 0 0 478.33 0 478.33 142.87.9 345.4-107.17 345.4-239.2 0-132.03-159.44-239.13-345.4-239.13" marker="none" opacity=".402" fill="url(#9)"/><path d="m-1559.25-150.68c0 0 0 478.33 0 478.33-142.87.9-345.4-107.17-345.4-239.2 0-132.03 159.44-239.13 345.4-239.13" marker="none" opacity=".402" fill="url(#7)"/></g><g display="block" stroke-linejoin="round"><rect ry="1.149" y="3.646" x="6.604" height="40.92" width="34.875" marker="none" fill="url(#2)" stroke="url(#5)" rx="1.149"/><rect rx=".149" ry=".149" y="4.584" x="7.666" height="38.946" width="32.776" marker="none" fill="none" stroke="url(#4)"/></g></g><g transform="translate(.646-.038)"><g transform="matrix(.2297 0 0 .2297 4.967 4.245)" fill="#fff"><path d="m23.428 113.07c0 1.973-1.6 3.572-3.573 3.572-1.974 0-3.573-1.6-3.573-3.572 0-1.974 1.6-3.573 3.573-3.573 1.973 0 3.573 1.6 3.573 3.573"/><path d="m23.428 63.07c0 1.973-1.6 3.573-3.573 3.573-1.974 0-3.573-1.6-3.573-3.573 0-1.974 1.6-3.573 3.573-3.573 1.973 0 3.573 1.6 3.573 3.573"/></g><path d="m9.995 29.952c0 .453-.368.82-.821.82-.453 0-.821-.368-.821-.82 0-.453.368-.821.821-.821.453 0 .821.368.821.821" fill="url(#3)"/><path d="m9.995 18.467c0 .453-.368.821-.821.821-.453 0-.821-.368-.821-.821 0-.453.368-.821.821-.821.453 0 .821.368.821.821" fill="url(#8)"/></g><g fill="none" fill-rule="evenodd" fill-opacity=".75"><path d="m11.506 5.494v37.907" stroke-opacity=".018" stroke="#000" stroke-width=".989"/><path d="m12.5 5.02v38.02" stroke-opacity=".205" stroke="#fff"/></g><path d="M69.375 125A14.375 14.375 0 1 1 40.625 125 14.375 14.375 0 1 1 69.375 125" transform="matrix(.78329 0 0 .78329-6.341-86.65)" fill="url(#6)" display="block" stroke-linejoin="round" marker="none" color="#000" stroke-width="1.25"/></svg>