<?xml version="1.0" encoding="UTF-8" standalone="no"?><!-- Created with Inkscape (http://www.inkscape.org/) --><svg xmlns:dc="http://purl.org/dc/elements/1.1/" xmlns:cc="http://creativecommons.org/ns#" xmlns:rdf="http://www.w3.org/1999/02/22-rdf-syntax-ns#" xmlns:svg="http://www.w3.org/2000/svg" xmlns="http://www.w3.org/2000/svg" xmlns:xlink="http://www.w3.org/1999/xlink" xmlns:sodipodi="http://sodipodi.sourceforge.net/DTD/sodipodi-0.dtd" xmlns:inkscape="http://www.inkscape.org/namespaces/inkscape" width="48" height="48" id="svg1307"><defs><linearGradient id="0" x1="21.702" y1="8.912" x2="21.816" y2="35.546" gradientUnits="userSpaceOnUse"><stop/><stop offset="1" stop-color="#fff" stop-opacity=".784"/></linearGradient><radialGradient id="3" gradientUnits="userSpaceOnUse" gradientTransform="matrix(3.65882 0 0 2.08078-62.42 12.762)" cx="21.929" cy="-3.218" fx="21.929" fy="-3.218" r="13"><stop stop-color="#fff"/><stop offset="1" stop-color="#fff" stop-opacity="0"/></radialGradient><radialGradient id="2" cx="22.5" cy="28.12" fx="22.5" fy="28.12" r="14.538" gradientTransform="matrix(2.36556 0 0 2.20285-30.725-34.24)" gradientUnits="userSpaceOnUse"><stop stop-color="#ef2929"/><stop offset="1" stop-color="#c00"/></radialGradient><radialGradient id="1" gradientUnits="userSpaceOnUse" gradientTransform="matrix(1 0 0 .53672 0 16.873)" cx="24.837" cy="36.421" fx="24.837" fy="36.421" r="15.645"><stop/><stop offset="1" stop-opacity="0"/></radialGradient></defs><sodipodi:namedview pagecolor="#ffffff" bordercolor="#666666" borderopacity="0.11372549" showgrid="false" fill="#ef2929" showguides="false" guidetolerance="1px" stroke="#ef2929" showborder="true"><sodipodi:guide orientation="horizontal" position="38.996647"/><sodipodi:guide orientation="horizontal" position="9.0140845"/><sodipodi:guide orientation="vertical" position="9.0140845"/><sodipodi:guide orientation="vertical" position="38.975184"/><sodipodi:guide orientation="horizontal" position="22.988281"/><sodipodi:guide orientation="vertical" position="23.908786"/><sodipodi:guide orientation="vertical" position="157.99417"/><sodipodi:guide orientation="horizontal" position="-36.062446"/><sodipodi:guide orientation="horizontal" position="-58.02695"/><sodipodi:guide orientation="vertical" position="180.00287"/><sodipodi:guide orientation="vertical" position="107.92217"/><sodipodi:guide orientation="vertical" position="129.93087"/><sodipodi:guide orientation="horizontal" position="19.996875"/><sodipodi:guide orientation="horizontal" position="63.039674"/><sodipodi:guide orientation="horizontal" position="49.066305"/><sodipodi:guide orientation="horizontal" position="-86.007168"/><sodipodi:guide orientation="horizontal" position="-108.09009"/><sodipodi:guide orientation="horizontal" position="-100.15429"/><inkscape:grid type="xygrid" originx="0px" originy="0px" spacingx="0.5px" spacingy="0.5px" color="#00f" empcolor="#0000ff" opacity=".2" empopacity="0.4" empspacing="2"/></sodipodi:namedview><metadata><rdf:RDF><cc:Work><dc:format>image/svg+xml</dc:format><dc:type rdf:resource="http://purl.org/dc/dcmitype/StillImage"/><dc:title>Media Record</dc:title><dc:creator><cc:Agent><dc:title>Lapo Calamandrei</dc:title></cc:Agent></dc:creator><cc:license rdf:resource="http://creativecommons.org/licenses/publicdomain/"/><dc:subject><rdf:Bag><rdf:li>media</rdf:li><rdf:li>player</rdf:li><rdf:li>record</rdf:li><rdf:li>music</rdf:li><rdf:li>sound</rdf:li><rdf:li>video</rdf:li></rdf:Bag></dc:subject></cc:Work><cc:License rdf:about="http://creativecommons.org/licenses/publicdomain/"><cc:permits rdf:resource="http://creativecommons.org/ns#Reproduction"/><cc:permits rdf:resource="http://creativecommons.org/ns#Distribution"/><cc:permits rdf:resource="http://creativecommons.org/ns#DerivativeWorks"/></cc:License></rdf:RDF></metadata><g fill-rule="evenodd"><g color="#000"><path transform="matrix(.9207 0 0 .99358 3.679 1.641)" d="M36.5 22A14 13 0 1 1 8.5 22 14 13 0 1 1 36.5 22z" marker="none" opacity=".15" stroke-width="3.137" stroke-linecap="square" fill="url(#2)" stroke-linejoin="round" stroke="url(#0)"/><path d="M40.481863 36.421127A15.644737 8.396894 0 1 1 9.192389 36.421127 15.644737 8.396894 0 1 1 40.481863 36.421127" transform="matrix(1.15053 0 0 .56569-4.577 16.553)" marker="none" opacity=".04" stroke-miterlimit="10" fill="url(#1)"/><g stroke-linejoin="round" stroke-linecap="square"><path d="M36.5 22A14 13 0 1 1 8.5 22 14 13 0 1 1 36.5 22z" transform="matrix(.89486 0 0 .9657 3.856 2.66)" marker="none" stroke-width="1.076" fill="url(#2)" stroke="#c00"/><path d="M38 24A14 14 0 1 1 10 24 14 14 0 1 1 38 24z" transform="matrix(.82143 0 0 .82143 4.285 4.191)" marker="none" stroke-width="1.217" fill="none" stroke="#f77d7d"/></g></g><path d="m23.843 11.906c-6.28.08-11.404 4.992-11.813 11.188 6.118 2.517 13.87-1.451 23.14-3.382-.688-2.749-4.555-7.806-11.173-7.806-.052 0-.105-.001-.156 0" opacity=".6" fill="url(#3)" stroke-width=".313"/></g></svg>