<?xml version="1.0" encoding="utf-8"?>
<!-- Generator: Adobe Illustrator 17.0.0, SVG Export Plug-In . SVG Version: 6.00 Build 0)  -->
<!DOCTYPE svg PUBLIC "-//W3C//DTD SVG 1.1//EN" "http://www.w3.org/Graphics/SVG/1.1/DTD/svg11.dtd">
<svg version="1.1" id="Layer_1" xmlns="http://www.w3.org/2000/svg" xmlns:xlink="http://www.w3.org/1999/xlink" x="0px" y="0px"
	 width="500px" height="500px" viewBox="0 0 500 500" enable-background="new 0 0 500 500" xml:space="preserve">
<circle opacity="0.9" fill="#498BEA" cx="251" cy="251" r="220.5"/>
<polyline fill="none" points="99.791,300.202 99.796,300.204 99.791,300.202 "/>
<polyline fill="none" points="99.778,300.195 99.791,300.202 99.778,300.195 "/>
<path fill="none" d="M97.411,298.878c0,0,1.015,0.564,2.368,1.316C98.08,299.25,97.411,298.878,97.411,298.878"/>
<path fill="none" d="M106.531,303.949c0,0-0.416-0.231-1.069-0.595C106.213,303.773,106.531,303.949,106.531,303.949"/>
<path fill="#23F989" d="M337.612,59.919c-4.905,0-9.316,1.517-12.945,5.058c-7.931,27.762,9.146,74.055,25.5,96.048
	c6.699,9.009,12.578,12.377,17.915,12.377c7.906,0,14.623-7.388,21.066-14.776c6.442-7.388,12.609-14.776,19.408-14.776
	c1.818,0,3.679,0.527,5.605,1.724c53.736,33.392-18.666,159.777-27.039,210.195c-3.151,18.973-2.259,33.045,7.249,33.045
	c4.623,0,11.283-3.326,20.507-11.033c6.21-5.189,11.409-10.881,15.782-16.978c4.759-7.773,9.025-15.872,12.763-24.266
	c11.227-29.939,11.15-64.966,14.293-96.686c0.981-9.898,0.979-19.504,0.091-28.832C445.025,144.13,400.642,88.453,340.794,60.12
	C339.713,59.987,338.653,59.919,337.612,59.919L337.612,59.919z M209.648,56.667c-7.021,0-14.122,0.964-20.635,2.356
	c-19.353,4.136-44.914,12.647-67.527,25.105c-23.729,18.412-43.419,41.78-57.523,68.549c-18.871,54.658-21.116,115.784,37.89,148.67
	c-0.712-0.396-1.421-0.79-2.056-1.143c0.594,0.33,1.313,0.73,2.172,1.208l0,0l0,0c39.173,21.779,26.567,85.227,38.65,129.369
	c32.037,19.636,69.719,30.954,110.049,30.954c0.739,0,1.471-0.004,2.208-0.011c16.799-6.085,29.972-15.224,33.896-26.794
	c10.072-29.697-91.125-84.76-109.682-98.713c-49.417-37.156-74.483-69.395-2.836-108.562c19.88-10.867,75.456-15.07,62.608-50.012
	c-9.18-24.969-65.033-47.174-31.991-73.63c9.854-7.89,52.435-8.663,43.061-27.409C240.32,61.379,225.173,56.667,209.648,56.667
	L209.648,56.667z"/>
</svg>
