<?xml version="1.0" encoding="utf-8"?>
<!-- Generator: Adobe Illustrator 17.0.0, SVG Export Plug-In . SVG Version: 6.00 Build 0)  -->
<!DOCTYPE svg PUBLIC "-//W3C//DTD SVG 1.1//EN" "http://www.w3.org/Graphics/SVG/1.1/DTD/svg11.dtd">
<svg version="1.1" id="Layer_1" xmlns="http://www.w3.org/2000/svg" xmlns:xlink="http://www.w3.org/1999/xlink" x="0px" y="0px"
	 width="24px" height="24px" viewBox="0 0 24 24" enable-background="new 0 0 24 24" xml:space="preserve">
<path opacity="0.9" fill="#9B59B6" enable-background="new    " d="M23.558,13.684c-0.345-2.414-1.379-10.171-4.913-10.171
	s-4.77,1.81-6.645,1.81s-3.11-1.81-6.644-1.81S0.787,11.27,0.442,13.684s0.259,6.12,1.896,6.724c1.638,0.603,4.31-2.327,5.689-4.482
	S12,14.029,12,14.029s2.593-0.259,3.972,1.896s4.051,5.086,5.689,4.482C23.299,19.804,23.903,16.097,23.558,13.684z M6.557,11.845
	c-1.498,0-2.712-1.214-2.712-2.712s1.214-2.712,2.712-2.712S9.27,7.634,9.27,9.132S8.055,11.845,6.557,11.845z M15.311,9.57
	c-0.624-0.092-1.054-0.673-0.962-1.296c0.092-0.624,0.673-1.054,1.296-0.962c0.624,0.092,1.054,0.672,0.962,1.296
	C16.514,9.231,15.934,9.662,15.311,9.57z M18.501,11.195c-0.092,0.623-0.672,1.054-1.296,0.962
	c-0.623-0.092-1.054-0.672-0.962-1.296c0.092-0.624,0.673-1.054,1.296-0.962C18.163,9.992,18.593,10.572,18.501,11.195z
	 M17.861,7.728c-0.623-0.092-1.054-0.672-0.962-1.296c0.092-0.623,0.672-1.054,1.296-0.962c0.624,0.092,1.054,0.672,0.962,1.296
	C19.065,7.389,18.484,7.82,17.861,7.728z M20.979,9.255c-0.092,0.623-0.673,1.054-1.296,0.962c-0.624-0.092-1.054-0.672-0.962-1.296
	c0.092-0.624,0.673-1.054,1.296-0.962C20.64,8.052,21.071,8.631,20.979,9.255z"/>
</svg>
