<?xml version="1.0" encoding="utf-8"?>
<!-- Generator: Adobe Illustrator 17.0.0, SVG Export Plug-In . SVG Version: 6.00 Build 0)  -->
<!DOCTYPE svg PUBLIC "-//W3C//DTD SVG 1.1//EN" "http://www.w3.org/Graphics/SVG/1.1/DTD/svg11.dtd">
<svg version="1.1" id="Layer_1" xmlns="http://www.w3.org/2000/svg" xmlns:xlink="http://www.w3.org/1999/xlink" x="0px" y="0px"
	 width="24px" height="24px" viewBox="0 0 24 24" enable-background="new 0 0 24 24" xml:space="preserve">
<circle opacity="0.9" fill="#498BEA" cx="12" cy="12" r="11.418"/>
<polyline fill="#40FF96" points="4.17,14.548 4.17,14.548 4.17,14.548 "/>
<polyline fill="#40FF96" points="4.17,14.547 4.17,14.548 4.17,14.547 "/>
<path fill="#40FF96" d="M4.047,14.479c0,0,0.053,0.029,0.123,0.068C4.082,14.498,4.047,14.479,4.047,14.479"/>
<path fill="#40FF96" d="M4.519,14.742c0,0-0.022-0.012-0.055-0.031C4.503,14.733,4.519,14.742,4.519,14.742"/>
<path fill="#23F989" d="M16.485,2.106c-0.254,0-0.482,0.079-0.67,0.262c-0.411,1.438,0.474,3.835,1.32,4.974
	c0.347,0.466,0.651,0.641,0.928,0.641c0.409,0,0.757-0.383,1.091-0.765c0.334-0.383,0.653-0.765,1.005-0.765
	c0.094,0,0.191,0.027,0.29,0.089c2.783,1.729-0.967,8.274-1.4,10.884c-0.163,0.982-0.117,1.711,0.375,1.711
	c0.239,0,0.584-0.172,1.062-0.571c0.322-0.269,0.591-0.563,0.817-0.879c0.246-0.403,0.467-0.822,0.661-1.257
	c0.581-1.55,0.577-3.364,0.74-5.007c0.051-0.513,0.051-1.01,0.005-1.493c-0.662-3.464-2.96-6.347-6.059-7.814
	C16.594,2.109,16.539,2.106,16.485,2.106 M9.859,1.937c-0.364,0-0.731,0.05-1.069,0.122c-1.002,0.214-2.326,0.655-3.497,1.3
	c-1.229,0.953-2.248,2.163-2.979,3.55c-0.977,2.83-1.093,5.996,1.962,7.698c-0.037-0.021-0.074-0.041-0.106-0.059
	c0.031,0.017,0.068,0.038,0.112,0.063l0,0l0,0c2.028,1.128,1.376,4.413,2.001,6.699c1.659,1.017,3.61,1.603,5.698,1.603
	c0.038,0,0.076,0,0.114-0.001c0.87-0.315,1.552-0.788,1.755-1.387c0.522-1.538-4.719-4.389-5.679-5.112
	c-2.559-1.924-3.857-3.593-0.147-5.622c1.029-0.563,3.907-0.78,3.242-2.59C10.793,6.909,7.9,5.759,9.611,4.389
	c0.51-0.409,2.715-0.449,2.23-1.419C11.447,2.181,10.663,1.937,9.859,1.937"/>
</svg>
