<?xml version="1.0" encoding="utf-8"?>
<!-- Generator: Adobe Illustrator 17.0.0, SVG Export Plug-In . SVG Version: 6.00 Build 0)  -->
<!DOCTYPE svg PUBLIC "-//W3C//DTD SVG 1.1//EN" "http://www.w3.org/Graphics/SVG/1.1/DTD/svg11.dtd">
<svg version="1.1" id="Layer_1" xmlns="http://www.w3.org/2000/svg" xmlns:xlink="http://www.w3.org/1999/xlink" x="0px" y="0px"
	 width="24px" height="24px" viewBox="0 0 24 24" enable-background="new 0 0 24 24" xml:space="preserve">
<path opacity="0.9" fill="#7F7F7F" enable-background="new    " d="M21.846,19.425c0,1.234-1,2.235-2.235,2.235H4.388
	c-1.234,0-2.235-1-2.235-2.235V4.575c0-1.234,1-2.235,2.235-2.235h15.223c1.234,0,2.235,1,2.235,2.235V19.425z"/>
<g>
	<path fill="#FFFFFF" d="M7.095,11.8l-1.174,3.556h-1.51L8.252,4.049h1.761l3.859,11.306h-1.56L11.104,11.8H7.095z M10.802,10.659
		L9.695,7.404c-0.252-0.737-0.42-1.409-0.588-2.063H9.074C8.906,6.012,8.722,6.7,8.504,7.388l-1.107,3.271H10.802z"/>
</g>
</svg>
