<?xml version="1.0" encoding="utf-8"?>
<!-- Generator: Adobe Illustrator 17.0.0, SVG Export Plug-In . SVG Version: 6.00 Build 0)  -->
<!DOCTYPE svg PUBLIC "-//W3C//DTD SVG 1.1//EN" "http://www.w3.org/Graphics/SVG/1.1/DTD/svg11.dtd">
<svg version="1.1" id="Layer_1" xmlns="http://www.w3.org/2000/svg" xmlns:xlink="http://www.w3.org/1999/xlink" x="0px" y="0px"
	 width="24px" height="24px" viewBox="0 0 24 24" enable-background="new 0 0 24 24" xml:space="preserve">
<g opacity="0.9">
	<path fill="#34A853" d="M5.926,9.377c0,0,0.057,0.721,1.181,3.231c1.11,2.468-3.274,3.755-4.766,4.752
		c-2.277,1.513-2.539,4.462-1.344,5.657c1.181,1.181,4.115,0.905,5.643-1.358c0.997-1.492,2.27-5.876,4.78-4.766
		c2.468,1.124,3.203,1.181,3.203,1.181l9.079-9.079l-8.697-8.697L5.926,9.377z M4.604,21.899c-0.693,0.693-1.81,0.693-2.503,0
		s-0.693-1.81,0-2.503s1.81-0.693,2.503,0S5.297,21.206,4.604,21.899z M21.49,8.931c0,0-0.658,0.658-1.478,1.478
		c-0.771,0.771-2.348,1.273-2.213,0.163c0.148-1.167-1.351,0.064-2.319-1.061c-1.004-1.117,1.025-2.977-0.827-2.977
		c-3.748,0-0.757-2.977-0.601-3.161C14.264,3.118,15,2.425,15,2.425L21.49,8.931z"/>
</g>
</svg>
