<?xml version="1.0" encoding="utf-8"?>
<!-- Generator: Adobe Illustrator 17.0.0, SVG Export Plug-In . SVG Version: 6.00 Build 0)  -->
<!DOCTYPE svg PUBLIC "-//W3C//DTD SVG 1.1//EN" "http://www.w3.org/Graphics/SVG/1.1/DTD/svg11.dtd">
<svg version="1.1" id="Layer_1" xmlns="http://www.w3.org/2000/svg" xmlns:xlink="http://www.w3.org/1999/xlink" x="0px" y="0px"
	 width="24px" height="24px" viewBox="0 0 24 24" enable-background="new 0 0 24 24" xml:space="preserve">
<g>
	<g>
		<g>
			<g>
				<path fill="#44A3F2" d="M6.993,7.213C6.499,7.448,6.095,8.089,6.095,8.636v8.728c0,0.547,0.404,1.187,0.898,1.423l7.947,3.704
					c0.494,0.235,0.898-0.02,0.898-0.567L15.839,4.08c0-0.547-0.404-0.803-0.898-0.567L6.993,7.213z"/>
			</g>
		</g>
	</g>
	<g>
		<g>
			<g>
				<path fill="#44A3F2" d="M2.093,8.611c0-0.547,0.448-0.995,0.995-0.995h0.765c0.547,0,0.995,0.448,0.995,0.995v8.778
					c0,0.547-0.448,0.995-0.995,0.995H3.088c-0.547,0-0.995-0.448-0.995-0.995V8.611z"/>
			</g>
		</g>
	</g>
	<path fill="#44A3F2" d="M5.154,13"/>
	<path fill="#44A3F2" d="M19.955,20.132l-1.029-1.029c3.366-3.366,3.366-8.843,0-12.21l1.029-1.029
		C23.888,9.8,23.888,16.2,19.955,20.132z"/>
	<path fill="#44A3F2" d="M17.964,18.028l-1.029-1.029c2.205-2.205,2.205-5.793,0-7.999l1.029-1.029
		C20.737,10.745,20.737,15.255,17.964,18.028z"/>
</g>
</svg>
