<?xml version="1.0" encoding="utf-8"?>
<!-- Generator: Adobe Illustrator 17.0.0, SVG Export Plug-In . SVG Version: 6.00 Build 0)  -->
<!DOCTYPE svg PUBLIC "-//W3C//DTD SVG 1.1//EN" "http://www.w3.org/Graphics/SVG/1.1/DTD/svg11.dtd">
<svg version="1.1" id="Layer_1" xmlns="http://www.w3.org/2000/svg" xmlns:xlink="http://www.w3.org/1999/xlink" x="0px" y="0px"
	 width="24px" height="24px" viewBox="0 0 24 24" enable-background="new 0 0 24 24" xml:space="preserve">
<path opacity="0.9" fill="#9B59B6" enable-background="new    " d="M10.963,20.838L10.963,20.838z"/>
<path opacity="0.9" fill="#9B59B6" enable-background="new    " d="M13.02,20.838L13.02,20.838z"/>
<g opacity="0.9" enable-background="new    ">
	<path opacity="0.9" fill="#9B59B6" enable-background="new    " d="M10.879,20.672L10.879,20.672z"/>
	<path opacity="0.9" fill="#9B59B6" enable-background="new    " d="M12.839,20.672L12.839,20.672z"/>
	<path fill="#9B59B6" d="M7.858,13.414c0,2.447,1.688,3.965,4.001,3.965c2.19,0,3.965-1.775,3.965-3.965v-2.519V5.04V4.031
		c0-2.19-1.775-3.965-3.965-3.965S7.858,1.842,7.858,4.031v6.839C7.858,10.87,7.858,13.414,7.858,13.414z"/>
	<path fill="#9B59B6" enable-background="new    " d="M10.879,20.672v1.44H6.487c-0.55,0-0.996,0.446-0.996,0.996v-0.171
		c0,0.551,0.446,0.997,0.996,0.997h10.743c0.55,0,0.996-0.446,0.996-0.997v0.171c0-0.55-0.446-0.996-0.996-0.996h-4.392v-1.44
		c3.296-0.475,5.829-3.291,5.829-6.718h-1.412c0,2.981-2.416,5.418-5.397,5.418c-2.974,0-5.384-2.437-5.384-5.418H5.067
		c0,3.427,2.526,6.243,5.815,6.718"/>
</g>
<g opacity="0.9" enable-background="new    ">
	<g enable-background="new    ">
		<g>
			<path fill="#9B59B6" d="M20.746,13.587l-0.944-0.944c3.088-3.088,3.088-8.112,0-11.2L20.746,0.5
				C24.354,4.109,24.354,9.98,20.746,13.587z"/>
			<path fill="#9B59B6" d="M18.92,11.656l-0.944-0.944C20,8.69,20,5.398,17.977,3.375l0.944-0.944
				C21.464,4.976,21.464,9.113,18.92,11.656z"/>
		</g>
	</g>
	<g enable-background="new    ">
		<path fill="#9B59B6" d="M3.254,0.5l0.944,0.944c-3.088,3.088-3.088,8.112,0,11.2l-0.944,0.944C-0.354,9.978-0.354,4.107,3.254,0.5
			z"/>
		<path fill="#9B59B6" d="M5.08,2.431l0.944,0.944C4,5.398,4,8.689,6.023,10.712L5.08,11.656C2.536,9.111,2.536,4.974,5.08,2.431z"
			/>
	</g>
</g>
</svg>
