<?xml version="1.0" encoding="utf-8"?>
<!-- Generator: Adobe Illustrator 17.0.0, SVG Export Plug-In . SVG Version: 6.00 Build 0)  -->
<!DOCTYPE svg PUBLIC "-//W3C//DTD SVG 1.1//EN" "http://www.w3.org/Graphics/SVG/1.1/DTD/svg11.dtd">
<svg version="1.1" id="Layer_1" xmlns="http://www.w3.org/2000/svg" xmlns:xlink="http://www.w3.org/1999/xlink" x="0px" y="0px"
	 width="24px" height="24px" viewBox="0 0 24 24" enable-background="new 0 0 24 24" xml:space="preserve">
<path opacity="0.9" fill="#44A3F2" enable-background="new    " d="M10.97,12L10.97,12z"/>
<path opacity="0.9" fill="#44A3F2" enable-background="new    " d="M13.027,12L13.027,12z"/>
<g>
	<path opacity="0.9" fill="#44A3F2" enable-background="new    " d="M10.886,20.672L10.886,20.672z"/>
	<path opacity="0.9" fill="#44A3F2" enable-background="new    " d="M12.846,20.672L12.846,20.672z"/>
	<path fill="#44A3F2" d="M7.865,13.414c0,2.447,1.688,3.965,4.001,3.965c2.19,0,3.965-1.775,3.965-3.965v-2.519V5.04V4.031
		c0-2.19-1.775-3.965-3.965-3.965S7.865,1.842,7.865,4.031v6.839C7.865,10.87,7.865,13.414,7.865,13.414z"/>
	<path fill="#44A3F2" d="M10.886,20.672v1.44H6.494c-0.55,0-0.996,0.446-0.996,0.996v-0.171c0,0.551,0.446,0.997,0.996,0.997h10.743
		c0.55,0,0.996-0.446,0.996-0.997v0.171c0-0.55-0.446-0.996-0.996-0.996h-4.392v-1.44c3.296-0.475,5.829-3.291,5.829-6.718h-1.412
		c0,2.981-2.416,5.418-5.397,5.418c-2.974,0-5.384-2.437-5.384-5.418H5.074c0,3.427,2.526,6.243,5.815,6.718"/>
</g>
</svg>
