<?xml version="1.0" encoding="utf-8"?>
<!-- Generator: Adobe Illustrator 17.0.0, SVG Export Plug-In . SVG Version: 6.00 Build 0)  -->
<!DOCTYPE svg PUBLIC "-//W3C//DTD SVG 1.1//EN" "http://www.w3.org/Graphics/SVG/1.1/DTD/svg11.dtd">
<svg version="1.1" id="Layer_1" xmlns="http://www.w3.org/2000/svg" xmlns:xlink="http://www.w3.org/1999/xlink" x="0px" y="0px"
	 width="24px" height="24px" viewBox="0 0 24 24" enable-background="new 0 0 24 24" xml:space="preserve">
<path opacity="0.9" fill="#34A853" enable-background="new    " d="M23.12,12l-3.91,3.91c-0.11-0.48-0.35-0.93-0.72-1.3
	c-1.07-1.07-2.8-1.06-3.87,0c-1.07,1.07-1.07,2.81,0,3.87c0.37,0.37,0.82,0.61,1.3,0.72L12,23.12l-3.99-3.99
	c0.55-0.09,1.08-0.34,1.5-0.77c1.07-1.06,1.06-2.8-0.01-3.86c-1.07-1.07-2.8-1.08-3.87-0.01c-0.42,0.43-0.68,0.95-0.76,1.5L0.88,12
	l3.99-3.99c0.08,0.56,0.34,1.08,0.76,1.5c1.07,1.07,2.8,1.06,3.87-0.01c1.07-1.06,1.08-2.8,0.01-3.86c-0.42-0.43-0.95-0.68-1.5-0.77
	L12,0.88L23.12,12z M18.834,2.43c1.511,0,2.736,1.225,2.736,2.736s-1.225,2.736-2.736,2.736s-2.736-1.225-2.736-2.736
	S17.323,2.43,18.834,2.43z"/>
</svg>
