<?xml version="1.0" encoding="utf-8"?>
<!-- Generator: Adobe Illustrator 17.0.0, SVG Export Plug-In . SVG Version: 6.00 Build 0)  -->
<!DOCTYPE svg PUBLIC "-//W3C//DTD SVG 1.1//EN" "http://www.w3.org/Graphics/SVG/1.1/DTD/svg11.dtd">
<svg version="1.1" id="Layer_1" xmlns="http://www.w3.org/2000/svg" xmlns:xlink="http://www.w3.org/1999/xlink" x="0px" y="0px"
	 width="24px" height="24px" viewBox="0 0 24 24" enable-background="new 0 0 24 24" xml:space="preserve">
<path fill="#44A3F2" d="M21.521,10.146c-0.41-0.059-0.846-0.428-0.973-0.82l-0.609-1.481c-0.191-0.365-0.146-0.935,0.1-1.264
	l0.99-1.318c0.246-0.33,0.227-0.854-0.047-1.162l-1.084-1.086c-0.309-0.272-0.832-0.293-1.164-0.045l-1.316,0.988
	c-0.33,0.248-0.898,0.293-1.264,0.101l-1.48-0.609c-0.395-0.126-0.764-0.562-0.82-0.971L13.62,0.85
	c-0.057-0.409-0.441-0.778-0.85-0.822c0,0-0.255-0.026-0.77-0.026c-0.514,0-0.769,0.026-0.769,0.026
	c-0.41,0.044-0.794,0.413-0.852,0.822l-0.233,1.629c-0.058,0.409-0.427,0.845-0.82,0.971l-1.48,0.609
	C7.48,4.25,6.912,4.206,6.582,3.958L5.264,2.969C4.934,2.721,4.41,2.741,4.101,3.014L3.017,4.1C2.745,4.409,2.723,4.932,2.971,5.262
	L3.959,6.58c0.249,0.33,0.293,0.899,0.102,1.264L3.45,9.326c-0.125,0.393-0.562,0.762-0.971,0.82L0.85,10.377
	c-0.408,0.059-0.777,0.442-0.82,0.853c0,0-0.027,0.255-0.027,0.77s0.027,0.77,0.027,0.77c0.043,0.411,0.412,0.793,0.82,0.852
	l1.629,0.232c0.408,0.059,0.846,0.428,0.971,0.82l0.611,1.48c0.191,0.365,0.146,0.936-0.102,1.264l-0.988,1.318
	c-0.248,0.33-0.308,0.779-0.132,0.994c0.175,0.217,0.677,0.752,0.678,0.754c0.001,0.002,0.171,0.156,0.375,0.344
	c0.204,0.188,1.042,0.449,1.372,0.203l1.317-0.99c0.33-0.246,0.898-0.293,1.264-0.1l1.48,0.609c0.394,0.125,0.763,0.562,0.82,0.971
	l0.233,1.629c0.058,0.408,0.441,0.779,0.852,0.822c0,0,0.255,0.027,0.769,0.027c0.515,0,0.77-0.027,0.77-0.027
	c0.409-0.043,0.793-0.414,0.85-0.822l0.234-1.629c0.057-0.408,0.426-0.846,0.82-0.971l1.48-0.611
	c0.365-0.191,0.934-0.146,1.264,0.102l1.318,0.99c0.332,0.246,0.854,0.227,1.164-0.047l1.082-1.084
	c0.273-0.311,0.293-0.834,0.047-1.164l-0.99-1.318c-0.246-0.328-0.291-0.898-0.1-1.264l0.609-1.48
	c0.127-0.393,0.562-0.762,0.973-0.82l1.627-0.232c0.41-0.059,0.779-0.441,0.822-0.852c0,0,0.027-0.255,0.027-0.77
	c0-0.515-0.027-0.77-0.027-0.77c-0.043-0.41-0.412-0.794-0.822-0.853C23.147,10.377,21.521,10.146,21.521,10.146z M12,15
	c-1.657,0-3-1.344-3-3c0-1.657,1.343-3,3-3s3,1.344,3,3S13.656,15,12,15z"/>
</svg>
