<?xml version="1.0" encoding="UTF-8" standalone="no"?><!-- Created with Inkscape (http://www.inkscape.org/) --><svg xmlns:dc="http://purl.org/dc/elements/1.1/" xmlns:cc="http://creativecommons.org/ns#" xmlns:rdf="http://www.w3.org/1999/02/22-rdf-syntax-ns#" xmlns:svg="http://www.w3.org/2000/svg" xmlns="http://www.w3.org/2000/svg" xmlns:xlink="http://www.w3.org/1999/xlink" xmlns:sodipodi="http://sodipodi.sourceforge.net/DTD/sodipodi-0.dtd" xmlns:inkscape="http://www.inkscape.org/namespaces/inkscape" id="svg1" width="48" height="48" version="1.0"><defs><linearGradient xlink:href="#2" id="3" x1="22.82" y1="28.829" x2="12.85" y2="12.239" gradientTransform="matrix(.94698 0 0 .48732 3.735 4.05)" gradientUnits="userSpaceOnUse"/><linearGradient id="2"><stop stop-color="#f5a108" stop-opacity="0"/><stop offset="1" stop-color="#fefdc3" stop-opacity=".743"/></linearGradient><linearGradient xlink:href="#2" id="1" x1="11.355" y1="32.757" x2="6.358" y2="6.1" gradientTransform="matrix(2.0123 0 0 1.07997.835-1.341)" gradientUnits="userSpaceOnUse"/><linearGradient id="0" x1="33.772" y1="28.533" x2="18.09" y2="-4.046" gradientUnits="userSpaceOnUse"><stop stop-color="#fff"/><stop offset="1" stop-color="#fff" stop-opacity="0"/></linearGradient><radialGradient id="4" cx="17.313" cy="25.531" fx="17.313" fy="25.531" r="9.688" gradientTransform="matrix(1 0 0 .35161 0 16.554)" gradientUnits="userSpaceOnUse"><stop/><stop offset="1" stop-opacity="0"/></radialGradient></defs><sodipodi:namedview pagecolor="#ffffff" bordercolor="#666666" borderopacity="0.11372549" showgrid="false" showguides="true"><inkscape:grid type="xygrid" originx="0px" originy="0px" spacingx="0.50000000mm" spacingy="0.50000000mm" color="#00f" empcolor="#0000ff" opacity=".2" empopacity="0.4" empspacing="5"/></sodipodi:namedview><metadata><rdf:RDF><cc:Work><dc:format>image/svg+xml</dc:format><dc:type rdf:resource="http://purl.org/dc/dcmitype/StillImage"/><dc:title>Favourites (emblem)</dc:title><dc:date>2005-02-01</dc:date><dc:creator><cc:Agent><dc:title>Jakub Steiner</dc:title></cc:Agent></dc:creator><dc:source>http://jimmac.musichall.cz/</dc:source><dc:contributor><cc:Agent><dc:title>Andreas Nilsson &lt;nisses.mail@home.se&gt;</dc:title></cc:Agent></dc:contributor><cc:license rdf:resource="http://creativecommons.org/licenses/publicdomain/"/></cc:Work><cc:License rdf:about="http://creativecommons.org/licenses/publicdomain/"><cc:permits rdf:resource="http://creativecommons.org/ns#Reproduction"/><cc:permits rdf:resource="http://creativecommons.org/ns#Distribution"/><cc:permits rdf:resource="http://creativecommons.org/ns#DerivativeWorks"/></cc:License></rdf:RDF></metadata><path d="M27 25.53125A9.6875 3.40625 0 1 1 7.625 25.53125 9.6875 3.40625 0 1 1 27 25.53125" transform="matrix(2.18291 0 0 2.18291-13.527-17.29)" marker="none" opacity=".409" color="#000" stroke-width="1.105" fill="url(#4)"/><g fill-rule="evenodd"><g stroke-width="1.25"><path d="m22.262 36.31c.058-.086.997 1.112.997 1.112 4.118-4.481 14.629-12.853 17.496-19.835-5.799 6.431-15.273 16.777-18.493 18.723" fill="#d4572d"/><path d="m15.166 7.484c-4.798-.236-7.03 2.846-8.243 5.779-1.2 3.861.496 11.155 8.809 10.6 4.741 0 6.626-4.862 9.121-6.124 2.268-.857 2.446-.934 4.842-.934 3.33 0 9.351-2.41 9.351-4.801-1.023-1.919-3.741-5.335-8.733-4.753-3.178.37-6.185 2.642-6.97 3.772-1.924-1.697-4.381-3.538-8.176-3.538" fill="url(#3)"/></g><path d="m23.925 9c8.303-8.303 19.713-.65 19.638 7.224-.069 7.199-5.555 10.646-19.338 23.45-14.427-11.911-19.51-14.658-19.435-23.2.075-8.841 9.843-15.476 19.13-7.475z" fill="#c71807" stroke="#820000"/><path d="m5.078 16.189c-.218 7.18.795 6.04 2.624 8.317 1.799 2.236 9.642.829 16.682-5.809 7.124-6.717 14.387-2.915 17.907-6.655-2.622-4.497-10.808-9.945-18.343-2.395-9.657-8.727-18.652-.717-18.87 6.543" opacity=".625" fill="url(#1)" stroke-width="1.25"/><path d="m24.02 10.249c7.895-8.533 18.684-1.404 18.614 5.931-.064 6.706-5.574 10.397-18.414 22.325-13.44-11.1-18.574-14.05-18.504-22.01.07-8.236 9.649-14.737 18.304-6.245z" opacity=".392" fill="none" stroke="url(#0)"/></g></svg>