<?xml version="1.0" encoding="utf-8"?>
<!-- Generator: Adobe Illustrator 17.0.0, SVG Export Plug-In . SVG Version: 6.00 Build 0)  -->
<!DOCTYPE svg PUBLIC "-//W3C//DTD SVG 1.1//EN" "http://www.w3.org/Graphics/SVG/1.1/DTD/svg11.dtd">
<svg version="1.1" id="Layer_1" xmlns="http://www.w3.org/2000/svg" xmlns:xlink="http://www.w3.org/1999/xlink" x="0px" y="0px"
	 width="501px" height="500px" viewBox="0 0 501 500" enable-background="new 0 0 501 500" xml:space="preserve">
<g>
	<path fill="#44A3F2" d="M454.834,306.256l-56.578,56.578l-39.73-39.73l56.578-56.578c25.283-25.283,16.478-75.227-10.938-102.642
		c-27.415-27.415-77.359-36.221-102.642-10.938l-56.578,56.578l-39.73-39.729l56.578-56.578
		c45.486-45.486,129.69-35.294,179.012,14.028S500.32,260.77,454.834,306.256z"/>
	<path fill="#44A3F2" d="M357.822,403.269l-57.616,57.616c-45.486,45.486-129.69,35.294-179.011-14.028
		S61.68,313.332,107.166,267.846l57.616-57.617l39.73,39.73l-57.616,57.616c-25.284,25.284-16.478,75.227,10.938,102.642
		c27.415,27.415,77.359,36.221,102.642,10.938l57.616-57.616L357.822,403.269z"/>
	<g>
		<g>
			<g>
				<path fill="#44A3F2" d="M199.269,358.123c-7.077-7.077-5.983-19.752,2.431-28.166l121.84-121.838
					c8.414-8.414,21.089-9.507,28.166-2.431l10.661,10.661c7.077,7.077,5.983,19.752-2.431,28.166L238.097,366.353
					c-8.414,8.414-21.089,9.508-28.166,2.431L199.269,358.123z"/>
			</g>
		</g>
	</g>
</g>
</svg>
