<?xml version="1.0" encoding="utf-8"?>
<!-- Generator: Adobe Illustrator 17.0.0, SVG Export Plug-In . SVG Version: 6.00 Build 0)  -->
<!DOCTYPE svg PUBLIC "-//W3C//DTD SVG 1.1//EN" "http://www.w3.org/Graphics/SVG/1.1/DTD/svg11.dtd">
<svg version="1.1" id="Layer_1" xmlns="http://www.w3.org/2000/svg" xmlns:xlink="http://www.w3.org/1999/xlink" x="0px" y="0px"
	 width="512px" height="512px" viewBox="0 0 512 512" enable-background="new 0 0 512 512" xml:space="preserve">
<g>
	<path fill="#44A3F2" d="M168.46,169.386c0-12.6-10.309-22.909-22.909-22.909h-10.19c-12.6,0-22.909,10.309-22.909,22.909v21.048
		v53.296l56.008-28.068V169.386z"/>
</g>
<path fill="#44A3F2" d="M391.982,103.627l-198.147,99.316l-0.001-33.063c0-12.6,9.309-27.338,20.687-32.751l156.772-74.583
	c11.379-5.413,20.687,0.079,20.687,12.203L391.982,103.627z"/>
<path fill="#44A3F2" d="M193.835,297.054v44.058c0,12.6,9.309,27.338,20.687,32.751l156.771,74.583
	c11.379,5.413,20.687-0.467,20.687-13.067l0.002-237.018l73.56-35.201l-19.709-39.323L46.46,324.009l19.709,39.323l46.282-24.613
	v4.721c0,12.6,10.309,22.909,22.909,22.909h10.19c12.6,0,22.909-10.309,22.909-22.909v-32.799L193.835,297.054z"/>
</svg>
