<?xml version="1.0" encoding="UTF-8"?>
<svg width="210mm" height="210mm" version="1.1" viewBox="0 0 210 210" xmlns="http://www.w3.org/2000/svg">
 <g transform="translate(2.1693 -17.895)" fill="#ea4335" opacity=".85">
  <g transform="matrix(.26458 0 0 .26458 5.4626 69.934)">
   <path d="m180.2 194.92-15.42 15.309-57.615 57.617c-45.486 45.486-35.292 129.69 14.029 179.01 49.321 49.322 133.52 59.513 179.01 14.027l73.387-73.385c16.797-16.797 16.65-16.945-80.695-114.29-95.393-95.393-95.357-95.629-112.7-78.29zm24.311 55.039 113.58 113.58-57.617 57.617c-25.283 25.283-75.226 16.476-102.64-10.939-27.416-27.415-36.223-77.357-10.939-102.64z"/>
   <path d="m212.47 255.73c-7.077-7.077-5.983-19.752 2.431-28.166l69.84-71.838c8.414-8.414 21.089-9.507 28.166-2.431l10.661 10.661c7.077 7.077 5.983 19.752-2.431 28.166l-69.839 71.838c-8.414 8.414-21.089 9.508-28.166 2.431z"/>
   <path d="m298.67 340.58c-7.077-7.077-5.983-19.752 2.431-28.166l69.84-71.838c8.414-8.414 21.089-9.507 28.166-2.431l10.661 10.661c7.077 7.077 5.983 19.752-2.431 28.166l-69.839 71.838c-8.414 8.414-21.089 9.508-28.166 2.431z"/>
   <path d="m5.197 541.26c-9.6093-9.6093-8.1238-26.82 3.3009-38.244l94.83-97.543c11.425-11.425 28.635-12.909 38.244-3.3008l14.476 14.476c9.6093 9.6093 8.1238 26.82-3.3009 38.244l-94.829 97.543c-11.425 11.425-28.635 12.91-38.244 3.3009z" stroke-width="1.3578"/>
   <rect transform="matrix(2.6726,2.6726,-2.6726,2.6726,-20.646,-264.32)" x="119.03" y="41.713" width="80.945" height="17.051" ry="3.6901"/>
   <g transform="rotate(180,368.01,200.17)">
    <path d="m180.2 194.92-15.42 15.309-57.615 57.617c-45.486 45.486-35.292 129.69 14.029 179.01 49.321 49.322 133.52 59.513 179.01 14.027l73.387-73.385c16.797-16.797-18.139-51.734-80.695-114.29-62.094-62.094-95.357-95.629-112.7-78.29zm24.311 55.039 113.58 113.58-57.617 57.617c-25.283 25.283-75.226 16.476-102.64-10.939-27.416-27.415-36.223-77.357-10.939-102.64z"/>
    <path d="m5.197 541.26c-9.6093-9.6093-8.1238-26.82 3.3009-38.244l94.83-97.543c11.425-11.425 28.635-12.909 38.244-3.3008l14.476 14.476c9.6093 9.6093 8.1238 26.82-3.3009 38.244l-94.829 97.543c-11.425 11.425-28.635 12.91-38.244 3.3009z" stroke-width="1.3578"/>
   </g>
  </g>
  <path transform="matrix(.075602 -.15096 .15096 .075603 72.668 216.59)" d="m214.64 309.15c-7.077-7.077-5.983-19.752 2.431-28.166l121.84-121.84c8.414-8.414 21.089-9.507 28.166-2.431l10.661 10.661c7.077 7.077 5.983 19.752-2.431 28.166l-121.84 121.84c-8.414 8.414-21.089 9.508-28.166 2.431z" fill="#ea4335"/>
  <g stroke-width=".16884">
   <path d="m170.02 183.2c-1.1606 1.2281-3.305 1.104-4.7652-0.2759l-21.144-19.981c-1.4602-1.3799-1.7051-3.5138-0.54464-4.7419l1.7484-1.8501c1.1606-1.2281 3.305-1.104 4.7652 0.2759l21.144 19.981c1.4602 1.3799 1.7053 3.5138 0.54464 4.7419z"/>
   <path d="m190.26 144.43c-0.43738 1.6322-2.3831 2.5422-4.3236 2.0223l-28.101-7.5287c-1.9406-0.51992-3.1704-2.2809-2.7332-3.9129l0.65888-2.4587c0.43738-1.6322 2.3831-2.5422 4.3236-2.0223l28.101 7.5287c1.9406 0.51992 3.1705 2.2808 2.7332 3.9129z" fill="#ea4335"/>
   <path d="m40.975 57.672c1.1606-1.2281 3.305-1.104 4.7651 0.2759l21.144 19.981c1.4602 1.3799 1.7051 3.5138 0.54465 4.7419l-1.7484 1.8501c-1.1606 1.2281-3.305 1.104-4.7651-0.2759l-21.144-19.981c-1.4602-1.3799-1.7053-3.5138-0.54464-4.7419z"/>
  </g>
  <path d="m81.22 36.079c1.6034-0.5333 3.4341 0.59012 4.0682 2.4964l9.1816 27.604c0.63406 1.9063-0.15919 3.9024-1.7624 4.4357l-2.4154 0.80338c-1.6034 0.5333-3.4341-0.59012-4.0682-2.4964l-9.1816-27.604c-0.63406-1.9063 0.15904-3.9024 1.7624-4.4357z" fill="#ea4335" stroke-width=".16883"/>
  <path d="m17.478 95.484c0.43738-1.6322 2.3831-2.5422 4.3236-2.0223l28.101 7.5287c1.9406 0.51992 3.1704 2.2809 2.7332 3.9129l-0.65888 2.4587c-0.43738 1.6322-2.3831 2.5422-4.3236 2.0223l-28.101-7.5287c-1.9406-0.51992-3.1705-2.2808-2.7332-3.9129z" fill="#ea4335" stroke-width=".16884"/>
 </g>
</svg>
