<?xml version="1.0" encoding="UTF-8"?>
<svg width="186.18" height="186.18" version="1.1" xmlns="http://www.w3.org/2000/svg">
 <path d="m35.342 83.672c1.277 18.285 3.563 32.331 7.326 48.835l20.445 43.166 23.339 8.694 23.413-4.763 14.973-15.162 8.807-30.21 7.347-18.852 12.277-26.643 6.043-25.646-5.892-32.819-19.329-17.535-42.591-9.929-31.653 12.462-16.873 27.118z" display="none" fill="#fad8c5" stroke="#000" stroke-width=".999"/>
 <path d="m82.864 185.93c-12.71-1.862-22.902-8.617-27.367-18.135a254.5 254.5 0 0 0-2.93-5.953c-4.458-8.756-8.016-18.038-9.392-24.497-1.152-5.408-1.153-11.911-2e-3 -15.256 1.523-4.427 4.282-7.287 8.727-9.045 1.797-0.71 2.742-0.814 7.51-0.83 4.069-0.012 6.18 0.153 8.308 0.652 5.288 1.238 6.826 3.583 10.211 15.567 2.512 8.893 3.59 11.802 5.017 13.53l1.13 1.37 3.122-0.152c4.406-0.214 6.876-1.363 8.025-3.734 0.694-1.433 0.796-2.082 0.617-3.95-0.366-3.826-2.571-9.02-6.571-15.474-2.424-3.912-2.313-4.521 1.474-8.095 5.48-5.17 10.428-12.424 12.328-18.072 0.958-2.846 0.913-7.276-0.096-9.5-1.505-3.316-5.792-6.363-10.148-7.211-6.445-1.255-12.48 2.995-17.055 12.008-1.577 3.107-3.035 3.861-5.251 2.716-1.113-0.574-2.331-3.137-4.15-8.727-3.754-11.536-4.814-23.61-2.792-31.779 0.962-3.885 3.431-8.975 5.722-11.795 4.404-5.421 11.453-9.295 19.2-10.552 4.239-0.688 13.021-0.688 16.969 0 15.836 2.758 25.931 12.73 28.322 27.977 0.932 5.946 0.385 16.036-1.31 24.152-0.714 3.422-1.041 4.324-1.81 4.994-1.325 1.152-2.892 1.061-4.2-0.245-1.274-1.273-1.313-1.987-0.367-6.616 1.78-8.71 1.96-18.723 0.442-24.465-3.587-13.55-14.545-20.322-31.858-19.685-6.197 0.228-8.412 0.717-12.805 2.823-5.37 2.574-9.448 7.197-11.167 12.657-2.29 7.276-2.053 15.563 0.753 26.36 0.52 1.998 1.015 3.756 1.102 3.907 0.086 0.152 0.829-0.572 1.649-1.61 4.584-5.79 10.414-9.016 16.298-9.016 2.734 0 7.164 1.168 9.848 2.597 3.054 1.626 6.97 5.344 8.137 7.728 4.632 9.455 1.151 20.42-10.632 33.494l-2.668 2.96 1.13 1.914c1.993 3.375 3.964 7.52 4.955 10.414 0.81 2.37 0.969 3.48 0.995 6.994 0.03 3.849-0.044 4.319-0.93 5.992-2.665 5.03-7.604 7.429-15.32 7.44-4.247 6e-3 -5.353-0.386-7.42-2.632-2.661-2.893-3.787-5.574-6.993-16.661-2.461-8.512-3.39-10.776-4.526-11.022-4.618-1.001-9.003-1.184-11.797-0.49-2.81 0.697-4.374 1.908-5.465 4.231-2.266 4.83-0.609 14.689 4.5 26.761 3.18 7.52 8.106 17.031 10.014 19.342 4.699 5.688 12.113 9.243 21.526 10.32 6.638 0.759 15.688-0.745 21.857-3.632 6.698-3.135 8.926-5.36 12.242-12.229 4.3-8.905 6.665-15.803 10.213-29.781 2.563-10.097 4.432-14.995 9.564-25.06 5.34-10.474 7.602-15.728 10.4-24.152 10.032-30.197 4.985-53.944-14.376-67.637-5.31-3.755-11.407-6.297-18.49-7.708-19.09-3.803-35.278-2.773-47.7 3.034-12.495 5.841-21.493 17.611-25.616 33.509-2.38 9.173-3.133 16.878-2.745 28.055 0.153 4.413 0.298 8.796 0.322 9.74 0.052 2.054-0.785 3.101-2.728 3.416-1.74 0.282-3.131-0.92-3.631-3.136-0.582-2.582-0.967-15.272-0.63-20.769 1.522-24.817 10.63-43.326 26.357-53.565 9.028-5.877 21.56-9.2 34.699-9.2 10.547 0 24.69 2.186 32.163 4.972 8.941 3.332 18.06 10.13 23.54 17.546 10.248 13.873 13.105 31.652 8.432 52.481-2.508 11.18-6.047 20.337-14.107 36.5-5.674 11.38-6.418 13.38-9.653 25.969-3.261 12.69-5.878 20.142-10.21 29.078-2.668 5.501-4.535 7.932-8.332 10.844-4.977 3.817-11.553 6.511-19.125 7.835-3.698 0.646-11.67 0.744-15.454 0.19z" display="none" opacity=".22904"/>
 <g fill="#999">
  <path d="m20.308 154.95c-3.9254-12.454 5.3843-17.761 12.764-15.783s2.4868 15.612 13.414 23.604c10.927 7.9923 28.462 3.563 34.047-6.1101 5.5848-9.6731 3.5283-23.396-7.95-33.52 16.628-8.7667 15.743-30.422 11.932-37.512-3.8103-7.0896-15.588-14.412-27.4-11.061-11.812 3.3509-13.705 17.374-15.184 17.186-1.4797-0.18783-7.2358-5.2268-5.5256-16.975 1.0666-7.3266 6.7975-17.585 16.412-20.465 12.613-3.7772 24.915-3.2815 34.957 4.2198 5.8338 4.3579 7.6819 10.183 7.6651 17.379-0.01312 5.598-2.4419 8.3982-1.8944 11.298 0.54747 2.9 6.0318 6.5243 8.9547 4.1826s7.008-7.0048 6.2754-17.959c-0.99551-14.885-6.5699-25.256-18.716-31.423-13.858-7.0363-41.384-5.388-54.371 4.8882s-16.039 25.072-13.718 38.146c2.3216 13.073 19.87 25.184 24.649 22.425 5.1074-2.9488 3.1303-19.88 16.801-19.88 9.1153 0 13.983 9.2553 9.792 16.497-3.0208 5.2191-9.692 10.811-17.575 12.924-2.7658 0.74109-2.8662 3.5906 0.16519 6.0205 8.0895 6.4843 14.122 17.611 12.819 22.424-1.7878 6.6058-11.288 10.399-16.241 3.4191s-3.5658-16.954-13.938-23.267c-7.6094-4.6316-21.414 6.8083-23.511-1.0172-2.0968-7.8255-2.6678-8.9964-3.5914-10.974-14.851-31.806-11.008-58.284 6.2252-78.908 15.601-18.67 57.63-23.727 78.228-14.327 20.598 9.4004 32.448 36.209 30.977 58.758-1.4713 22.549-18.979 36.89-22.434 49.784s1.2805 16.569-6.9993 36.11c-8.2799 19.541-39.159 21.251-51.153 16.36s-21.949-13.989-25.874-26.443z" opacity=".7" style="paint-order:stroke fill markers"/>
  <path d="m163.44 159.06c5.0252-5.4287 7.7587-11.289 6.0738-13.026l-1.3943-1.6624c-21.274-25.39-21.023-63.434 1.0038-88.51l0.8059-0.91743c0.93551-0.97962-2.4992-6.14-7.6327-11.468-1.5372-1.5072-3.091 0.42269-4.8538 2.2863l-1.4907 1.758c-27.043 31.891-23.613 81.741-0.4956 109.35l1.9958 2.3831c2.419 2.4882 3.1844 2.8379 5.9877-0.1892z" opacity=".7" stroke-width=".99999"/>
  <path d="m182.14 131.24c2.591-2.799 4.0004-5.8204 3.1317-6.7161l-0.7189-0.85711c-10.969-13.091-10.84-32.707 0.51755-45.636 0.41553-0.47303 0.41553-0.47303 0.41553-0.47303 0.48236-0.50509-1.2886-3.1658-3.9354-5.9131-2.6457-2.7473-5.5549-4.2077-6.4638-3.2468l-0.76859 0.90645c-15.493 18.271-15.498 45.19-0.18561 63.462l1.029 1.2288c1.2472 1.2829 4.3864 0.0433 6.9785-2.7558z" opacity=".7"/>
 </g>
</svg>
