<?xml version="1.0" encoding="utf-8"?>
<!-- Generator: Adobe Illustrator 17.0.0, SVG Export Plug-In . SVG Version: 6.00 Build 0)  -->
<!DOCTYPE svg PUBLIC "-//W3C//DTD SVG 1.1//EN" "http://www.w3.org/Graphics/SVG/1.1/DTD/svg11.dtd">
<svg version="1.1"
	 id="Layer_1" xmlns:svg="http://www.w3.org/2000/svg" xmlns:dc="http://purl.org/dc/elements/1.1/" xmlns:inkscape="http://www.inkscape.org/namespaces/inkscape" xmlns:rdf="http://www.w3.org/1999/02/22-rdf-syntax-ns#" xmlns:sodipodi="http://sodipodi.sourceforge.net/DTD/sodipodi-0.dtd" xmlns:cc="http://creativecommons.org/ns#" inkscape:version="0.46" sodipodi:version="0.32" inkscape:output_extension="org.inkscape.output.svg.inkscape"
	 xmlns="http://www.w3.org/2000/svg" xmlns:xlink="http://www.w3.org/1999/xlink" x="0px" y="0px" width="744px" height="750px"
	 viewBox="0 0 744 750" enable-background="new 0 0 744 750" xml:space="preserve">
<g id="layer1" inkscape:label="Ebene 1" inkscape:groupmode="layer" opacity="0.9">
	<g>
		<g id="g7561_6_">
			
				<g id="path3346_8_" sodipodi:type="arc" sodipodi:cx="387.14285" sodipodi:ry="58.57143" sodipodi:rx="341.42856" sodipodi:cy="342.36218">
				<path fill="#34A853" d="M491.85,389.59l-17.98,20.28c-8.53,9.2-15.51,26.98-15.51,39.52v275.12c0,12.54-10.18,21.48-22.61,19.86
					l-138.12-58.41c-10.15-7.37-18.44-23.68-18.44-36.22V447.76c0-12.54-6.92-30.39-15.36-39.65L20.9,129.08
					c-8.45-9.27-5.78-20.53,5.93-25.02c0,0,130.17-58.62,345.18-58.62c13.38,0,26.43,0.23,39.14,0.65
					c-33.99,38.09-54.65,88.34-54.65,143.41C356.5,280.19,412.53,357.8,491.85,389.59z"/>
			</g>
		</g>
	</g>
</g>
<polygon fill="#FBBC05" points="535.655,196.29 720.52,82.572 744,113.104 520.376,285.188 424.025,159.899 454.556,136.42 "/>
</svg>
