<?xml version="1.0" encoding="utf-8"?>
<!-- Generator: Adobe Illustrator 17.0.0, SVG Export Plug-In . SVG Version: 6.00 Build 0)  -->
<!DOCTYPE svg PUBLIC "-//W3C//DTD SVG 1.1//EN" "http://www.w3.org/Graphics/SVG/1.1/DTD/svg11.dtd">
<svg version="1.1" id="Layer_1" xmlns="http://www.w3.org/2000/svg" xmlns:xlink="http://www.w3.org/1999/xlink" x="0px" y="0px"
	 width="512px" height="512px" viewBox="0 0 512 512" enable-background="new 0 0 512 512" xml:space="preserve">
<g id="Layer_2" display="none">
	<rect x="-109.5" y="-86.5" display="inline" stroke="#000000" stroke-miterlimit="10" width="721" height="687"/>
</g>
<path fill="#9B59B6" d="M156.309,380.407c0,35.346-28.653,64-63.996,64c-35.352,0-64.004-28.654-64.004-64
	c0-27.27,17.054-50.552,41.08-59.771c7.113-2.736,14.849-4.229,22.924-4.229c8.083,0,15.81,1.501,22.924,4.229
	C139.255,329.855,156.309,353.137,156.309,380.407z"/>
<path fill="#9B59B6" d="M320,256.011c0,27.042-16.76,50.16-40.465,59.54c-7.286,2.877-15.228,4.46-23.535,4.46
	s-16.249-1.583-23.535-4.46C208.76,306.171,192,283.053,192,256.011s16.76-50.16,40.465-59.54c7.286-2.877,15.228-4.46,23.535-4.46
	s16.249,1.583,23.535,4.46C303.24,205.851,320,228.969,320,256.011z"/>
<path fill="#9B59B6" d="M281.488,84.27v81.347c-8.103-2.286-16.657-3.503-25.488-3.503c-8.831,0-17.385,1.217-25.488,3.503V84.27
	c0-6.692,5.43-12.113,12.113-12.113h26.751C276.059,72.158,281.488,77.578,281.488,84.27z"/>
<path fill="#9B59B6" d="M483.691,131.874c0,27.276-17.054,50.557-41.08,59.776c-7.113,2.736-14.849,4.228-22.924,4.228
	c-8.083,0-15.81-1.501-22.924-4.228c-24.018-9.219-41.072-32.508-41.072-59.776c0-35.343,28.653-63.996,63.996-63.996
	C455.038,67.878,483.691,96.53,483.691,131.874z"/>
<path fill="#9B59B6" d="M256,349.907c8.831,0,17.385-1.217,25.488-3.503v81.679c0,6.683-5.43,12.113-12.113,12.113h-26.751
	c-6.683,0-12.113-5.43-12.113-12.113v-81.679C238.615,348.691,247.169,349.907,256,349.907z"/>
<path fill="#9B59B6" d="M419.686,225.77c8.831,0,17.385-1.217,25.488-3.503v205.817c0,6.683-5.42,12.113-12.113,12.113h-26.751
	c-6.683,0-12.113-5.43-12.113-12.113V222.267C402.301,224.553,410.855,225.77,419.686,225.77z"/>
<path fill="#9B59B6" d="M117.802,84.27v205.743c-8.103-2.286-16.657-3.503-25.488-3.503s-17.385,1.217-25.488,3.503V84.27
	c0-6.692,5.42-12.113,12.113-12.113h26.751C112.372,72.158,117.802,77.578,117.802,84.27z"/>
</svg>
