<?xml version="1.0" encoding="UTF-8" standalone="no"?><!DOCTYPE svg PUBLIC "-//W3C//DTD SVG 1.1//EN" "http://www.w3.org/Graphics/SVG/1.1/DTD/svg11.dtd"><svg width="100%" height="100%" viewBox="0 0 512 512" version="1.1" xmlns="http://www.w3.org/2000/svg" xmlns:xlink="http://www.w3.org/1999/xlink" xml:space="preserve" style="fill-rule:evenodd;clip-rule:evenodd;stroke-linejoin:round;stroke-miterlimit:1.41421;"><path d="M256,55.05c-41.43,0 -75.02,33.59 -75.02,75.02l0,100.89l150.04,-81.8l0,-19.09c0,-41.43 -33.59,-75.02 -75.02,-75.02Z" style="fill:#f38f16;fill-opacity:0.898039;fill-rule:nonzero;"/><path d="M274.54,444.93c62.37,-8.99 110.29,-62.66 110.29,-127.51l-26.71,0.79c0,56.4 -45.72,102.12 -102.12,102.12c-44.12,0 -81.71,-27.98 -95.97,-67.17l-0.001,-0.002l27.46,-14.971l0.001,0.003c11.71,26.19 37.98,44.43 68.51,44.43c41.43,0 75.02,-33.59 75.02,-75.02l0.001,-47.667l150.479,-82.043l-22.98,-42.14l-428.02,233.36l22.98,42.14l83.149,-45.333l0.001,0.003c16.91,41.62 54.96,72.39 100.83,79.01l0,27.24l-73.4,0c-10.41,0 -18.85,8.44 -18.85,18.85l0,-2.93c0,10.42 8.44,18.86 18.85,18.86l183.88,0c10.41,0 18.85,-8.44 18.85,-18.86l0,2.93c0,-10.41 -8.44,-18.85 -18.85,-18.85l-73.4,0l0,-27.24Z" style="fill:#f38f16;fill-opacity:0.898039;fill-rule:nonzero;"/></svg>