<?xml version="1.0" encoding="utf-8"?>
<!-- Generator: Adobe Illustrator 17.0.0, SVG Export Plug-In . SVG Version: 6.00 Build 0)  -->
<!DOCTYPE svg PUBLIC "-//W3C//DTD SVG 1.1//EN" "http://www.w3.org/Graphics/SVG/1.1/DTD/svg11.dtd">
<svg version="1.1" id="Layer_1" xmlns="http://www.w3.org/2000/svg" xmlns:xlink="http://www.w3.org/1999/xlink" x="0px" y="0px"
	 width="512px" height="512px" viewBox="0 0 512 512" enable-background="new 0 0 512 512" xml:space="preserve">
<path opacity="0.85" fill="#EA4335" enable-background="new    " d="M256,55.05c-41.43,0-75.02,33.59-75.02,75.02v100.89
	l150.04-81.8v-19.09C331.02,88.64,297.43,55.05,256,55.05z"/>
<path opacity="0.85" fill="#FF3E3E" enable-background="new    " d="M237.46,444.93L237.46,444.93z"/>
<path opacity="0.85" fill="#FF3E3E" enable-background="new    " d="M274.54,444.93L274.54,444.93z"/>
<path opacity="0.85" fill="#EA4335" enable-background="new    " d="M274.54,444.93c62.37-8.99,110.29-62.66,110.29-127.51
	l-26.71,0.79c0,56.4-45.72,102.12-102.12,102.12c-44.12,0-81.71-27.98-95.97-67.17l-0.001-0.002l27.46-14.971l0.001,0.003
	c11.71,26.19,37.98,44.43,68.51,44.43c41.43,0,75.02-33.59,75.02-75.02l0.001-47.667L481.5,177.89l-22.98-42.14L30.5,369.11
	l22.98,42.14l83.149-45.333l0.001,0.003c16.91,41.62,54.96,72.39,100.83,79.01v27.24h-73.4c-10.41,0-18.85,8.44-18.85,18.85v-2.93
	c0,10.42,8.44,18.86,18.85,18.86h183.88c10.41,0,18.85-8.44,18.85-18.86v2.93c0-10.41-8.44-18.85-18.85-18.85h-73.4V444.93z"/>
</svg>
