<?xml version="1.0" encoding="utf-8"?>
<svg version="1.1" xmlns="http://www.w3.org/2000/svg" width="512px" height="512px" viewBox="0 0 512 512">
<g opacity="0.9">
	<path fill="#EA4335" d="M256,48c-17.7,0-32,14.3-32,32v13.4c-22.5,5.1-42.9,15.5-60.1,29.8l232.3,232.3l0.7,0.9H436v-24l-40-48
		V232c0-67.1-44.6-124.1-108-138.6V80C288,62.3,273.7,48,256,48z"/>
	<path fill="#EA4335" d="M116,232c0-9.5,0.9-18.8,2.6-27.8L76,161.6V232v104l-40,48v24h299.6l-72-72H116V232z"/>
	<path fill="#EA4335" d="M256,464c30.9,0,56-25.1,56-56H200C200,438.9,225.1,464,256,464z"/>
	<rect x="238" y="-15" transform="matrix(0.7071 -0.7071 0.7071 0.7071 -106.0387 256)" fill="#EA4335" width="36" height="542"/>
</g>
</svg>
