<?xml version="1.0" encoding="utf-8"?>
<!-- Generator: Adobe Illustrator 17.0.0, SVG Export Plug-In . SVG Version: 6.00 Build 0)  -->
<!DOCTYPE svg PUBLIC "-//W3C//DTD SVG 1.1//EN" "http://www.w3.org/Graphics/SVG/1.1/DTD/svg11.dtd">
<svg version="1.1" id="Layer_1" xmlns="http://www.w3.org/2000/svg" xmlns:xlink="http://www.w3.org/1999/xlink" x="0px" y="0px"
	 width="141.732px" height="141.732px" viewBox="0 0 141.732 141.732" enable-background="new 0 0 141.732 141.732"
	 xml:space="preserve">
<g>
	<g>
		<g>
			<g>
				<path fill="#44A3F2" d="M112.346,99.875c-7.758,5.068-25.279-11.092-34.262-14.148c-2.521-0.859-7.765-1.967-10.414-2.253
					c-0.914-0.092-1.985-0.175-3.176-0.24c1.357,7.368,3.611,30.804,10.304,37.844c3.72,3.913-4.367,9.768-9.759,9.768h-6.491
					c-5.392,0-9.759-4.376-9.759-9.768c0,0,0.913-32.014-6.638-38.02c-5.799-4.612-22.186,1.404-29.593,1.605
					c-3.163,0.086-5.753-2.589-5.753-5.753V39.295c0-3.164,2.589-5.785,5.753-5.753c13.78,0.14,41.344,1.72,55.112,1.119
					c2.663-0.116,7.912-1.348,10.414-2.253c8.928-3.222,26.52-19.241,34.262-14.148C109.415,16.333,109.313,101.856,112.346,99.875z
					"/>
			</g>
		</g>
	</g>
</g>
<g>
	<path fill="#44A3F2" d="M124.029,86.874c-2.418-2.561-3.747-5.338-2.953-6.173c0,0,0,0,0.656-0.798
		c10.009-12.188,9.711-30.3-0.894-42.135c-0.388-0.433-0.388-0.433-0.388-0.433c-0.45-0.462,1.161-2.935,3.58-5.496
		c2.418-2.561,5.091-3.936,5.939-3.057c0,0,0,0,0.718,0.83c14.473,16.73,14.723,41.587,0.75,58.599
		c-0.939,1.144-0.939,1.144-0.939,1.144C129.358,90.551,126.448,89.435,124.029,86.874z"/>
</g>
</svg>
