<?xml version="1.0" encoding="utf-8"?>
<!-- Generator: Adobe Illustrator 17.0.0, SVG Export Plug-In . SVG Version: 6.00 Build 0)  -->
<!DOCTYPE svg PUBLIC "-//W3C//DTD SVG 1.1//EN" "http://www.w3.org/Graphics/SVG/1.1/DTD/svg11.dtd">
<svg version="1.1" id="Layer_1" xmlns="http://www.w3.org/2000/svg" xmlns:xlink="http://www.w3.org/1999/xlink" x="0px" y="0px"
	 width="512px" height="512px" viewBox="0 0 512 512" enable-background="new 0 0 512 512" xml:space="preserve">
<g opacity="0.9">
	<g>
		<g>
			<path fill="#34A853" d="M170.907,136.328c-12.249,5.827-22.271,21.695-22.271,35.259l-0.001,168.823
				c0,13.565,10.022,29.431,22.271,35.259l153.775,73.163c12.249,5.827,22.271-0.502,22.271-14.067l0.002-357.53
				c0-13.565-10.022-19.895-22.271-14.067L170.907,136.328z"/>
		</g>
	</g>
</g>
<g opacity="0.9">
	<g>
		<g>
			<g>
				<path fill="#34A853" d="M67.18,171.09c0-13.565,11.098-24.663,24.663-24.663h6.734c13.565,0,24.663,11.098,24.663,24.663v169.82
					c0,13.565-11.098,24.663-24.663,24.663h-6.734c-13.565,0-24.663-11.098-24.663-24.663V171.09z"/>
			</g>
		</g>
	</g>
</g>
<path opacity="0.9" fill="#34A853" enable-background="new    " d="M424.835,406.492L403.143,384.8
	c71.02-71.02,71.019-186.579,0.001-257.599l21.693-21.693C507.818,188.49,507.818,323.511,424.835,406.492z"/>
<path opacity="0.9" fill="#34A853" enable-background="new    " d="M382.838,362.074l-21.693-21.693
	c46.527-46.527,46.527-122.233,0.001-168.764l21.693-21.693C441.327,208.415,441.327,303.586,382.838,362.074z"/>
</svg>
