<svg xmlns="http://www.w3.org/2000/svg" height="512" width="512">
  <path d="M256.104 59.479c63.393 0 114.783 51.39 114.783 114.783s-51.39 114.783-114.783 114.783-114.783-51.39-114.783-114.783 51.39-114.783 114.783-114.783zm0 180.373c102.91 0 186.335 60.066 186.335 134.161s-83.425 134.161-186.335 134.161S69.769 448.108 69.769 374.013s83.425-134.161 186.335-134.161zM439.061 251.956l-33.312-22.57c39.665-56.785 25.166-137.337-26.215-173.23l22.57-32.313c85.328 59.603 96.937 142.243 36.957 228.113zM111.561 23.827l22.593 32.297c-51.367 35.93-68.125 116.506-28.431 173.255L73.426 251.97C12.513 164.889 24.48 84.74 111.561 23.827z" fill="#7a7a7a" opacity=".9"/>
</svg>
